<svg xmlns="http://www.w3.org/2000/svg" width="40" height="45" viewBox="0 0 40 45" fill="none"><path fill-rule="evenodd" clip-rule="evenodd" d="M23.6005 6.49659C21.2227 5.50775 18.65 5.08134 16.0818 5.25034C13.5135 5.41933 11.0184 6.17922 8.78942 7.47121L6.54049 8.77478L3.94364 4.2591L6.19257 2.95553C9.11145 1.26364 12.3788 0.268546 15.7421 0.0472359C19.1053 -0.174074 22.4741 0.384329 25.5881 1.67925C28.7019 2.97416 31.4773 4.97089 33.6996 7.51495C35.9219 10.059 37.5314 13.0823 38.4038 16.3507C39.2761 19.6192 39.3878 23.0454 38.7303 26.3641C38.0727 29.6829 36.6636 32.8053 34.6118 35.4898C32.56 38.1744 29.9206 40.349 26.8978 41.8456C23.8749 43.3423 19.976 44.1207 17.1792 44.1207C14.3825 44.1207 12.7496 43.6996 10.6049 42.8078C8.52069 41.941 6.62688 40.6706 5.03165 39.0691C3.43641 37.4675 2.17102 35.5662 1.30768 33.4737C0.44435 31.3812 0 29.1384 0 26.8735C0 24.6085 0.444351 22.3659 1.30768 20.2733C2.17102 18.1808 3.43641 16.2795 5.03165 14.6779C6.62688 13.0764 8.52069 11.8059 10.605 10.9392C12.6892 10.0724 14.9232 9.62633 17.1791 9.62633C19.4351 9.62633 21.669 10.0724 23.7533 10.9392C25.8376 11.8059 27.7314 13.0764 29.3266 14.6779C30.9219 16.2795 32.1873 18.1808 33.0505 20.2733C33.4219 21.1734 33.7157 22.1012 33.9301 23.0467C34.0349 21.2518 33.8531 19.4466 33.387 17.7003C32.721 15.2044 31.4918 12.8957 29.7948 10.9529C28.0977 9.01021 25.9784 7.48544 23.6005 6.49659ZM6.80666 32.9025C7.10124 27.2968 11.7219 22.8425 17.3789 22.8425C22.8172 22.8425 27.2978 26.9592 27.8978 32.2578C28.0249 32.0026 28.1431 31.7427 28.2522 31.4783C28.8545 30.0184 29.1646 28.4537 29.1646 26.8735C29.1646 25.2933 28.8545 23.7286 28.2522 22.2687C27.6499 20.8088 26.767 19.4824 25.6541 18.365C24.5412 17.2476 23.2199 16.3612 21.7657 15.7566C20.3116 15.1518 18.753 14.8406 17.1791 14.8406C15.6051 14.8406 14.0466 15.1518 12.5925 15.7566C11.1384 16.3612 9.81709 17.2476 8.70414 18.365C7.59119 19.4824 6.70835 20.8088 6.10602 22.2687C5.5037 23.7286 5.19369 25.2933 5.19369 26.8735C5.19369 28.4537 5.5037 30.0184 6.10602 31.4783C6.30851 31.969 6.54269 32.4447 6.80666 32.9025ZM22.7723 33.4716C22.7723 36.4621 20.3576 38.8865 17.3789 38.8865C14.4001 38.8865 11.9854 36.4621 11.9854 33.4716C11.9854 30.4811 14.4001 28.0568 17.3789 28.0568C20.3576 28.0568 22.7723 30.4811 22.7723 33.4716Z" fill="#006B99"></path></svg>