<svg width="164" height="167" viewBox="0 0 164 167" fill="none" xmlns="http://www.w3.org/2000/svg">
<path d="M161.806 69.0945H159.064V100.988H161.806V69.0945Z" fill="#FFCEB6"/>
<path d="M85.1321 104.199L84.2571 103.303C79.881 102.96 73.2311 101.199 69.0191 95.9854C68.7729 95.6817 68.5473 95.3618 68.3435 95.0278C67.966 94.4187 67.7004 93.7466 67.5596 93.0437C66.8436 89.2821 70.7228 86.5443 72.5495 86.0965C74.8482 85.5393 78.8031 86.2637 80.3969 86.6029C80.8336 86.6971 81.0947 86.759 81.0947 86.759C81.3798 86.7808 81.666 86.7808 81.9507 86.759C82.1467 86.7475 82.3571 86.733 82.5827 86.7152C82.6552 86.7152 82.728 86.7082 82.8042 86.7004C82.8479 86.7004 82.89 86.7004 82.9351 86.6937C83.8027 86.6329 84.6731 86.6437 85.5385 86.7263C85.7859 86.7519 86.0436 86.7883 86.3091 86.832C86.4537 86.8576 86.5994 86.8869 86.748 86.9176C86.8682 86.9436 86.988 86.9725 87.1112 87.0036C87.2018 87.0259 87.2927 87.0507 87.3833 87.0763C87.5694 87.1271 87.7543 87.182 87.9392 87.2439C87.9473 87.2476 87.9558 87.2498 87.9647 87.2516C88.0505 87.2798 88.1359 87.3091 88.2217 87.3425V87.3384C89.5533 87.8326 90.7877 88.5592 91.8674 89.4837C92.8733 90.336 93.9812 91.2243 95.1327 92.1092C96.6736 93.2891 98.2922 94.4647 99.8753 95.5349C99.8753 95.5349 100.45 95.6447 101.306 95.7537L101.317 95.6628V85.0674H122.316C125.74 92.3623 131.105 105.598 134.908 116.215C138.863 127.254 151.574 146.536 154.153 152.98C157.221 160.641 157.221 164.909 157.221 164.909H112.058C112.078 163.225 111.9 161.545 111.528 159.902L113.173 152.522C111.895 152.554 109.883 152.522 109.883 152.522V152.529C109.651 152.478 108.499 152.19 103.805 150.963C96.6426 149.092 81.1128 129.609 81.1128 129.609C79.5445 128.874 76.7947 125.438 75.1673 123.278C74.356 122.202 73.8615 120.919 73.7403 119.575H73.7147C73.7147 119.575 65.5546 118.631 61.1707 117.23C61.1707 117.23 54.1868 115.396 52.2402 114.555C52.2402 114.555 40.0378 110.015 36.9541 108.227C33.8708 106.439 35.3278 98.9463 41.5007 100.738C45.1365 101.79 48.34 102.856 48.4887 102.908C49.8794 103.91 51.5491 104.447 53.2616 104.444H62.2922C62.2922 104.444 72.8165 106.741 74.7956 107.182L75.0526 107.196C75.2612 106.238 75.597 105.313 76.0507 104.444H84.9486L85.1321 104.199Z" fill="#FFCEB6"/>
<path d="M154.721 79.2925C154.746 79.2566 154.771 79.2206 154.797 79.1872C154.705 80.0992 154.362 80.9678 153.806 81.6955C153.43 82.2349 152.89 82.6371 152.267 82.8418C151.644 83.046 150.97 83.0419 150.35 82.8292L148.21 85.5524L145.813 82.5014L147.953 79.7785C147.773 79.0249 147.76 78.2415 147.914 77.4827C148.067 76.7235 148.384 76.0072 148.842 75.3833C149.323 74.7342 150.027 74.2867 150.818 74.127C150.786 74.1559 150.758 74.1878 150.732 74.2222C150.196 74.9585 149.907 75.8463 149.907 76.7579C149.907 77.6695 150.196 78.5574 150.732 79.2936C150.956 79.6162 151.254 79.8801 151.601 80.0621C151.949 80.2445 152.335 80.3394 152.727 80.3394C153.119 80.3394 153.505 80.2441 153.852 80.0618C154.2 79.8794 154.498 79.6154 154.721 79.2925Z" fill="#CCEFF6"/>
<path d="M152.803 90.3102C153.242 90.9108 153.479 91.6355 153.479 92.3799C153.479 93.1243 153.242 93.8491 152.803 94.4493C152.621 94.7132 152.377 94.9286 152.094 95.0776C151.81 95.2263 151.494 95.3041 151.174 95.3041C150.854 95.3041 150.539 95.2263 150.255 95.0776C149.971 94.9286 149.728 94.7132 149.545 94.4493C149.109 93.8654 148.873 93.1555 148.874 92.4259L148.845 92.4652L145.805 88.6034L143.408 85.5524L141.268 82.8292C140.646 83.0427 139.973 83.0475 139.348 82.8432C138.724 82.639 138.183 82.2364 137.807 81.6966C137.252 80.9678 136.911 80.0996 136.819 79.188C136.844 79.2213 136.866 79.2573 136.895 79.2936C137.118 79.6169 137.416 79.8812 137.763 80.064C138.11 80.2464 138.497 80.3416 138.889 80.3416C139.281 80.3416 139.667 80.2464 140.014 80.064C140.362 79.8812 140.66 79.6169 140.883 79.2936C141.42 78.5578 141.71 77.6699 141.71 76.7579C141.71 75.846 141.42 74.9581 140.883 74.2222C140.857 74.1892 140.831 74.1574 140.803 74.127C141.591 74.2875 142.293 74.7349 142.772 75.3833C143.231 76.0069 143.548 76.7231 143.703 77.4819C143.857 78.2412 143.844 79.0249 143.666 79.7785L145.806 82.5014L148.203 85.5524L151.239 89.4142L151.21 89.4546C151.523 89.4679 151.828 89.5517 152.104 89.7C152.38 89.8479 152.619 90.0566 152.803 90.3102Z" fill="#CCEFF6"/>
<path d="M143.405 85.5513L145.805 88.6023L144.712 89.9936L143.405 85.5513Z" fill="#006B99"/>
<path d="M143.405 85.5513L144.712 89.9936L142.765 92.4651L142.733 92.4258C142.734 93.1558 142.498 93.8664 142.06 94.4503C141.878 94.7139 141.634 94.9293 141.351 95.0779C141.067 95.2266 140.752 95.3044 140.431 95.3044C140.111 95.3044 139.796 95.2266 139.512 95.0779C139.228 94.9293 138.985 94.7139 138.802 94.4503C138.366 93.8486 138.131 93.1239 138.131 92.3802C138.131 91.6362 138.366 90.9118 138.802 90.3101C138.987 90.0566 139.226 89.8479 139.502 89.6992C139.778 89.5506 140.084 89.466 140.397 89.4519L140.364 89.4115L143.405 85.5513Z" fill="#CCEFF6"/>
<path d="M142.972 3.92383H140.357V34.3508H142.972V3.92383Z" fill="#FFCEB6"/>
<path d="M130.787 18.6543C130.957 18.8456 131.065 19.0839 131.098 19.3379C131.13 19.5918 131.085 19.8498 130.969 20.0778L130.791 20.4059L129.165 23.4165C129.333 23.7909 129.433 24.1932 129.459 24.6032C129.553 26.0527 128.758 27.2834 127.686 27.3494C126.615 27.4158 125.668 26.3018 125.572 24.8523C125.477 23.4028 126.274 22.1727 127.346 22.106C127.544 22.0923 127.743 22.1194 127.93 22.1857L129.385 19.4995L129.741 18.8404C129.781 18.7418 129.845 18.655 129.928 18.5879C130.01 18.5212 130.108 18.4763 130.213 18.4574C130.317 18.4389 130.425 18.447 130.525 18.4815C130.625 18.516 130.716 18.5753 130.787 18.6543Z" fill="#CCEFF6"/>
<path d="M122.318 85.0675H101.319V46.1838C101.319 46.1838 104.41 47.134 108.361 53.9274C112.313 60.7211 118.53 77.1453 121.919 84.2223C122.049 84.4926 122.185 84.7725 122.318 85.0675Z" fill="#FFCEB6"/>
<path d="M109.926 152.536L109.883 152.522C109.883 152.522 111.895 152.554 113.173 152.522L111.528 159.902C110.888 156.455 109.93 152.697 109.886 152.526C109.899 152.53 109.913 152.534 109.926 152.536Z" fill="#006B99"/>
<path d="M101.319 85.0674V95.6551L101.308 95.7462C100.452 95.6373 99.8767 95.5272 99.8767 95.5272C98.294 94.4569 96.6744 93.2813 95.1342 92.1014L95.1848 92.0361C95.4396 91.4348 95.5705 90.7883 95.5701 90.1351V85.0718L101.319 85.0674Z" fill="#CCEFF6"/>
<path d="M95.5701 23.9012V18.6663C95.5701 17.3688 95.0558 16.1246 94.1409 15.2071C93.2257 14.29 91.9846 13.7743 90.6904 13.7743H61.7468C60.4525 13.7743 59.2115 14.29 58.2962 15.2071C57.3814 16.1246 56.867 17.3688 56.867 18.6663V29.3329C56.867 29.9753 56.9935 30.6115 57.2387 31.205C57.4838 31.7985 57.8433 32.3375 58.2962 32.792C58.7496 33.2462 59.2873 33.6065 59.8793 33.8523C60.4714 34.0981 61.1059 34.2245 61.7468 34.2245H90.6878C91.3286 34.2245 91.9632 34.0981 92.5552 33.8523C93.1473 33.6065 93.6853 33.2462 94.1383 32.792C94.5913 32.3375 94.9507 31.7985 95.1959 31.205C95.4411 30.6115 95.5676 29.9753 95.5676 29.3329L95.5701 23.9012ZM50.2755 55.2122V10.6377C50.2758 8.30771 51.1988 6.0734 52.8422 4.42593C54.4855 2.77847 56.7143 1.85279 59.0381 1.85205H60.0879C60.0879 3.60739 60.7831 5.29082 62.0215 6.53235C63.2596 7.77351 64.9388 8.47083 66.6898 8.47083H83.1133C84.8643 8.46971 86.5435 7.77239 87.782 6.53123C89.0204 5.29044 89.7171 3.60739 89.7189 1.85205H92.5523C93.7034 1.85168 94.8435 2.07893 95.907 2.52008C96.9705 2.96161 97.9372 3.6085 98.7511 4.42445C99.5654 5.2404 100.211 6.20871 100.652 7.27489C101.092 8.34107 101.319 9.48362 101.319 10.6377V85.0675H95.5701V79.4712C95.5701 78.1737 95.0558 76.9296 94.1409 76.012C93.2257 75.0949 91.9846 74.5792 90.6904 74.5792H61.7468C60.4525 74.5792 59.2115 75.0949 58.2962 76.012C57.3814 76.9296 56.867 78.1737 56.867 79.4712V90.1352C56.867 91.4327 57.3814 92.6768 58.2962 93.5944C59.2115 94.5115 60.4525 95.0272 61.7468 95.0272H68.3461C68.5498 95.3612 68.7754 95.6811 69.0217 95.9848C73.231 101.199 79.881 102.957 84.2597 103.303L85.1346 104.198L84.9531 104.446H59.0381C56.7135 104.445 54.4844 103.518 52.8414 101.869C51.1981 100.221 50.2751 97.9855 50.2755 95.6552V55.2122ZM56.874 55.2122V59.7342C56.874 61.0314 57.388 62.2759 58.3033 63.193C59.2185 64.1106 60.4595 64.6258 61.7538 64.6258H90.6948C91.9887 64.6258 93.2301 64.1106 94.145 63.193C95.0602 62.2759 95.5742 61.0314 95.5742 59.7342V49.0698C95.5742 47.7727 95.0602 46.5282 94.145 45.6111C93.2301 44.6935 91.9887 44.1782 90.6948 44.1782H61.7468C60.4525 44.1782 59.2115 44.6935 58.2962 45.6111C57.3814 46.5282 56.867 47.7727 56.867 49.0698L56.874 55.2122Z" fill="#CCEFF6"/>
<path d="M95.5702 85.0674V90.1307C95.5705 90.7839 95.4396 91.4304 95.1848 92.0317L95.1342 92.0969C93.983 91.212 92.8751 90.3238 91.8693 89.4715C90.7895 88.547 89.5551 87.8207 88.2231 87.3262C88.5545 86.7501 88.749 86.105 88.7919 85.4415C88.8348 84.7779 88.7249 84.1136 88.4709 83.4993C88.2168 82.885 87.8249 82.3375 87.326 81.8993C86.8272 81.4611 86.2344 81.1438 85.5935 80.9717C84.9531 80.7997 84.2812 80.7778 83.6307 80.908C82.9802 81.0377 82.3682 81.3158 81.842 81.7206C81.3154 82.1254 80.8894 82.6463 80.5958 83.2427C80.3026 83.8389 80.1498 84.495 80.1495 85.1601C80.1502 85.6502 80.2345 86.1369 80.3995 86.5985C78.8056 86.2593 74.8507 85.5353 72.5521 86.0921C70.7253 86.5399 66.8462 89.2776 67.5621 93.0393C67.703 93.7422 67.9685 94.4143 68.3461 95.0234H61.7468C60.4525 95.0234 59.2115 94.5081 58.2963 93.5906C57.3814 92.6734 56.867 91.4289 56.867 90.1318V79.4711C56.867 78.1736 57.3814 76.9294 58.2963 76.0119C59.2115 75.0948 60.4525 74.5791 61.7468 74.5791H90.6878C91.9821 74.5791 93.2231 75.0948 94.1383 76.0119C95.0532 76.9294 95.5676 78.1736 95.5676 79.4711V85.0674H95.5702Z" fill="#CCEFF6"/>
<path d="M56.867 55.2117V49.0697C56.867 47.7722 57.3814 46.5281 58.2963 45.6106C59.2115 44.6934 60.4525 44.1777 61.7468 44.1777H90.6878C91.9821 44.1777 93.2231 44.6934 94.1383 45.6106C95.0532 46.5281 95.5676 47.7722 95.5676 49.0697V59.7337C95.5676 61.0312 95.0532 62.2754 94.1383 63.1929C93.2231 64.11 91.9821 64.6257 90.6878 64.6257H61.7468C60.4525 64.6257 59.2115 64.11 58.2963 63.1929C57.3814 62.2754 56.867 61.0312 56.867 59.7337V55.2117ZM70.9442 55.3063C70.9439 54.4492 70.6902 53.6114 70.215 52.8985C69.7398 52.1859 69.0642 51.6306 68.2744 51.3029C67.4841 50.9748 66.6151 50.8892 65.7764 51.0567C64.9377 51.2239 64.1674 51.6366 63.5628 52.2427C62.9582 52.8488 62.5463 53.6214 62.3795 54.4618C62.2127 55.3026 62.2981 56.1741 62.625 56.966C62.9523 57.7582 63.5063 58.4351 64.217 58.9115C64.9277 59.3879 65.7635 59.6425 66.6188 59.6429C67.1868 59.6429 67.7496 59.531 68.2747 59.3133C68.7998 59.0954 69.2769 58.7762 69.6788 58.3732C70.0808 57.9706 70.3995 57.4924 70.6173 56.9663C70.8348 56.4399 70.9468 55.8761 70.9468 55.3063H70.9442Z" fill="#CCEFF6"/>
<path d="M95.5702 23.9011V29.3329C95.5702 29.9753 95.4437 30.6115 95.1985 31.2046C94.9533 31.7981 94.5939 32.3375 94.1409 32.7916C93.6875 33.2461 93.1499 33.6065 92.5578 33.8523C91.9658 34.0981 91.3312 34.2245 90.6904 34.2245H61.7468C61.1059 34.2245 60.4714 34.0981 59.8793 33.8523C59.2873 33.6065 58.7496 33.2461 58.2963 32.7916C57.8433 32.3375 57.4838 31.7981 57.2387 31.2046C56.9935 30.6115 56.867 29.9753 56.867 29.3329V18.6688C56.867 17.3713 57.3814 16.1272 58.2963 15.2097C59.2115 14.2922 60.4525 13.7769 61.7468 13.7769H90.6878C91.9821 13.7769 93.2231 14.2922 94.1383 15.2097C95.0532 16.1272 95.5676 17.3713 95.5676 18.6688L95.5702 23.9011ZM88.8004 23.9957C88.8004 23.1378 88.5467 22.2996 88.0711 21.5864C87.596 20.8731 86.9204 20.3174 86.1297 19.9893C85.3395 19.6609 84.4697 19.5752 83.6307 19.7424C82.7916 19.9096 82.0206 20.3226 81.4156 20.9291C80.8107 21.5356 80.3987 22.3085 80.2319 23.1497C80.0652 23.9908 80.1506 24.8628 80.4782 25.655C80.8055 26.4476 81.3598 27.1249 82.0713 27.6012C82.7828 28.0776 83.6189 28.3319 84.4746 28.3319C85.6213 28.3312 86.721 27.8741 87.5316 27.0607C88.3426 26.2478 88.7982 25.1452 88.7985 23.9957H88.8004Z" fill="#CCEFF6"/>
<path d="M60.0875 1.85205H89.7186C89.7167 3.60739 89.0204 5.29044 87.782 6.53123C86.5435 7.77239 84.8643 8.46971 83.1134 8.47082H66.6898C64.9388 8.47082 63.2596 7.77351 62.0212 6.53235C60.7831 5.29082 60.0875 3.60739 60.0875 1.85205Z" fill="#006B99"/>
<path d="M88.7985 85.162C88.7974 85.922 88.5988 86.6686 88.2216 87.3281L87.9595 87.2421C87.9506 87.2407 87.9421 87.2381 87.9339 87.2347C87.749 87.1695 87.5642 87.1142 87.3781 87.0672C87.2875 87.0416 87.1969 87.0167 87.106 86.9941C86.9828 86.9615 86.863 86.9359 86.7432 86.9085C86.5942 86.8799 86.4485 86.851 86.3039 86.8225C86.0421 86.7754 85.7903 86.7428 85.5336 86.7172C84.6683 86.6327 83.7974 86.6219 82.9303 86.6846C82.8866 86.6846 82.8445 86.6912 82.799 86.6912C82.7228 86.699 82.6503 86.7024 82.5775 86.7057C82.3493 86.7202 82.1386 86.7346 81.9455 86.7498C81.6608 86.7717 81.3746 86.7717 81.0895 86.7498C81.0895 86.7498 80.8328 86.6879 80.392 86.5934C80.2271 86.1318 80.1424 85.6455 80.1421 85.155C80.1339 84.5804 80.2397 84.0102 80.4534 83.4768C80.6672 82.9437 80.9844 82.4584 81.3871 82.0495C81.7895 81.6402 82.2691 81.3151 82.7979 81.0934C83.3267 80.8717 83.894 80.7576 84.4671 80.7576C85.0403 80.7576 85.6079 80.8717 86.1367 81.0934C86.6655 81.3151 87.1448 81.6402 87.5475 82.0495C87.9498 82.4584 88.2671 82.9437 88.4809 83.4768C88.6946 84.0102 88.8007 84.5804 88.7926 85.155L88.7985 85.162Z" fill="white"/>
<path d="M84.4745 28.3322C86.8634 28.3322 88.8004 26.3904 88.8004 23.9956C88.8004 21.6007 86.8634 19.6589 84.4745 19.6589C82.0857 19.6589 80.1487 21.6007 80.1487 23.9956C80.1487 26.3904 82.0857 28.3322 84.4745 28.3322Z" fill="white"/>
<path d="M62.2919 104.444H76.0525C75.5984 105.313 75.263 106.238 75.0541 107.196L74.7975 107.182C72.8165 106.741 62.2919 104.444 62.2919 104.444Z" fill="#006B99"/>
<path d="M66.621 50.9707C67.4771 50.97 68.3136 51.2239 69.0254 51.6999C69.7373 52.1759 70.2923 52.8532 70.6203 53.6454C70.948 54.438 71.0341 55.3099 70.8677 56.1515C70.7009 56.993 70.2894 57.7659 69.6844 58.3728C69.0794 58.9793 68.3084 59.3926 67.4693 59.5602C66.6299 59.7278 65.7601 59.6421 64.9695 59.3137C64.1789 58.9856 63.5029 58.4295 63.0278 57.7163C62.5522 57.003 62.2989 56.1641 62.2989 55.3062C62.2993 54.157 62.7549 53.0549 63.5651 52.2419C64.3757 51.4289 65.4747 50.9718 66.621 50.9707Z" fill="white"/>
<path d="M56.4958 1.85205H59.0381C56.7143 1.85279 54.4856 2.77847 52.8422 4.42593C51.1989 6.0734 50.2759 8.30771 50.2755 10.6377V55.2122H47.7328V10.6377C47.7332 8.30771 48.6565 6.0734 50.2995 4.42593C51.9429 2.77847 54.1716 1.85279 56.4958 1.85205Z" fill="#006B99"/>
<path d="M59.0381 104.444H56.4957C54.1705 104.444 51.9406 103.518 50.2965 101.869C48.6525 100.221 47.7287 97.9862 47.7287 95.6551V55.2122H50.2755V95.6551C50.2758 97.9854 51.1988 100.22 52.8418 101.868C54.4852 103.516 56.7139 104.443 59.0381 104.444Z" fill="#006B99"/>
<path d="M45.0629 79.9887V91.111C45.0629 91.111 41.1002 90.4303 35.7112 89.531C30.3223 88.6316 30.3178 82.1504 33.1978 79.9887C36.0777 77.8267 44.692 79.9887 44.692 79.9887H45.0629Z" fill="#FFCEB6"/>
<path d="M28.1604 51.5602V57.4075H26.3988C25.749 57.4075 25.4221 58.3977 25.8851 58.9805L27.1309 60.5501L23.8476 64.6858L22.6006 63.1162C22.1391 62.5342 21.3548 62.9446 21.3548 63.765V65.9852H16.7099V63.765C16.7099 62.9453 15.9248 62.5342 15.4633 63.1162L14.2178 64.6858L10.9348 60.5501L12.1803 58.9805C12.6418 58.3977 12.3149 57.4075 11.6666 57.4075H9.90309V51.5602H11.6666C12.3164 51.5602 12.6436 50.5667 12.1803 49.9873L10.9348 48.4151L14.2178 44.2793L15.4633 45.8482C15.9248 46.4273 16.7099 46.0199 16.7099 45.1969V42.9792H21.3548V45.2002C21.3548 46.0225 22.1391 46.431 22.6006 45.8516L23.8461 44.2827L27.1291 48.4151L25.8836 49.9839C25.4221 50.563 25.749 51.5569 26.3973 51.5569L28.1604 51.5602ZM21.7864 54.4844C21.7864 52.5652 20.552 51.0105 19.034 51.0105C17.5164 51.0105 16.2776 52.5652 16.2776 54.4844C16.2776 56.4033 17.5119 57.954 19.034 57.954C20.556 57.954 21.7864 56.3962 21.7864 54.4844Z" fill="#CCEFF6"/>
<path d="M4.83031 37.8894H1.85201V72.5358H4.83031V37.8894Z" fill="#FFCEB6"/>
<path d="M4.83031 37.8894L33.9821 40.4381V69.9872L4.83031 72.5358" stroke="#006B99" stroke-width="3.704" stroke-linecap="round" stroke-linejoin="round"/>
<path d="M4.83031 37.8894H1.85201V72.5358H4.83031V37.8894Z" stroke="#006B99" stroke-width="3.704" stroke-linecap="round" stroke-linejoin="round"/>
<path d="M140.357 3.92383L114.757 9.43934V37.2119L140.357 34.35" stroke="#006B99" stroke-width="3.704" stroke-linecap="round" stroke-linejoin="round"/>
<path d="M142.972 3.92383H140.357V34.3508H142.972V3.92383Z" stroke="#006B99" stroke-width="3.704" stroke-linecap="round" stroke-linejoin="round"/>
<path d="M159.064 69.0945L132.225 71.44V98.6398L159.064 100.989" stroke="#006B99" stroke-width="3.704" stroke-linecap="round" stroke-linejoin="round"/>
<path d="M161.806 69.0945H159.064V100.988H161.806V69.0945Z" stroke="#006B99" stroke-width="3.704" stroke-linecap="round" stroke-linejoin="round"/>
<path d="M89.7189 1.85205H92.5523C93.7034 1.85168 94.8435 2.07893 95.907 2.52008C96.9706 2.96161 97.9368 3.6085 98.7511 4.42445C99.5654 5.2404 100.211 6.20871 100.652 7.27489C101.092 8.34107 101.319 9.48362 101.319 10.6377V95.6552" stroke="#006B99" stroke-width="3.704" stroke-linecap="round" stroke-linejoin="round"/>
<path d="M59.6227 1.85205H60.0875" stroke="#006B99" stroke-width="3.704" stroke-linecap="round" stroke-linejoin="round"/>
<path d="M56.4957 104.444C54.1705 104.444 51.9406 103.518 50.2965 101.87C48.6525 100.222 47.7287 97.9863 47.7287 95.6552V10.6377C47.7287 9.48362 47.9558 8.34107 48.3962 7.27489C48.837 6.20871 49.4826 5.2404 50.2969 4.42445C51.1108 3.6085 52.0775 2.96161 53.141 2.52008C54.2045 2.07893 55.3446 1.85168 56.4957 1.85205" stroke="#006B99" stroke-width="3.704" stroke-linecap="round" stroke-linejoin="round"/>
<path d="M84.9505 104.444H76.0525H62.2922H59.6227" stroke="#006B99" stroke-width="3.704" stroke-linecap="round" stroke-linejoin="round"/>
<path d="M59.0381 104.444C56.7139 104.443 54.4852 103.516 52.8418 101.868C51.1988 100.22 50.2758 97.9855 50.2755 95.6552V10.6377C50.2758 8.30771 51.1988 6.0734 52.8422 4.42593C54.4855 2.77847 56.7143 1.85279 59.0381 1.85205" stroke="#006B99" stroke-width="3.704" stroke-linecap="round" stroke-linejoin="round"/>
<path d="M48.4912 102.911C47.4296 102.15 46.5642 101.145 45.9681 99.9807C45.3717 98.8167 45.0614 97.5262 45.0629 96.2176V10.0764C45.0625 8.99576 45.2748 7.92587 45.6875 6.92753C46.0998 5.92956 46.7044 5.02242 47.4669 4.25875C48.2294 3.4947 49.1343 2.88931 50.1305 2.47634C51.1264 2.06336 52.1939 1.85131 53.2715 1.85205H59.6271" stroke="#006B99" stroke-width="3.704" stroke-linecap="round" stroke-linejoin="round"/>
<path d="M59.6231 104.444H53.2719C51.5594 104.447 49.8894 103.91 48.499 102.908" stroke="#006B99" stroke-width="3.704" stroke-linecap="round" stroke-linejoin="round"/>
<path d="M89.7186 1.85205C89.7167 3.60739 89.0204 5.29044 87.782 6.53123C86.5435 7.77239 84.8643 8.46971 83.1134 8.47082H66.6898C64.9388 8.47082 63.2596 7.77351 62.0212 6.53235C60.7831 5.29082 60.0875 3.60739 60.0875 1.85205H89.7186Z" stroke="#006B99" stroke-width="3.704" stroke-linecap="round" stroke-linejoin="round"/>
<path d="M90.6885 34.223H61.7468C60.4525 34.223 59.2115 33.7073 58.2963 32.7902C57.3814 31.8726 56.867 30.6285 56.867 29.331V18.6688C56.867 17.3713 57.3814 16.1272 58.2963 15.2097C59.2115 14.2922 60.4525 13.7769 61.7468 13.7769H90.6878C91.9821 13.7769 93.2231 14.2922 94.1383 15.2097C95.0532 16.1272 95.5676 17.3713 95.5676 18.6688V29.3329C95.5668 30.6296 95.0528 31.8734 94.138 32.7905C93.2231 33.7073 91.9824 34.2226 90.6885 34.223Z" stroke="#006B99" stroke-width="3.704" stroke-linecap="round" stroke-linejoin="round"/>
<path d="M90.6885 64.6239H61.7468C60.4525 64.6239 59.2115 64.1086 58.2963 63.191C57.3814 62.2735 56.867 61.0294 56.867 59.7323V49.0697C56.867 47.7722 57.3814 46.5281 58.2963 45.6105C59.2115 44.6934 60.4525 44.1777 61.7468 44.1777H90.6878C91.9821 44.1777 93.2231 44.6934 94.1383 45.6105C95.0532 46.5281 95.5676 47.7722 95.5676 49.0697V59.7337C95.5668 61.0309 95.0528 62.2743 94.138 63.1914C93.2231 64.1086 91.9824 64.6235 90.6885 64.6239Z" stroke="#006B99" stroke-width="3.704" stroke-linecap="round" stroke-linejoin="round"/>
<path d="M68.3498 95.0252H61.7468C60.4525 95.0252 59.2115 94.5099 58.2963 93.5924C57.3814 92.6749 56.867 91.4308 56.867 90.1333V79.4711C56.867 78.1736 57.3814 76.9294 58.2963 76.0119C59.2115 75.0948 60.4525 74.5791 61.7468 74.5791H90.6878C91.9821 74.5791 93.2231 75.0948 94.1383 76.0119C95.0532 76.9294 95.5676 78.1736 95.5676 79.4711V90.1351C95.5679 90.7883 95.437 91.4348 95.1822 92.0361" stroke="#006B99" stroke-width="3.704" stroke-linecap="round" stroke-linejoin="round"/>
<path d="M36.568 55.2122H45.0629H47.7287H50.271H56.8696H60.0879" stroke="#006B99" stroke-width="3.704" stroke-linecap="round" stroke-linejoin="round"/>
<path d="M80.3995 86.6003C78.8057 86.2611 74.8507 85.5367 72.5521 86.0939C70.7253 86.5417 66.8462 89.2795 67.5622 93.0411C67.703 93.744 67.9686 94.4161 68.3461 95.0252C68.5499 95.3592 68.7754 95.6791 69.0217 95.9831C73.2311 101.197 79.881 102.955 84.2597 103.301L85.1346 104.196C87.2628 106.384 92.6558 111.92 94.0906 113.465C94.0906 113.465 98.2745 129.906 102.901 134.545C109.163 140.825 112.746 142.616 116.77 143.217" stroke="#006B99" stroke-width="3.704" stroke-linecap="round" stroke-linejoin="round"/>
<path d="M82.5827 86.709C82.3542 86.7234 82.1438 86.7379 81.9507 86.7531" stroke="#006B99" stroke-width="3.704" stroke-linecap="round" stroke-linejoin="round"/>
<path d="M86.3058 86.8257C86.0436 86.7786 85.7921 86.746 85.5351 86.72C84.6698 86.6359 83.7989 86.6248 82.9318 86.6874" stroke="#006B99" stroke-width="3.704" stroke-linecap="round" stroke-linejoin="round"/>
<path d="M87.1078 86.9932C86.9843 86.9606 86.8645 86.9347 86.7447 86.9072" stroke="#006B99" stroke-width="3.704" stroke-linecap="round" stroke-linejoin="round"/>
<path d="M87.9355 87.2335C87.7506 87.1682 87.5657 87.1134 87.38 87.0659" stroke="#006B99" stroke-width="3.704" stroke-linecap="round" stroke-linejoin="round"/>
<path d="M107.079 99.6158C104.545 98.504 102.131 97.1339 99.8767 95.5272C98.294 94.4569 96.6744 93.2814 95.1342 92.1014C93.983 91.2165 92.8751 90.3282 91.8693 89.476C90.7895 88.5514 89.5551 87.8248 88.2231 87.3306L87.9613 87.2446" stroke="#006B99" stroke-width="3.704" stroke-linecap="round" stroke-linejoin="round"/>
<path d="M99.8767 95.5305C99.8767 95.5305 100.451 95.6406 101.308 95.7496C103.08 95.9787 106.073 96.2189 107.736 95.5305" stroke="#006B99" stroke-width="3.704" stroke-linecap="round" stroke-linejoin="round"/>
<path d="M82.806 86.6912C81.8686 87.721 77.3435 91.1694 77.9263 95.5239" stroke="#006B99" stroke-width="3.704" stroke-linecap="round" stroke-linejoin="round"/>
<path d="M67.5621 93.0421C69.2691 94.3233 73.4629 95.1018 75.1048 94.1776C75.1048 94.1776 76.0714 89.2444 78.2425 87.6025" stroke="#006B99" stroke-width="3.704" stroke-linecap="round" stroke-linejoin="round"/>
<path d="M157.223 164.912C157.223 164.912 157.223 160.641 154.154 152.983C151.576 146.539 138.865 127.256 134.91 116.218C131.107 105.601 125.74 92.3599 122.318 85.0701C122.183 84.7751 122.049 84.4952 121.919 84.2216C118.53 77.1439 112.317 60.7237 108.361 53.9266C104.406 47.1295 101.319 46.1838 101.319 46.1838" stroke="#006B99" stroke-width="3.704" stroke-linecap="round" stroke-linejoin="round"/>
<path d="M109.926 152.536L109.883 152.522V152.528C109.926 152.7 110.885 156.457 111.524 159.905C111.897 161.547 112.075 163.228 112.054 164.911" stroke="#006B99" stroke-width="3.704" stroke-linecap="round" stroke-linejoin="round"/>
<path d="M73.8626 117.23C73.7462 117.819 73.6973 118.419 73.7173 119.018C73.7173 119.205 73.7284 119.39 73.7428 119.575C73.8641 120.919 74.3585 122.202 75.1699 123.278C76.7966 125.437 79.5471 128.874 81.1154 129.609C81.1154 129.609 96.6452 149.091 103.807 150.963C108.503 152.191 109.654 152.478 109.885 152.529C109.898 152.532 109.912 152.535 109.925 152.536C109.93 152.538 109.935 152.538 109.94 152.536" stroke="#006B99" stroke-width="3.704" stroke-linecap="round" stroke-linejoin="round"/>
<path d="M73.7173 119.575C73.7173 119.575 65.5571 118.631 61.1732 117.231C61.1732 117.231 54.1893 115.396 52.2428 114.555C52.2428 114.555 40.0404 110.015 36.9567 108.227C33.8734 106.439 35.3303 98.9464 41.5033 100.737C45.1391 101.79 48.3426 102.856 48.4916 102.908" stroke="#006B99" stroke-width="3.704" stroke-linecap="round" stroke-linejoin="round"/>
<path d="M51.2839 106.818C51.2839 106.818 50.856 108.747 50.7507 109.713" stroke="#006B99" stroke-width="3.704" stroke-linecap="round" stroke-linejoin="round"/>
<path d="M62.543 108.638C62.543 108.638 62.1148 111.66 62.0086 112.625" stroke="#006B99" stroke-width="3.704" stroke-linecap="round" stroke-linejoin="round"/>
<path d="M109.883 152.522C109.883 152.522 111.895 152.554 113.173 152.522L111.528 159.902" stroke="#006B99" stroke-width="3.704" stroke-linecap="round" stroke-linejoin="round"/>
<path d="M44.692 79.9886C44.692 79.9886 36.0707 77.8258 33.1978 79.9886C30.3248 82.151 30.3215 88.6315 35.7112 89.5308C41.1009 90.4302 45.0629 91.1108 45.0629 91.1108" stroke="#006B99" stroke-width="3.704" stroke-linecap="round" stroke-linejoin="round"/>
<path d="M76.0526 104.444C75.5988 105.313 75.2631 106.238 75.0541 107.196C74.9177 107.789 74.8319 108.391 74.7975 108.999" stroke="#006B99" stroke-width="3.704" stroke-linecap="round" stroke-linejoin="round"/>
<path d="M62.2919 104.444C62.2919 104.444 72.8165 106.741 74.7956 107.182" stroke="#006B99" stroke-width="3.704" stroke-linecap="round" stroke-linejoin="round"/>
<path d="M70.9468 55.3062C70.9468 56.1637 70.6932 57.0015 70.218 57.7144C69.7428 58.4269 69.0676 58.9823 68.2773 59.3103C67.4874 59.6384 66.6181 59.7241 65.7794 59.5569C64.9407 59.3897 64.1704 58.9771 63.5658 58.3709C62.9608 57.7648 62.5492 56.9926 62.3821 56.1518C62.2153 55.311 62.3007 54.4395 62.6276 53.6476C62.9545 52.8554 63.5085 52.1785 64.2196 51.7021C64.9303 51.2254 65.7661 50.9711 66.621 50.9707C67.1894 50.9707 67.7518 51.0827 68.2766 51.3006C68.8013 51.5182 69.2783 51.8378 69.6799 52.2404C70.0815 52.643 70.4003 53.1209 70.6177 53.6469C70.8352 54.1729 70.9468 54.7368 70.9468 55.3062Z" stroke="#006B99" stroke-width="3.704" stroke-linecap="round" stroke-linejoin="round"/>
<path d="M110.896 23.9011H101.319H95.5698H91.0121" stroke="#006B99" stroke-width="3.704" stroke-linecap="round" stroke-linejoin="round"/>
<path d="M84.4745 28.3322C86.8634 28.3322 88.8004 26.3904 88.8004 23.9956C88.8004 21.6007 86.8634 19.6589 84.4745 19.6589C82.0857 19.6589 80.1487 21.6007 80.1487 23.9956C80.1487 26.3904 82.0857 28.3322 84.4745 28.3322Z" stroke="#006B99" stroke-width="3.704" stroke-linecap="round" stroke-linejoin="round"/>
<path d="M129.055 85.0674H122.318H101.319H95.5698H91.0121" stroke="#006B99" stroke-width="3.704" stroke-linecap="round" stroke-linejoin="round"/>
<path d="M80.3995 86.6001C80.8362 86.6946 81.0973 86.7566 81.0973 86.7566C81.3824 86.7784 81.6686 86.7784 81.9533 86.7566C82.1489 86.7451 82.3597 86.7302 82.5853 86.7128C82.6578 86.7128 82.7306 86.7058 82.8068 86.698C82.8504 86.698 82.8926 86.698 82.9377 86.6913C83.8049 86.6301 84.6757 86.6413 85.541 86.7239C85.7884 86.7495 86.0462 86.7855 86.3117 86.8292C86.4563 86.8552 86.602 86.8845 86.7506 86.9152C86.8704 86.9408 86.9906 86.9701 87.1138 87.0009C87.2044 87.0235 87.2953 87.0483 87.3859 87.0739C87.5716 87.1247 87.7565 87.1795 87.9417 87.2415C87.9499 87.2448 87.9584 87.2474 87.9672 87.2489C88.0527 87.2774 88.1385 87.3067 88.2239 87.3401V87.3356C88.5552 86.7595 88.7497 86.1148 88.793 85.4513C88.8359 84.7877 88.7261 84.123 88.4716 83.5087C88.2176 82.8944 87.826 82.3469 87.3271 81.9087C86.8279 81.4705 86.2351 81.1532 85.5947 80.9812C84.9538 80.8095 84.2823 80.7877 83.6314 80.9174C82.981 81.0472 82.369 81.3252 81.8428 81.73C81.3165 82.1348 80.8902 82.6557 80.5966 83.2522C80.3033 83.8487 80.1506 84.5045 80.1506 85.1695C80.1517 85.6574 80.236 86.1412 80.3995 86.6001Z" stroke="#006B99" stroke-width="3.704" stroke-linecap="round" stroke-linejoin="round"/>
<path d="M28.1604 51.5602H26.3988C25.749 51.5602 25.4221 50.5667 25.8851 49.9873L27.1291 48.4151L23.8461 44.2793L22.6006 45.8482C22.1391 46.4273 21.3548 46.0199 21.3548 45.1969V42.9792H16.7099V45.2002C16.7099 46.0225 15.9248 46.431 15.4633 45.8516L14.2178 44.2827L10.9348 48.4151L12.1803 49.9873C12.6418 50.5667 12.3149 51.5602 11.6666 51.5602H9.90309V57.4075H11.6666C12.3164 57.4075 12.6436 58.3977 12.1803 58.9805L10.9348 60.5501L14.2178 64.6858L15.4633 63.1162C15.9248 62.5342 16.7099 62.9446 16.7099 63.765V65.9852H21.3548V63.765C21.3548 62.9453 22.1391 62.5342 22.6006 63.1162L23.8461 64.6858L27.1291 60.5501L25.8836 58.9805C25.4221 58.3977 25.749 57.4075 26.3973 57.4075H28.159V51.5602H28.1604Z" stroke="#006B99" stroke-width="3.704" stroke-linecap="round" stroke-linejoin="round"/>
<path d="M21.7864 54.4845C21.7864 56.3989 20.552 57.954 19.034 57.954C17.5164 57.954 16.2776 56.3989 16.2776 54.4845C16.2776 52.5697 17.5119 51.0105 19.034 51.0105C20.5561 51.0105 21.7864 52.5653 21.7864 54.4845Z" stroke="#006B99" stroke-width="3.704" stroke-linecap="round" stroke-linejoin="round"/>
<path d="M129.382 19.4993C128.682 19.182 127.915 19.0404 127.149 19.0874C125.471 19.1964 124.014 20.4024 123.016 22.1462C121.973 24.0454 121.495 26.2048 121.639 28.3683C121.646 28.4807 121.653 28.5974 121.665 28.7116" stroke="#006B99" stroke-width="3.704" stroke-linecap="round" stroke-linejoin="round"/>
<path d="M133.736 27.1922C133.736 27.0788 133.729 26.9665 133.722 26.8489C133.625 24.9816 133.005 23.1796 131.931 21.65C131.601 21.1914 131.218 20.7736 130.791 20.4048" stroke="#006B99" stroke-width="3.704" stroke-linecap="round" stroke-linejoin="round"/>
<path d="M133.736 27.1922L137.331 26.959C137.325 26.8463 137.325 26.7333 137.317 26.6158C137.161 23.6493 136.178 20.7859 134.481 18.351C132.531 15.657 129.781 14.0436 126.84 14.2368C124.01 14.4229 121.573 16.44 119.982 19.3671C118.494 22.205 117.825 25.4028 118.051 28.6006C118.058 28.7166 118.068 28.8297 118.076 28.9439L121.672 28.7114" stroke="#006B99" stroke-width="3.704" stroke-linecap="round" stroke-linejoin="round"/>
<path d="M130.791 20.4056L130.969 20.0779C131.085 19.8499 131.13 19.5919 131.098 19.3379C131.065 19.0836 130.957 18.8456 130.787 18.6539C130.716 18.5746 130.625 18.5146 130.524 18.4797C130.424 18.4449 130.315 18.4363 130.21 18.4549C130.105 18.4734 130.007 18.5186 129.924 18.5861C129.841 18.6536 129.777 18.7411 129.737 18.8404L129.382 19.4995L127.927 22.1858C127.739 22.1194 127.54 22.092 127.342 22.1057C126.27 22.1754 125.475 23.4062 125.569 24.8519C125.663 26.2981 126.612 27.4192 127.683 27.3495C128.754 27.2801 129.55 26.0501 129.456 24.6032C129.43 24.1932 129.33 23.791 129.161 23.4162L130.791 20.4056Z" stroke="#006B99" stroke-width="3.704" stroke-linecap="round" stroke-linejoin="round"/>
<path d="M126.836 14.2375L127.148 19.0876" stroke="#006B99" stroke-width="3.704" stroke-linecap="round" stroke-linejoin="round"/>
<path d="M120.005 19.3828L122.634 22.1206" stroke="#006B99" stroke-width="3.704" stroke-linecap="round" stroke-linejoin="round"/>
<path d="M134.347 18.4463L132.146 21.5014" stroke="#006B99" stroke-width="3.704" stroke-linecap="round" stroke-linejoin="round"/>
<path d="M148.21 85.5517L150.35 82.8284C150.971 83.0416 151.644 83.046 152.268 82.8418C152.891 82.6375 153.432 82.2353 153.808 81.6955C154.364 80.9678 154.707 80.0992 154.799 79.1872C154.773 79.2206 154.748 79.2566 154.722 79.2925C154.499 79.6162 154.201 79.8805 153.853 80.0629C153.506 80.2456 153.119 80.3409 152.727 80.3409C152.334 80.3409 151.948 80.2456 151.6 80.0629C151.252 79.8805 150.954 79.6162 150.731 79.2925C150.195 78.5567 149.906 77.6684 149.906 76.7572C149.906 75.8456 150.195 74.9577 150.731 74.2215C150.756 74.1874 150.785 74.1555 150.816 74.1262C150.025 74.286 149.322 74.7334 148.841 75.3826C148.382 76.0065 148.065 76.7227 147.912 77.4816C147.759 78.2408 147.772 79.0241 147.951 79.7774L145.811 82.5007" stroke="#006B99" stroke-width="3.704" stroke-linecap="round" stroke-linejoin="round"/>
<path d="M143.405 85.5513L140.364 89.4134L140.397 89.4538C140.084 89.4679 139.778 89.5524 139.502 89.7011C139.226 89.8494 138.987 90.0584 138.802 90.312C138.366 90.9133 138.131 91.6377 138.131 92.3813C138.131 93.125 138.366 93.8498 138.802 94.4511C138.985 94.7146 139.228 94.9304 139.512 95.0791C139.796 95.2281 140.111 95.3059 140.431 95.3059C140.752 95.3059 141.067 95.2281 141.351 95.0791C141.634 94.9304 141.878 94.7146 142.06 94.4511C142.498 93.8679 142.734 93.1573 142.733 92.4273L142.765 92.467L144.712 89.9954L145.805 88.6041" stroke="#006B99" stroke-width="3.704" stroke-linecap="round" stroke-linejoin="round"/>
<path d="M145.805 82.5007L143.665 79.7774C143.843 79.0238 143.856 78.2404 143.702 77.4812C143.548 76.722 143.23 76.0061 142.771 75.3826C142.292 74.7342 141.591 74.2864 140.802 74.1262C140.83 74.1566 140.857 74.1885 140.882 74.2215C141.419 74.957 141.709 75.8452 141.709 76.7572C141.709 77.6688 141.419 78.557 140.882 79.2925C140.659 79.6162 140.361 79.8805 140.014 80.0629C139.666 80.2456 139.28 80.3409 138.888 80.3409C138.496 80.3409 138.109 80.2456 137.762 80.0629C137.415 79.8805 137.117 79.6162 136.894 79.2925C136.865 79.2566 136.843 79.2206 136.818 79.1872C136.91 80.0988 137.252 80.9671 137.806 81.6955C138.182 82.2356 138.723 82.6382 139.347 82.8425C139.972 83.0468 140.646 83.042 141.267 82.8284L143.407 85.5517L145.804 88.6027L148.844 92.4644L148.873 92.4252C148.872 93.1547 149.108 93.8647 149.544 94.4485C149.727 94.7125 149.97 94.9279 150.254 95.0769C150.538 95.2255 150.853 95.3034 151.173 95.3034C151.493 95.3034 151.809 95.2255 152.093 95.0769C152.376 94.9279 152.62 94.7125 152.802 94.4485C153.241 93.8483 153.478 93.1232 153.478 92.3792C153.478 91.6348 153.241 90.91 152.802 90.3095C152.619 90.0559 152.38 89.8468 152.105 89.6982C151.83 89.5495 151.524 89.4654 151.212 89.4513L151.241 89.4109L148.204 85.5491L145.805 82.5007Z" stroke="#006B99" stroke-width="3.704" stroke-linecap="round" stroke-linejoin="round"/>
<path d="M143.405 85.5513L144.712 89.9936" stroke="#006B99" stroke-width="3.704" stroke-linecap="round" stroke-linejoin="round"/>
</svg>
