<svg width="173" height="139" viewBox="0 0 173 139" fill="none" xmlns="http://www.w3.org/2000/svg">
<path d="M170.909 33.3477V38.1273H104.23V33.3477H170.909ZM117.237 35.9356C117.236 35.7147 117.172 35.4989 117.05 35.3154C116.928 35.1319 116.756 34.9888 116.554 34.9043C116.352 34.8198 116.129 34.7979 115.915 34.8409C115.7 34.8839 115.503 34.9903 115.349 35.1467C115.194 35.3028 115.089 35.5019 115.046 35.7184C115.003 35.9349 115.025 36.1595 115.109 36.3634C115.193 36.5677 115.334 36.7419 115.516 36.865C115.698 36.9877 115.911 37.0533 116.13 37.0537C116.276 37.0544 116.421 37.0259 116.556 36.9699C116.691 36.9139 116.814 36.8313 116.917 36.7267C117.02 36.6226 117.102 36.4987 117.157 36.3623C117.213 36.2259 117.241 36.0795 117.24 35.9319L117.237 35.9356ZM112.884 35.9356C112.884 35.7147 112.819 35.4989 112.697 35.3154C112.576 35.1319 112.403 34.9888 112.201 34.9043C111.999 34.8198 111.777 34.7979 111.563 34.8409C111.348 34.8839 111.151 34.9903 110.996 35.1464C110.842 35.3024 110.736 35.5011 110.694 35.7176C110.651 35.9341 110.673 36.1588 110.756 36.3631C110.84 36.567 110.981 36.7416 111.162 36.8646C111.344 36.9874 111.558 37.0533 111.776 37.0537C111.922 37.0544 112.067 37.0259 112.202 36.9699C112.338 36.9139 112.46 36.8313 112.564 36.7271C112.667 36.6226 112.749 36.4987 112.804 36.3623C112.86 36.2259 112.888 36.0795 112.887 35.9319L112.884 35.9356ZM108.53 35.9356C108.53 35.7147 108.465 35.4989 108.343 35.3154C108.222 35.1319 108.049 34.9888 107.847 34.9043C107.645 34.8198 107.423 34.7979 107.209 34.8409C106.994 34.8839 106.797 34.9903 106.643 35.1467C106.488 35.3028 106.383 35.5019 106.34 35.7184C106.297 35.9349 106.319 36.1595 106.403 36.3634C106.486 36.5677 106.628 36.7419 106.81 36.865C106.992 36.9877 107.205 37.0533 107.424 37.0537C107.57 37.0548 107.715 37.0266 107.851 36.9707C107.986 36.9147 108.109 36.8324 108.213 36.7278C108.316 36.6237 108.398 36.4995 108.454 36.3627C108.51 36.2263 108.538 36.0798 108.537 35.9319L108.53 35.9356Z" fill="#006B99"/>
<path d="M157.613 133.225H84.8521L75.7012 126.679L48.3281 107.1L48.3692 106.914C48.7615 107.037 49.1705 107.1 49.5817 107.1H118.254C118.976 107.101 119.686 106.908 120.31 106.541L157.613 133.225ZM117.989 123.186H137.561L131.811 119.074L119.041 109.936H59.9658L65.0838 113.598L78.4857 123.186H117.989ZM102.026 130.713H130.425L123.344 125.649H94.8745L101.955 130.713H102.026Z" fill="#CCEFF6"/>
<path d="M137.561 123.186H117.99V123.07L112.654 119.253H131.687L131.811 119.074L137.561 123.186Z" fill="#CCEFF6"/>
<path d="M86.8449 113.598L81.727 109.936H119.04L131.811 119.074L131.687 119.253H112.654L117.989 123.07V123.186H78.481L65.079 113.598H86.8449Z" fill="#CCEFF6"/>
<path d="M130.425 130.712H102.026H101.954L94.8742 125.648H123.273H123.344L130.425 130.712Z" fill="#F7CEDC"/>
<path d="M122.34 78.2795V102.975C122.34 103.517 122.234 104.054 122.029 104.555C121.824 105.055 121.523 105.51 121.143 105.893C120.764 106.276 120.313 106.58 119.817 106.787C119.322 106.994 118.79 107.1 118.254 107.1H49.5814C49.0452 107.1 48.5142 106.994 48.0187 106.786C47.5231 106.579 47.0731 106.276 46.6937 105.893C46.3147 105.509 46.014 105.055 45.8088 104.554C45.6039 104.054 45.4985 103.517 45.4989 102.975V53.5864C45.4989 52.492 45.929 51.4429 46.6944 50.6692C47.4599 49.8956 48.4987 49.4607 49.5814 49.46H118.254C118.79 49.46 119.322 49.5664 119.818 49.774C120.314 49.9812 120.764 50.2852 121.144 50.6685C121.523 51.0518 121.824 51.5071 122.03 52.0079C122.235 52.5091 122.341 53.0459 122.34 53.5879V78.2795ZM119.231 100.72V55.8385C119.231 54.9788 118.893 54.1547 118.291 53.5471C117.689 52.9391 116.873 52.5981 116.023 52.5981H51.8135C50.9626 52.5981 50.1468 52.9391 49.5452 53.5471C48.9439 54.1547 48.6059 54.9788 48.6059 55.8385V100.72C48.6059 101.579 48.9439 102.403 49.5452 103.011C50.1468 103.619 50.9626 103.96 51.8135 103.96H116.022C116.873 103.96 117.689 103.619 118.29 103.011C118.892 102.403 119.229 101.579 119.229 100.72H119.231Z" fill="#CCEFF6"/>
<path d="M119.23 55.8384V69.7129H118.62V69.4797C118.62 65.5193 116.412 63.5838 113.714 63.5838H113.425C113.25 63.5842 113.083 63.5145 112.96 63.3903C112.836 63.2661 112.766 63.0974 112.765 62.9213V61.8756C113.188 61.665 113.544 61.3395 113.793 60.9354C114.042 60.5313 114.174 60.065 114.174 59.5893V58.1688C114.174 57.4922 113.908 56.8434 113.434 56.3649C112.961 55.8866 112.319 55.6179 111.649 55.6179C110.979 55.6179 110.337 55.8866 109.863 56.3649C109.39 56.8434 109.124 57.4922 109.124 58.1688V59.5893C109.124 60.065 109.256 60.5313 109.505 60.9354C109.754 61.3395 110.11 61.665 110.532 61.8756V62.925C110.532 63.1008 110.463 63.2687 110.34 63.3933C110.216 63.5186 110.049 63.5901 109.874 63.592C109.123 63.5664 108.375 63.6991 107.677 63.9816C106.98 64.2644 106.348 64.6908 105.823 65.2339C105.298 65.7766 104.891 66.4242 104.627 67.1353C104.364 67.8463 104.25 68.6048 104.292 69.3629H104.23V52.5999H116.022C116.872 52.5999 117.688 52.9409 118.29 53.5481C118.891 54.1554 119.229 54.9791 119.23 55.8384Z" fill="#F7CEDC"/>
<path d="M118.546 102.52L118.684 102.529C118.39 102.97 117.994 103.33 117.531 103.579C117.067 103.828 116.55 103.959 116.025 103.958H104.23V103.598H104.292C104.25 102.84 104.364 102.082 104.627 101.371C104.891 100.66 105.298 100.012 105.823 99.4692C106.348 98.9261 106.98 98.4998 107.677 98.2169C108.375 97.9345 109.123 97.8017 109.874 97.8273C109.96 97.8277 110.046 97.811 110.126 97.7776C110.206 97.7447 110.279 97.6957 110.34 97.6342C110.401 97.5726 110.449 97.4996 110.483 97.4192C110.516 97.3387 110.533 97.252 110.533 97.1648V96.1153C110.111 95.9052 109.755 95.5793 109.506 95.1752C109.257 94.7711 109.125 94.3048 109.124 93.8291V92.4097C109.124 91.7331 109.391 91.084 109.864 90.6058C110.338 90.1272 110.98 89.8584 111.65 89.8584C112.319 89.8584 112.962 90.1272 113.436 90.6058C113.909 91.084 114.175 91.7331 114.175 92.4097V93.8291C114.175 94.3048 114.043 94.7711 113.794 95.1752C113.545 95.5793 113.189 95.9052 112.766 96.1153V97.1667C112.767 97.3428 112.837 97.5115 112.96 97.6357C113.084 97.7599 113.251 97.8295 113.426 97.8292H113.714C116.125 97.8266 118.142 99.3721 118.546 102.52Z" fill="#006B99"/>
<path d="M118.621 86.4461V86.782H104.23V86.3201H104.292C104.25 85.5623 104.364 84.8038 104.627 84.0932C104.891 83.3821 105.299 82.7345 105.824 82.1918C106.349 81.649 106.98 81.2223 107.677 80.9398C108.375 80.6574 109.123 80.5246 109.874 80.5502C110.049 80.5502 110.217 80.4798 110.341 80.3552C110.464 80.231 110.533 80.0627 110.533 79.887V78.8383C110.111 78.6277 109.755 78.3022 109.506 77.8977C109.257 77.4937 109.125 77.0273 109.124 76.5509V75.1315C109.124 74.4549 109.391 73.8062 109.864 73.3279C110.338 72.8493 110.98 72.5806 111.65 72.5806C112.319 72.5806 112.962 72.8493 113.436 73.3279C113.909 73.8062 114.175 74.4549 114.175 75.1315V76.5539C114.175 77.0299 114.043 77.4963 113.794 77.9007C113.545 78.3048 113.189 78.6307 112.766 78.8412V79.8844C112.767 80.0605 112.837 80.2292 112.96 80.3534C113.084 80.4779 113.251 80.5476 113.426 80.5476H113.714C116.413 80.5502 118.621 82.4883 118.621 86.4461Z" fill="#006B99"/>
<path d="M118.621 69.4832V69.7164H104.23V69.3564H104.292C104.251 68.5991 104.365 67.8409 104.629 67.131C104.893 66.4207 105.3 65.7738 105.826 65.2315C106.351 64.6891 106.982 64.2635 107.679 63.981C108.376 63.6989 109.123 63.5662 109.874 63.5918C110.049 63.5914 110.216 63.5217 110.341 63.3975C110.463 63.2734 110.533 63.105 110.533 62.9293V61.8754C110.111 61.6652 109.755 61.3393 109.506 60.9352C109.257 60.5312 109.125 60.0652 109.124 59.5892V58.1686C109.124 57.492 109.391 56.8433 109.864 56.365C110.338 55.8865 110.98 55.6177 111.65 55.6177C112.319 55.6177 112.962 55.8865 113.436 56.365C113.909 56.8433 114.175 57.492 114.175 58.1686V59.5892C114.175 60.0652 114.043 60.5312 113.793 60.9352C113.545 61.3393 113.189 61.6652 112.766 61.8754V62.9249C112.767 63.101 112.837 63.2696 112.96 63.3938C113.084 63.518 113.251 63.5877 113.426 63.5873H113.714C116.413 63.5918 118.621 65.5254 118.621 69.4832Z" fill="#006B99"/>
<path d="M111.78 34.8167C111.999 34.8163 112.213 34.8812 112.395 35.0039C112.577 35.1262 112.719 35.3008 112.804 35.5047C112.888 35.709 112.91 35.934 112.867 36.1509C112.825 36.3677 112.719 36.5668 112.565 36.7232C112.41 36.8797 112.213 36.9865 111.998 37.0295C111.783 37.0725 111.561 37.0502 111.359 36.9657C111.156 36.8808 110.984 36.7373 110.862 36.5535C110.741 36.3692 110.676 36.1531 110.677 35.9321C110.677 35.6363 110.793 35.3531 111 35.144C111.207 34.9349 111.487 34.8174 111.78 34.8167Z" fill="#FFCEB6"/>
<path d="M107.427 34.8167C107.646 34.8163 107.86 34.8815 108.042 35.0042C108.224 35.1269 108.366 35.3012 108.45 35.5054C108.534 35.7097 108.556 35.9344 108.514 36.1512C108.471 36.3681 108.366 36.5672 108.211 36.7236C108.056 36.8801 107.859 36.9865 107.644 37.0295C107.43 37.0725 107.207 37.0502 107.005 36.9653C106.803 36.8808 106.63 36.7373 106.509 36.5535C106.388 36.3692 106.323 36.1531 106.323 35.9321C106.323 35.6363 106.44 35.3527 106.647 35.1436C106.854 34.9345 107.135 34.817 107.427 34.8167Z" fill="#CCEFF6"/>
<path d="M93.1761 1.61719V6.40128H1.61383V1.61719H93.1761ZM14.6275 4.2059C14.6272 3.98495 14.5625 3.7692 14.4408 3.58569C14.3191 3.40219 14.1464 3.25909 13.9445 3.17457C13.7423 3.09042 13.52 3.06817 13.3059 3.11117C13.0914 3.15455 12.8943 3.26094 12.7397 3.41701C12.5852 3.57309 12.4798 3.77216 12.4373 3.98866C12.3944 4.20553 12.4162 4.42981 12.4998 4.63408C12.5837 4.83797 12.725 5.01258 12.9069 5.13529C13.0885 5.258 13.3022 5.32361 13.5207 5.32398C13.6661 5.32436 13.8103 5.29544 13.9445 5.23946C14.0791 5.18311 14.2012 5.10081 14.304 4.99701C14.4068 4.89321 14.4881 4.76976 14.5436 4.63408C14.5991 4.4984 14.6275 4.35271 14.6275 4.2059ZM10.2747 4.2059C10.2747 3.98533 10.2096 3.7692 10.088 3.58569C9.96668 3.40219 9.79399 3.25909 9.59208 3.17494C9.39018 3.09041 9.16794 3.06817 8.95346 3.11117C8.73898 3.15418 8.54225 3.26058 8.3873 3.41665C8.23273 3.57272 8.12734 3.77179 8.08482 3.98829C8.04192 4.20479 8.06374 4.42907 8.14694 4.63334C8.23052 4.8376 8.37178 5.01184 8.55334 5.13492C8.73491 5.25762 8.94865 5.32361 9.1672 5.32398C9.3129 5.32436 9.45675 5.29581 9.59135 5.23946C9.72596 5.18348 9.84798 5.10118 9.95078 4.99738C10.0536 4.89358 10.1353 4.77013 10.1908 4.63445C10.2466 4.4984 10.2751 4.35308 10.2747 4.2059ZM5.92116 4.2059C5.92116 3.98495 5.85608 3.7692 5.73442 3.58569C5.61275 3.40219 5.44007 3.25909 5.23816 3.17457C5.03626 3.09042 4.814 3.06817 4.59952 3.11117C4.38505 3.15455 4.18832 3.26094 4.03374 3.41701C3.8788 3.57309 3.77378 3.77216 3.73088 3.98866C3.68836 4.20553 3.71018 4.42981 3.79375 4.63408C3.87733 4.83797 4.01896 5.01258 4.20053 5.13529C4.38246 5.258 4.59583 5.32361 4.81474 5.32398C4.96007 5.32436 5.10393 5.29544 5.23853 5.23946C5.37277 5.18311 5.49479 5.10081 5.59759 4.99701C5.7004 4.89321 5.78176 4.76976 5.8376 4.63408C5.89306 4.4984 5.92153 4.35271 5.92116 4.2059Z" fill="#006B99"/>
<path d="M90.0199 70.6238V72.8192L87.8681 71.7393C88.0892 71.3701 88.4076 71.0702 88.7874 70.8733C89.1676 70.6765 89.5943 70.5901 90.0199 70.6238Z" fill="#FFCEB6"/>
<path d="M81.7274 109.936L86.8453 113.598H65.0793L59.9611 109.936H81.7274Z" fill="#CCEFF6"/>
<path d="M72.0259 25.9373C72.105 25.9951 72.1708 26.0693 72.2196 26.1549C72.2681 26.2405 72.2984 26.3354 72.308 26.4337C72.3176 26.5319 72.3065 26.6313 72.2758 26.7247C72.2448 26.8181 72.1945 26.9041 72.1283 26.9768L70.168 29.0687L68.1412 31.2289L64.3294 35.3001L64.1046 35.3316C64.0173 35.2349 63.9171 35.1514 63.8061 35.0832C63.5624 34.9279 63.2832 34.8393 62.9952 34.826V34.8197L68.1741 29.2163L71.1143 26.0281C71.179 25.9577 71.2574 25.9013 71.3447 25.8628C71.432 25.8246 71.5263 25.8046 71.6213 25.8049C71.7666 25.8053 71.9079 25.8516 72.0259 25.9373Z" fill="#006B99"/>
<path d="M67.6161 61.5425L69.9561 62.7206C69.4991 64.1564 67.6146 63.6848 67.6146 63.6848L67.6161 61.5425Z" fill="#FFCEB6"/>
<path d="M66.5811 18.3691V20.5656L64.4318 19.4854C64.6526 19.1165 64.9702 18.817 65.35 18.6201C65.7294 18.4229 66.1554 18.3362 66.5811 18.3691Z" fill="#FFCEB6"/>
<path d="M65.076 38.6144C65.4118 39.5542 64.3764 40.5047 64.3764 40.5047C63.5835 39.9549 61.9513 40.7056 61.4816 41.6039C60.0557 41.4092 60.0916 40.6585 60.5904 39.9519C60.9314 39.4923 61.357 39.103 61.8433 38.8053C62.9589 38.1277 64.7399 37.6757 65.076 38.6144Z" fill="#FFCEB6"/>
<path d="M63.9563 36.9339C65.2254 37.6605 65.0756 38.6144 65.0756 38.6144C64.7395 37.6757 62.9586 38.1276 61.8422 38.8034C61.3555 39.1011 60.9303 39.4904 60.5893 39.9504L60.427 39.8396C60.2968 39.8325 60.1677 39.8125 60.0413 39.7803C58.9907 39.5163 59.6153 38.555 59.6589 38.4857C60.2184 38.2711 60.7479 37.9849 61.2353 37.6342C61.3758 37.5248 61.4949 37.3895 61.5863 37.2357L61.6887 37.2509C61.6887 37.2509 63.1072 36.4471 63.9563 36.9339Z" fill="#FFCEB6"/>
<path d="M61.4813 41.6018C61.9509 40.7017 63.5832 39.9529 64.376 40.5026C65.1692 41.0528 64.721 42.5505 62.8436 44.6991C62.3932 45.2964 61.8163 45.7842 61.1551 46.1268C60.4936 46.4697 59.7647 46.6584 59.0218 46.6795L57.6854 49.4221V49.4599H50.8065V49.4239L53.6768 43.2823L56.3408 38.1515C56.5128 37.8698 56.7598 37.6422 57.0538 37.4954C58.2271 36.8574 59.4974 36.4222 60.8131 36.2075C60.9555 36.1982 61.0986 36.2131 61.2361 36.2516C61.3319 36.2809 61.4195 36.3328 61.492 36.4025C61.5645 36.4722 61.62 36.5578 61.654 36.6531C61.6884 36.748 61.6998 36.85 61.6884 36.9504C61.6765 37.0509 61.6422 37.1469 61.5871 37.2318C61.4961 37.3856 61.377 37.521 61.2361 37.6303C60.7487 37.981 60.2192 38.2672 59.6601 38.4819C59.4889 38.5512 59.3276 38.6172 59.1841 38.6709L59.2089 38.7395L54.7692 43.4832C54.703 43.5555 54.6527 43.6411 54.6217 43.7345C54.591 43.828 54.5799 43.9269 54.5895 44.0248C54.5995 44.1227 54.6294 44.2176 54.6779 44.3028C54.7267 44.3885 54.7925 44.4622 54.8716 44.5201C54.9903 44.6057 55.1327 44.6517 55.2788 44.6513C55.3738 44.6513 55.4681 44.6317 55.5554 44.5931C55.6427 44.5549 55.721 44.4986 55.7858 44.4281L59.9308 39.9996L60.0421 39.7764C60.1685 39.809 60.2976 39.8287 60.4281 39.8357L60.5894 39.9466C60.0913 40.6568 60.0572 41.4075 61.4813 41.6018Z" fill="#FFCEB6"/>
<path d="M64.1057 35.3348C64.6874 36.0136 63.9571 36.9337 63.9571 36.9337C63.1076 36.4466 61.6928 37.2477 61.6928 37.2477L61.5904 37.2325C61.6451 37.148 61.6799 37.0516 61.6913 36.9512C61.7032 36.8507 61.6913 36.7488 61.6573 36.6539C61.6233 36.5586 61.5678 36.4729 61.495 36.4033C61.4225 36.3336 61.3349 36.2817 61.2391 36.2524C61.1015 36.2138 60.9584 36.199 60.816 36.2083C61.0364 35.8127 61.3515 35.4794 61.7324 35.2388C62.1133 34.9986 62.5478 34.8585 62.9963 34.8318C63.284 34.8451 63.5636 34.9337 63.8073 35.0891C63.9179 35.1565 64.0184 35.2392 64.1057 35.3348Z" fill="#FFCEB6"/>
<path d="M63.8076 103.597V103.957H51.8134C51.2928 103.958 50.7799 103.831 50.3191 103.585C49.8587 103.34 49.4645 102.985 49.1709 102.551L49.2171 102.519C49.6217 99.3684 51.6396 97.8258 54.0466 97.8258H54.3387C54.5125 97.8258 54.6793 97.7558 54.8025 97.6316C54.9256 97.5074 54.9944 97.3391 54.9944 97.1633V96.1135C54.5725 95.9033 54.2171 95.5774 53.9686 95.1734C53.7201 94.7693 53.5888 94.3029 53.5895 93.8273V92.4078C53.5829 92.069 53.6435 91.732 53.7678 91.4169C53.8917 91.1021 54.0769 90.8152 54.3117 90.5731C54.5469 90.3311 54.8272 90.139 55.1367 90.0078C55.4463 89.8765 55.7783 89.8091 56.1141 89.8091C56.4499 89.8091 56.782 89.8765 57.0915 90.0078C57.401 90.139 57.6813 90.3311 57.9165 90.5731C58.1513 90.8152 58.3366 91.1021 58.4604 91.4169C58.5843 91.732 58.645 92.069 58.6387 92.4078V93.8273C58.6387 94.3033 58.507 94.7696 58.2582 95.1737C58.0093 95.5778 57.6536 95.9033 57.2309 96.1135V97.1667C57.2313 97.3424 57.3004 97.5107 57.4232 97.6349C57.5463 97.7591 57.7131 97.8292 57.8869 97.8292C58.6379 97.8032 59.3864 97.9356 60.0842 98.218C60.7824 98.5005 61.414 98.9269 61.9394 99.47C62.4653 100.013 62.8728 100.661 63.1365 101.372C63.4005 102.083 63.5147 102.842 63.4719 103.6L63.8076 103.597Z" fill="#006B99"/>
<path d="M63.8076 86.782V103.597H63.4726C63.5155 102.839 63.4012 102.08 63.1376 101.369C62.8736 100.658 62.466 100.01 61.9406 99.4672C61.4147 98.9244 60.7831 98.4977 60.0853 98.2153C59.3875 97.9328 58.6391 97.8004 57.8877 97.8267C57.7139 97.8264 57.5471 97.7567 57.4243 97.6325C57.3012 97.5083 57.232 97.3396 57.232 97.1643V96.1148C57.6543 95.9042 58.0101 95.5787 58.2589 95.1746C58.5078 94.7706 58.6398 94.3042 58.6398 93.8282V92.4087C58.6272 91.7407 58.3558 91.1042 57.8836 90.636C57.4117 90.1681 56.7764 89.9056 56.1149 89.9056C55.4533 89.9056 54.8184 90.1681 54.3461 90.636C53.8743 91.1042 53.6025 91.7407 53.5903 92.4087V93.8282C53.5896 94.3038 53.7212 94.7702 53.9693 95.1743C54.2178 95.5783 54.5732 95.9042 54.9955 96.1148V97.1669C54.9955 97.3426 54.9264 97.5113 54.8032 97.6355C54.6804 97.7596 54.5137 97.8293 54.3395 97.8293H54.0474C51.6415 97.8293 49.6224 99.3749 49.2179 102.523L49.1717 102.554C48.8041 102.015 48.6074 101.377 48.6085 100.722V86.782H63.8076Z" fill="#F7CEDC"/>
<path d="M63.808 86.3204V86.7819H49.1432V86.4461C49.1432 82.4857 51.3505 80.5506 54.044 80.5506H54.3362C54.5103 80.5502 54.6771 80.4801 54.7999 80.3559C54.923 80.2314 54.9922 80.0627 54.9922 79.887V78.8382C54.5699 78.6277 54.2145 78.3018 53.966 77.8973C53.7179 77.4933 53.5862 77.0269 53.587 76.5513V75.1314C53.5807 74.7926 53.6413 74.456 53.7652 74.1409C53.8895 73.8258 54.0744 73.5388 54.3095 73.2968C54.5444 73.055 54.825 72.8626 55.1342 72.7314C55.4437 72.6002 55.7761 72.5327 56.1115 72.5327C56.4473 72.5327 56.7794 72.6002 57.0889 72.7314C57.3984 72.8626 57.6787 73.055 57.9139 73.2968C58.1491 73.5388 58.334 73.8258 58.4579 74.1409C58.5821 74.456 58.6428 74.7926 58.6365 75.1314V76.5539C58.6361 77.0299 58.5045 77.4962 58.2556 77.9003C58.0067 78.3048 57.651 78.6306 57.2287 78.8412V79.8844C57.229 80.0601 57.2982 80.2284 57.421 80.3526C57.5441 80.4768 57.7105 80.5469 57.8843 80.5476C58.6357 80.5217 59.3838 80.654 60.0816 80.9365C60.7794 81.219 61.411 81.6449 61.9369 82.188C62.4623 82.7307 62.8698 83.3784 63.1339 84.0894C63.3975 84.8005 63.5118 85.5593 63.4693 86.3174L63.808 86.3204Z" fill="#006B99"/>
<path d="M63.808 69.3583V69.7182H49.1432V69.485C49.1432 65.5243 51.3505 63.5892 54.044 63.5892H54.3362C54.51 63.5888 54.6767 63.5191 54.7999 63.3949C54.9227 63.2707 54.9918 63.1024 54.9922 62.9267V61.8753C54.5699 61.6648 54.2145 61.3389 53.9664 60.9348C53.7179 60.5308 53.5866 60.0648 53.587 59.5891V58.1686C53.5807 57.8297 53.6413 57.4927 53.7652 57.1776C53.8895 56.8629 54.0744 56.576 54.3095 56.3339C54.5444 56.0918 54.825 55.8998 55.1342 55.7685C55.4437 55.6373 55.7761 55.5698 56.1115 55.5698C56.4473 55.5698 56.7794 55.6373 57.0889 55.7685C57.3984 55.8998 57.6787 56.0918 57.9139 56.3339C58.1491 56.576 58.334 56.8629 58.4579 57.1776C58.5821 57.4927 58.6428 57.8297 58.6365 58.1686V59.5891C58.6361 60.0648 58.5045 60.5311 58.2556 60.9352C58.0067 61.3393 57.651 61.6648 57.2287 61.8753V62.9248C57.2287 63.1006 57.2978 63.2689 57.421 63.3931C57.5437 63.5172 57.7105 63.5873 57.8843 63.5873C58.6357 63.5614 59.3842 63.6937 60.082 63.9762C60.7798 64.2587 61.4114 64.685 61.9372 65.2281C62.4627 65.7712 62.8702 66.4188 63.1343 67.1299C63.3979 67.8409 63.5122 68.5998 63.4693 69.3583H63.808Z" fill="#006B99"/>
<path d="M60.0417 39.7798L59.93 40.0029L55.7887 44.4315C55.724 44.502 55.6452 44.5583 55.5583 44.5965C55.471 44.635 55.3767 44.6551 55.2817 44.6551C55.1356 44.6551 54.9933 44.6091 54.8746 44.5235C54.7954 44.4656 54.7296 44.3919 54.6808 44.3066C54.6324 44.221 54.602 44.1264 54.5924 44.0282C54.5828 43.9303 54.5939 43.8313 54.6246 43.7379C54.6556 43.6445 54.7059 43.5589 54.7721 43.4866L59.2119 38.7429L59.1871 38.6743C59.3305 38.6205 59.4918 38.5545 59.663 38.4856C59.6201 38.5545 58.9911 39.5162 60.0417 39.7798Z" fill="#006B99"/>
<path d="M44.1776 9.28833L46.5217 10.4665C46.0684 11.9011 44.1809 11.4307 44.1809 11.4307L44.1776 9.28833Z" fill="#FFCEB6"/>
<path d="M45.4989 55.3288V65.4004H41.2888V65.2959L38.4189 61.8756C38.9913 60.531 39.2964 59.086 39.3171 57.6224C39.3171 55.923 38.2103 53.8022 37.2551 52.2856L41.2888 49.46L45.4989 55.3288Z" fill="#FFCEB6"/>
<path d="M36.4157 6.40161V41.7468L36.372 41.8369C35.7811 41.5678 35.1599 41.3728 34.5223 41.2564L34.5497 41.1151V6.40161H36.4157Z" fill="#CCEFF6"/>
<path d="M29.9136 33.438C30.4206 34.4586 29.8578 35.9422 28.7883 36.0771C28.4089 36.1305 28.0221 36.0678 27.6782 35.8969C28.119 35.2374 28.4555 34.5123 28.6763 33.7483C28.8072 33.4306 29.0209 33.0851 29.2295 32.6458C29.5257 32.8407 29.7624 33.1151 29.9136 33.438Z" fill="#006B99"/>
<path d="M26.3592 40.025L29.7953 41.1186C29.7953 41.1186 27.9053 43.2294 22.8085 43.5056C19.6124 43.6127 16.4536 42.7835 13.7131 41.1186L18.0415 39.3121L15.234 36.3723C15.2529 36.3723 14.8642 33.2397 14.8831 33.2371C15.4174 33.1678 19.183 36.545 19.4903 36.0987L20.3246 36.293C21.1422 36.8598 22.0363 37.3043 22.9797 37.6127L23.0107 37.6227C23.2844 37.7261 25.3427 38.4894 26.2782 38.7782H26.2952L26.3041 38.951L26.3592 40.025Z" fill="#FFCEB6"/>
<path d="M27.5969 33.0391C27.4981 33.1103 27.3931 33.1726 27.2833 33.2245C27.2833 33.2245 26.2142 32.9887 25.8211 32.9542C25.5075 32.9264 23.7288 33.0146 23.0447 33.055C22.8772 33.0613 22.7774 33.0676 22.7774 33.0676C23.2222 33.4525 23.6919 33.8072 24.1826 34.1297C24.4459 34.3247 24.7498 34.4556 25.0712 34.5123C25.3929 34.5691 25.7228 34.5501 26.036 34.4567C26.6206 34.0615 27.1461 33.5844 27.5969 33.0391ZM14.1087 28.6102C14.5961 28.0704 15.2739 28.3681 15.7125 28.6698C16.1629 28.999 16.7091 29.167 17.2645 29.147C20.1933 28.9523 20.8119 24.5326 20.9953 22.9619C20.9953 22.9619 25.0102 23.4012 26.3067 24.0485C26.4305 24.1115 26.5555 24.1808 26.6765 24.2502C27.9493 25.0053 28.89 26.2216 29.3079 27.6518L29.2765 27.7416C29.1955 27.9773 29.1241 28.1342 29.1241 28.1342C29.5068 28.9642 29.6492 29.8865 29.5342 30.7948C29.417 31.4665 29.2088 32.1186 28.9155 32.7329C28.6386 33.3272 28.3464 33.7913 28.1726 34.2191C27.8746 35.2464 27.4212 36.221 26.8288 37.1085C26.655 37.3179 26.4457 37.4947 26.2105 37.6304C25.9875 37.758 25.7427 37.8421 25.4887 37.8781C24.7924 37.96 24.0864 37.91 23.4082 37.7305C23.2781 37.699 23.1409 37.6645 23.0137 37.6241L22.9822 37.6141C22.0393 37.3053 21.1447 36.8612 20.3271 36.2947L18.872 36.1001C19.1553 35.7509 19.3268 35.3227 19.3642 34.8727C19.4012 34.423 19.3024 33.9718 19.0806 33.58C18.5458 32.7322 18.1602 32.3926 16.8038 32.9994C16.4761 33.1711 16.2058 33.4365 16.0268 33.7627L15.9333 34.1894C15.0228 33.6593 12.9931 30.8886 13.8628 29.0039C13.9227 28.8596 14.0055 28.7269 14.1087 28.6102Z" fill="#FFCEB6"/>
<path d="M20.9891 22.946C20.9909 22.9512 20.9909 22.9568 20.9891 22.9619C20.7968 24.6491 20.0938 29.6122 16.583 29.1192C16.3356 29.0825 16.1026 28.979 15.9085 28.82C15.504 28.4934 14.6771 27.9722 14.105 28.6106C14.0022 28.7273 13.9179 28.8597 13.8554 29.0028C12.9849 30.8879 14.6209 32.4334 15.5317 32.9635L16.2657 33.4729C16.1034 33.7524 16.0135 34.069 16.005 34.393C15.9962 34.717 16.0686 35.038 16.2158 35.3265C16.5982 36.4164 17.475 36.2929 18.1443 36.3092L18.0381 39.312L13.7094 41.1185C11.8186 41.4392 9.98371 42.0357 8.2627 42.8891C6.64893 38.3597 11.9595 30.8805 13.4368 26.4797C13.5918 26.0207 13.4021 22.6598 15.8371 19.8865C17.0711 18.8815 18.5167 18.1753 20.0624 17.8223C20.2406 17.7756 20.4118 17.7337 20.5757 17.6974C22.1927 17.3905 23.8646 17.6144 25.3467 18.3358C26.8288 19.0576 28.0436 20.2394 28.8131 21.7082C30.8965 25.9966 29.3042 27.6489 29.3042 27.6489C28.8867 26.2191 27.9463 25.0027 26.6739 24.2476C25.5686 23.326 24.2614 22.685 22.8613 22.3781C20.9491 22.0667 20.9765 22.8363 20.9891 22.946Z" fill="#006B99"/>
<path d="M26.6743 24.2501C26.553 24.1808 26.4284 24.1115 26.3038 24.0484C25.0073 23.4012 20.9932 22.9619 20.9932 22.9619C20.9947 22.9567 20.9947 22.9511 20.9932 22.9459C20.9806 22.8358 20.9529 22.0662 22.8643 22.3806C24.2636 22.6883 25.5697 23.3293 26.6743 24.2501Z" fill="#006B99"/>
<path d="M26.2357 37.6783L26.2945 38.7782H26.2782C25.3426 38.489 23.2844 37.7257 23.0107 37.6223C23.1409 37.6627 23.2781 37.6972 23.4057 37.7287C24.0839 37.9081 24.7894 37.9582 25.4861 37.8763C25.7398 37.8403 25.9842 37.7561 26.2069 37.6286L26.2357 37.6783Z" fill="#006B99"/>
<path d="M17.9797 36.155C17.5745 36.204 17.1651 36.1061 16.8245 35.8788C16.4843 35.6516 16.2347 35.3098 16.1201 34.9139C16.0372 34.6777 16.0073 34.426 16.0335 34.1765C16.0594 33.9274 16.14 33.6872 16.2698 33.4736C16.3945 33.2627 16.5816 33.097 16.8045 32.9995C16.9968 32.8849 17.2113 32.8126 17.4336 32.7878C17.6558 32.7633 17.8806 32.7863 18.0933 32.8556C18.3059 32.925 18.5015 33.0391 18.6672 33.1908C18.8332 33.342 18.9652 33.527 19.0551 33.7339C19.1893 34.0297 19.2452 34.3556 19.2182 34.6796C19.1912 35.0039 19.0814 35.3157 18.9002 35.5845C18.8025 35.7369 18.6735 35.8662 18.5226 35.9641C18.3714 36.062 18.2013 36.1261 18.0234 36.1524C18.009 36.1517 17.9956 36.155 17.9797 36.155Z" fill="#CCEFF6"/>
<path d="M13.7131 56.469L13.4394 65.4003H4.40985V56.0957L13.7131 56.469Z" fill="#FFCEB6"/>
<path d="M9.16725 3.09082C9.38579 3.09045 9.5999 3.1557 9.78221 3.2784C9.96414 3.40111 10.1061 3.57535 10.1901 3.77961C10.274 3.98388 10.2962 4.20853 10.2533 4.4254C10.2108 4.64227 10.1054 4.84134 9.95083 4.99779C9.79589 5.15423 9.59879 5.26062 9.38432 5.30363C9.16947 5.34663 8.94685 5.32439 8.74494 5.23949C8.54267 5.15497 8.36997 5.0115 8.24868 4.82725C8.12739 4.64338 8.06268 4.42726 8.06305 4.20631C8.06342 3.91048 8.17991 3.62688 8.38662 3.4178C8.5937 3.20871 8.87437 3.09119 9.16725 3.09082Z" fill="#FFCEB6"/>
<path d="M4.81441 3.09082C5.03332 3.09045 5.24743 3.1557 5.42937 3.2784C5.61168 3.40111 5.75367 3.57535 5.83725 3.77961C5.92119 3.98388 5.94338 4.20853 5.90085 4.4254C5.85832 4.64227 5.75293 4.84134 5.59799 4.99779C5.44342 5.15423 5.24596 5.26062 5.03148 5.30363C4.81663 5.34663 4.59438 5.32439 4.39211 5.23949C4.1902 5.15497 4.0175 5.0115 3.89584 4.82725C3.77455 4.64338 3.7102 4.42726 3.71057 4.20631C3.71057 3.91048 3.82706 3.62688 4.03414 3.4178C4.24085 3.20871 4.52153 3.09119 4.81441 3.09082Z" fill="#CCEFF6"/>
<path d="M120.31 106.541C119.685 106.908 118.976 107.101 118.254 107.1H49.5814C49.0452 107.1 48.5142 106.994 48.0187 106.786C47.5231 106.579 47.0731 106.276 46.6937 105.893C46.3147 105.509 46.014 105.055 45.8088 104.554C45.6039 104.054 45.4985 103.517 45.4989 102.975V53.5864C45.4989 52.492 45.929 51.4429 46.6944 50.6692C47.4599 49.8956 48.4987 49.4607 49.5814 49.46H118.254C118.79 49.46 119.322 49.5664 119.818 49.774C120.314 49.9812 120.764 50.2852 121.144 50.6685C121.523 51.0518 121.824 51.5071 122.03 52.0079C122.235 52.5091 122.341 53.0459 122.34 53.5879V102.977C122.34 103.699 122.152 104.408 121.796 105.033C121.44 105.658 120.927 106.178 120.31 106.541Z" stroke="#006B99" stroke-width="3.23435" stroke-linecap="round" stroke-linejoin="round"/>
<path d="M63.8076 103.958H51.8134C50.9629 103.958 50.1468 103.617 49.5455 103.009C48.9438 102.401 48.6058 101.577 48.6058 100.717V55.8381C48.6058 54.9788 48.9438 54.1543 49.5455 53.5467C50.1468 52.9391 50.9629 52.5977 51.8134 52.5977H116.022C116.873 52.5977 117.688 52.9391 118.29 53.5467C118.892 54.1543 119.23 54.9788 119.23 55.8381V100.719C119.23 101.579 118.892 102.403 118.29 103.011C117.688 103.618 116.873 103.96 116.022 103.96H63.8076V103.958Z" stroke="#006B99" stroke-width="3.23435" stroke-linecap="round" stroke-linejoin="round"/>
<path d="M79.8954 51.2927H85.1908" stroke="#006B99" stroke-width="3.23435" stroke-linecap="round" stroke-linejoin="round"/>
<path d="M63.8065 52.5999V69.3581V69.7166V86.3202V86.7821V103.597V103.958" stroke="#006B99" stroke-width="3.23435" stroke-linecap="round" stroke-linejoin="round"/>
<path d="M104.23 52.5999V69.3581V69.7166V86.3202V86.7821V103.597V103.958" stroke="#006B99" stroke-width="3.23435" stroke-linecap="round" stroke-linejoin="round"/>
<path d="M48.6077 69.7163H49.1432H63.8069" stroke="#006B99" stroke-width="3.23435" stroke-linecap="round" stroke-linejoin="round"/>
<path d="M48.6077 86.782H49.1432H63.8069" stroke="#006B99" stroke-width="3.23435" stroke-linecap="round" stroke-linejoin="round"/>
<path d="M63.4718 69.3582C63.514 68.6004 63.3994 67.842 63.1353 67.1313C62.8713 66.421 62.4634 65.7737 61.938 65.231C61.4125 64.6886 60.7809 64.2627 60.0834 63.9806C59.386 63.6981 58.6379 63.5661 57.8869 63.5921C57.7131 63.5917 57.5463 63.522 57.4235 63.3978C57.3008 63.2736 57.2312 63.1053 57.2312 62.9296V61.8756C57.6535 61.6651 58.0093 61.3392 58.2582 60.9351C58.507 60.5314 58.639 60.0651 58.639 59.5891V58.1689C58.6265 57.5005 58.355 56.8639 57.8832 56.3961C57.411 55.9279 56.7757 55.6658 56.1141 55.6658C55.4529 55.6658 54.8176 55.9279 54.3454 56.3961C53.8735 56.8639 53.6021 57.5005 53.5895 58.1689V59.5891C53.5892 60.0647 53.7208 60.5311 53.9689 60.9351C54.2174 61.3389 54.5728 61.6647 54.9947 61.8756V62.9251C54.9944 63.1005 54.9252 63.2692 54.8024 63.3934C54.6793 63.5175 54.5129 63.5872 54.3387 63.5876H54.0466C51.3504 63.5876 49.1461 65.5254 49.1461 69.4835" stroke="#006B99" stroke-width="3.23435" stroke-linecap="round" stroke-linejoin="round"/>
<path d="M63.4718 86.3203C63.5144 85.5622 63.4001 84.8034 63.1361 84.0923C62.8724 83.3813 62.4645 82.7337 61.9391 82.1906C61.4136 81.6478 60.782 81.2215 60.0842 80.939C59.3864 80.6565 58.6379 80.5242 57.8869 80.5505C57.7127 80.5498 57.5463 80.4793 57.4235 80.3551C57.3008 80.2309 57.2312 80.0626 57.2309 79.8869V78.8382C57.6532 78.628 58.0089 78.3028 58.2578 77.8991C58.5066 77.4954 58.639 77.0294 58.6398 76.5538V75.1317C58.6272 74.4633 58.3558 73.8268 57.8835 73.359C57.4113 72.8908 56.7764 72.6287 56.1148 72.6287C55.4533 72.6287 54.8183 72.8908 54.3461 73.359C53.8739 73.8268 53.6025 74.4633 53.5903 75.1317V76.5538C53.5895 77.0294 53.7212 77.4958 53.9693 77.9003C54.2178 78.3043 54.5732 78.6302 54.9955 78.8411V79.8843C54.9955 80.06 54.9263 80.2287 54.8032 80.3529C54.6804 80.4775 54.5136 80.5475 54.3395 80.5475H54.0473C51.3512 80.5475 49.1465 82.4856 49.1465 86.4434" stroke="#006B99" stroke-width="3.23435" stroke-linecap="round" stroke-linejoin="round"/>
<path d="M63.4715 103.597C63.5144 102.839 63.4002 102.08 63.1365 101.369C62.8728 100.658 62.465 100.01 61.9395 99.467C61.414 98.9239 60.782 98.4976 60.0842 98.2151C59.3864 97.9326 58.638 97.8003 57.8866 97.8266C57.7128 97.8262 57.546 97.7566 57.4232 97.6324C57.3004 97.5082 57.2313 97.3395 57.2309 97.1642V96.1143C57.6532 95.9041 58.0093 95.5786 58.2578 95.1745C58.5067 94.7704 58.6387 94.3041 58.6387 93.8281V92.4086C58.6261 91.7406 58.3547 91.104 57.8829 90.6358C57.4106 90.1676 56.7753 89.9055 56.1141 89.9055C55.4526 89.9055 54.8173 90.1676 54.3451 90.6358C53.8732 91.104 53.6018 91.7406 53.5892 92.4086V93.8281C53.5888 94.3037 53.7201 94.7701 53.9682 95.1741C54.2167 95.5782 54.5721 95.9041 54.9944 96.1143V97.1667C54.9944 97.3425 54.9253 97.5108 54.8021 97.6353C54.6793 97.7595 54.5126 97.8292 54.3384 97.8292H54.0463C51.6404 97.8292 49.6213 99.3747 49.2168 102.522" stroke="#006B99" stroke-width="3.23435" stroke-linecap="round" stroke-linejoin="round"/>
<path d="M119.231 69.7163H118.621H104.268" stroke="#006B99" stroke-width="3.23435" stroke-linecap="round" stroke-linejoin="round"/>
<path d="M119.231 86.782H118.621H104.268" stroke="#006B99" stroke-width="3.23435" stroke-linecap="round" stroke-linejoin="round"/>
<path d="M104.292 69.3583C104.25 68.6005 104.365 67.8424 104.628 67.1321C104.892 66.4218 105.3 65.7746 105.825 65.2322C106.35 64.6895 106.981 64.2635 107.678 63.981C108.375 63.6989 109.123 63.5662 109.874 63.5918C110.049 63.5914 110.216 63.5217 110.341 63.3975C110.464 63.2734 110.533 63.105 110.533 62.9293V61.8754C110.11 61.6652 109.755 61.3393 109.506 60.9352C109.257 60.5312 109.125 60.0652 109.125 59.5892V58.1686C109.125 57.492 109.39 56.8433 109.864 56.365C110.337 55.8865 110.98 55.6177 111.649 55.6177C112.319 55.6177 112.961 55.8865 113.435 56.365C113.909 56.8433 114.175 57.492 114.175 58.1686V59.5892C114.174 60.0652 114.042 60.5312 113.794 60.9352C113.544 61.3393 113.189 61.6652 112.766 61.8754V62.9249C112.767 63.101 112.836 63.2696 112.96 63.3938C113.084 63.518 113.251 63.5877 113.426 63.5873H113.714C116.413 63.5873 118.621 65.5254 118.621 69.4832" stroke="#006B99" stroke-width="3.23435" stroke-linecap="round" stroke-linejoin="round"/>
<path d="M104.292 86.3201C104.25 85.5623 104.364 84.8038 104.627 84.0928C104.891 83.3821 105.298 82.7345 105.824 82.1918C106.349 81.649 106.98 81.2223 107.678 80.9398C108.375 80.6574 109.123 80.5246 109.874 80.5502C110.049 80.5502 110.217 80.4798 110.341 80.3549C110.464 80.231 110.533 80.0627 110.533 79.887V78.8383C110.111 78.6277 109.755 78.3022 109.506 77.8977C109.257 77.4937 109.125 77.0273 109.124 76.5509V75.1315C109.124 74.4549 109.391 73.8062 109.864 73.3279C110.338 72.8493 110.98 72.5806 111.65 72.5806C112.32 72.5806 112.962 72.8493 113.435 73.3279C113.909 73.8062 114.175 74.4549 114.175 75.1315V76.5539C114.175 77.0299 114.043 77.4963 113.794 77.9007C113.545 78.3048 113.189 78.6307 112.766 78.8409V79.8844C112.767 80.0605 112.837 80.2292 112.96 80.3534C113.084 80.4779 113.251 80.5476 113.426 80.5476H113.714C116.413 80.5476 118.621 82.4857 118.621 86.4435" stroke="#006B99" stroke-width="3.23435" stroke-linecap="round" stroke-linejoin="round"/>
<path d="M104.292 103.597C104.25 102.839 104.364 102.081 104.627 101.37C104.891 100.659 105.298 100.011 105.823 99.4681C106.348 98.925 106.98 98.4987 107.678 98.2162C108.375 97.9334 109.123 97.8006 109.874 97.8266C109.96 97.827 110.046 97.8099 110.126 97.7769C110.206 97.7435 110.279 97.695 110.34 97.6334C110.401 97.5719 110.449 97.4989 110.483 97.4181C110.516 97.3376 110.533 97.2512 110.533 97.1641V96.1146C110.111 95.9041 109.755 95.5786 109.506 95.1745C109.257 94.7704 109.125 94.304 109.124 93.828V92.4086C109.124 91.732 109.391 91.0833 109.864 90.6047C110.338 90.1264 110.98 89.8577 111.65 89.8577C112.319 89.8577 112.962 90.1264 113.436 90.6047C113.909 91.0833 114.175 91.732 114.175 92.4086V93.828C114.175 94.304 114.043 94.7704 113.794 95.1745C113.545 95.5786 113.189 95.9041 112.766 96.1146V97.1667C112.767 97.3428 112.837 97.5115 112.96 97.6357C113.084 97.7599 113.251 97.8296 113.426 97.8292H113.714C116.12 97.8292 118.142 99.3747 118.546 102.522" stroke="#006B99" stroke-width="3.23435" stroke-linecap="round" stroke-linejoin="round"/>
<path d="M104.23 49.4581V38.1271V33.3438H170.913V38.1271V78.279H122.34" stroke="#006B99" stroke-width="3.23435" stroke-linecap="round" stroke-linejoin="round"/>
<path d="M104.23 38.1272H170.913" stroke="#006B99" stroke-width="3.23435" stroke-linecap="round" stroke-linejoin="round"/>
<path d="M108.537 35.9321C108.538 36.1531 108.473 36.3692 108.352 36.5531C108.231 36.737 108.058 36.8804 107.856 36.9653C107.654 37.0502 107.432 37.0725 107.218 37.0298C107.003 36.9868 106.806 36.8808 106.651 36.7247C106.496 36.5687 106.39 36.3696 106.347 36.1531C106.304 35.9362 106.326 35.7116 106.41 35.5073C106.493 35.303 106.635 35.1284 106.817 35.0057C106.998 34.8826 107.212 34.817 107.431 34.8167C107.576 34.8167 107.72 34.8452 107.854 34.9012C107.988 34.9572 108.11 35.0391 108.213 35.1429C108.316 35.2463 108.397 35.3694 108.453 35.5047C108.508 35.64 108.537 35.7853 108.537 35.9321Z" stroke="#006B99" stroke-width="3.23435" stroke-linecap="round" stroke-linejoin="round"/>
<path d="M112.887 35.9321C112.888 36.1531 112.823 36.3688 112.702 36.5531C112.581 36.737 112.409 36.8804 112.206 36.9653C112.004 37.0498 111.782 37.0725 111.568 37.0298C111.353 36.9868 111.156 36.8808 111.001 36.7251C110.846 36.569 110.74 36.37 110.698 36.1535C110.655 35.937 110.676 35.7123 110.759 35.508C110.843 35.3038 110.984 35.1292 111.166 35.0061C111.348 34.883 111.561 34.817 111.78 34.8167C111.925 34.8163 112.069 34.8448 112.203 34.9008C112.338 34.9568 112.46 35.0387 112.562 35.1425C112.666 35.2459 112.747 35.369 112.803 35.5047C112.859 35.64 112.887 35.7853 112.887 35.9321Z" stroke="#006B99" stroke-width="3.23435" stroke-linecap="round" stroke-linejoin="round"/>
<path d="M117.24 35.9321C117.241 36.1531 117.176 36.3692 117.055 36.5531C116.933 36.737 116.761 36.8804 116.559 36.9653C116.357 37.0502 116.135 37.0725 115.92 37.0298C115.706 36.9868 115.508 36.8808 115.354 36.7247C115.199 36.5687 115.093 36.3696 115.05 36.1531C115.007 35.9362 115.029 35.7116 115.113 35.5073C115.196 35.303 115.337 35.1284 115.519 35.0057C115.701 34.8826 115.915 34.817 116.134 34.8167C116.279 34.8163 116.423 34.8448 116.557 34.9008C116.691 34.9568 116.813 35.0387 116.916 35.1425C117.019 35.2459 117.1 35.369 117.156 35.5047C117.211 35.64 117.24 35.7853 117.24 35.9321Z" stroke="#006B99" stroke-width="3.23435" stroke-linecap="round" stroke-linejoin="round"/>
<path d="M45.4985 65.4004H41.2884H36.4157H13.4394H4.40986H1.61719V6.40128V1.61719H93.1758V6.40128V49.4582" stroke="#006B99" stroke-width="3.23435" stroke-linecap="round" stroke-linejoin="round"/>
<path d="M1.61719 6.40161H34.5497H36.4157H93.1758" stroke="#006B99" stroke-width="3.23435" stroke-linecap="round" stroke-linejoin="round"/>
<path d="M5.92115 4.20631C5.92152 4.42725 5.85682 4.64338 5.7359 4.82725C5.6146 5.01113 5.44191 5.1546 5.24 5.23949C5.0381 5.32438 4.81585 5.34663 4.60101 5.304C4.38653 5.261 4.18942 5.15497 4.03448 4.9989C3.87954 4.84283 3.77414 4.64375 3.73125 4.42725C3.68835 4.21038 3.7098 3.98573 3.79337 3.78146C3.87695 3.5772 4.01858 3.40259 4.20015 3.27988C4.38208 3.15681 4.59583 3.09119 4.81437 3.09082C5.10762 3.09082 5.38866 3.20796 5.59648 3.41705C5.80393 3.62613 5.92078 3.9101 5.92115 4.20631Z" stroke="#006B99" stroke-width="3.23435" stroke-linecap="round" stroke-linejoin="round"/>
<path d="M10.2747 4.20631C10.2751 4.42725 10.2104 4.64301 10.0891 4.82689C9.96818 5.01113 9.79549 5.1546 9.59359 5.23912C9.39168 5.32402 9.16944 5.34663 8.95496 5.304C8.74048 5.261 8.54302 5.15497 8.38807 4.99927C8.2335 4.8432 8.12774 4.64412 8.08484 4.42762C8.04158 4.21113 8.06302 3.98647 8.14659 3.7822C8.2298 3.57794 8.37143 3.40333 8.553 3.28026C8.73456 3.15718 8.94831 3.09119 9.16722 3.09082C9.31218 3.09082 9.45602 3.11936 9.59026 3.17534C9.72449 3.23132 9.84653 3.31325 9.94933 3.41668C10.0525 3.52048 10.1339 3.64356 10.1897 3.77887C10.2455 3.91418 10.2744 4.0595 10.2747 4.20631Z" stroke="#006B99" stroke-width="3.23435" stroke-linecap="round" stroke-linejoin="round"/>
<path d="M14.6272 4.20631C14.6276 4.42725 14.5632 4.64338 14.4419 4.82725C14.3206 5.01113 14.1483 5.1546 13.946 5.23949C13.7441 5.32438 13.5219 5.34663 13.3074 5.304C13.0926 5.261 12.8955 5.15497 12.7405 4.9989C12.5859 4.84283 12.4802 4.64375 12.4373 4.42725C12.3944 4.21038 12.4162 3.98573 12.4994 3.78146C12.583 3.5772 12.7246 3.40259 12.9066 3.27988C13.0881 3.15681 13.3019 3.09119 13.5208 3.09082C13.8136 3.09082 14.0951 3.20796 14.3025 3.41705C14.51 3.62613 14.6268 3.9101 14.6272 4.20631Z" stroke="#006B99" stroke-width="3.23435" stroke-linecap="round" stroke-linejoin="round"/>
<path d="M75.7012 126.679L48.3281 107.1V108.18C48.3278 108.915 48.5023 109.639 48.8366 110.292C49.1713 110.944 49.6557 111.506 50.2499 111.93L82.7724 135.194C84.128 136.162 85.7462 136.682 87.4059 136.683H154.334C154.765 136.684 155.192 136.598 155.591 136.431C155.989 136.265 156.351 136.02 156.656 135.712C156.961 135.404 157.203 135.039 157.368 134.636C157.533 134.233 157.618 133.802 157.618 133.366V133.228" stroke="#006B99" stroke-width="3.23435" stroke-linecap="round" stroke-linejoin="round"/>
<path d="M120.31 106.541L157.613 133.225H84.8521" stroke="#006B99" stroke-width="3.23435" stroke-linecap="round" stroke-linejoin="round"/>
<path d="M114.731 46.27H160.409" stroke="#006B99" stroke-width="3.23435" stroke-linecap="round" stroke-linejoin="round"/>
<path d="M122.816 56.6355H160.409" stroke="#006B99" stroke-width="3.23435" stroke-linecap="round" stroke-linejoin="round"/>
<path d="M122.816 67.0015H160.409" stroke="#006B99" stroke-width="3.23435" stroke-linecap="round" stroke-linejoin="round"/>
<path d="M28.2189 93.9226H43.3433" stroke="#006B99" stroke-width="3.23435" stroke-linecap="round" stroke-linejoin="round"/>
<path d="M124.613 93.9226H145.956" stroke="#006B99" stroke-width="3.23435" stroke-linecap="round" stroke-linejoin="round"/>
<path d="M75.7016 126.679L84.8525 133.225V136.181" stroke="#006B99" stroke-width="3.23435" stroke-linecap="round" stroke-linejoin="round"/>
<path d="M101.954 130.712L94.8742 125.648H123.273" stroke="#F7CEDC" stroke-width="3.23435" stroke-linecap="round" stroke-linejoin="round"/>
<path d="M123.345 125.648L130.425 130.712H102.026" stroke="#006B99" stroke-width="3.23435" stroke-linecap="round" stroke-linejoin="round"/>
<path d="M137.561 123.186H117.99H78.4813L65.0793 113.598L59.9611 109.936H81.7274H119.041L131.811 119.074L137.561 123.186Z" stroke="#006B99" stroke-width="3.23435" stroke-linecap="round" stroke-linejoin="round"/>
<path d="M65.079 113.598H86.8449H116.139" stroke="#006B99" stroke-width="3.23435" stroke-linecap="round" stroke-linejoin="round"/>
<path d="M80.6265 119.253H112.654H131.687" stroke="#006B99" stroke-width="3.23435" stroke-linecap="round" stroke-linejoin="round"/>
<path d="M81.7277 109.936L86.8456 113.598L92.181 117.416" stroke="#006B99" stroke-width="3.23435" stroke-linecap="round" stroke-linejoin="round"/>
<path d="M107.536 115.591L112.654 119.253L117.99 123.069" stroke="#006B99" stroke-width="3.23435" stroke-linecap="round" stroke-linejoin="round"/>
<path d="M91.3135 82.8545C92.1625 82.8549 93.0027 83.0239 93.787 83.352C94.571 83.6805 95.2836 84.1613 95.8834 84.7678C96.4835 85.3743 96.9595 86.0942 97.2841 86.8864C97.6085 87.6786 97.7756 88.5276 97.7752 89.385C97.7771 89.4062 97.7771 89.4269 97.7752 89.4481C97.7752 91.1789 97.0948 92.8386 95.8834 94.0627C94.6719 95.2865 93.0286 95.9742 91.3153 95.9742C89.6021 95.9742 87.9591 95.2865 86.7477 94.0627C85.5359 92.8386 84.8555 91.1789 84.8555 89.4481C84.8536 89.4269 84.8536 89.4062 84.8555 89.385C84.8551 87.6542 85.5351 85.9937 86.7462 84.7689C87.9573 83.5444 89.6002 82.856 91.3135 82.8545Z" stroke="#006B99" stroke-width="3.23435" stroke-linecap="round" stroke-linejoin="round"/>
<path d="M91.3138 78.7163V82.8557V89.4493V95.9138V99.555" stroke="#006B99" stroke-width="3.23435" stroke-linecap="round" stroke-linejoin="round"/>
<path d="M101.628 89.4492H97.7719H91.3139H84.8558H80.9993" stroke="#006B99" stroke-width="3.23435" stroke-linecap="round" stroke-linejoin="round"/>
<path d="M67.7906 29.0966C67.8302 27.3925 68.528 25.7713 69.7354 24.5802C70.9424 23.3891 72.5628 22.7222 74.2505 22.7222C75.9379 22.7222 77.5583 23.3891 78.7657 24.5802C79.9727 25.7713 80.6709 27.3925 80.7104 29.0966C80.7119 29.1189 80.7119 29.1411 80.7104 29.1634C80.6949 30.7011 80.1424 32.184 79.1503 33.3506C78.1585 34.5169 76.7906 35.2924 75.2882 35.5401C73.7857 35.7873 72.2448 35.4911 70.9376 34.7034C69.63 33.9156 68.6401 32.6867 68.1416 31.2334" stroke="#006B99" stroke-width="3.23435" stroke-linecap="round" stroke-linejoin="round"/>
<path d="M74.2524 18.4287V22.5692V29.1628V35.624V39.2678" stroke="#006B99" stroke-width="3.23435" stroke-linecap="round" stroke-linejoin="round"/>
<path d="M68.1105 29.1628H67.7907H63.9378" stroke="#006B99" stroke-width="3.23435" stroke-linecap="round" stroke-linejoin="round"/>
<path d="M84.5659 29.1628H80.7104H74.252H70.2682" stroke="#006B99" stroke-width="3.23435" stroke-linecap="round" stroke-linejoin="round"/>
<path d="M67.6157 63.6848V67.9036L77.8431 66.691L90.0199 65.2463V70.6239V72.8193L87.8681 71.7353L77.8431 66.691L69.9572 62.7206L67.6157 61.5425V63.6848Z" stroke="#006B99" stroke-width="3.23435" stroke-linecap="round" stroke-linejoin="round"/>
<path d="M67.6157 63.6822C67.6157 63.6822 69.5002 64.1538 69.9572 62.718" stroke="#006B99" stroke-width="3.23435" stroke-linecap="round" stroke-linejoin="round"/>
<path d="M87.8655 71.7355C88.087 71.367 88.4054 71.0679 88.7856 70.8718C89.1654 70.6756 89.5917 70.5896 90.0174 70.6237" stroke="#006B99" stroke-width="3.23435" stroke-linecap="round" stroke-linejoin="round"/>
<path d="M44.1776 11.4307V15.652L54.4075 14.4368L66.5807 12.9914V18.3698V20.5652L64.4289 19.4812L54.4075 14.4368L46.5184 10.4665L44.1776 9.28833V11.4307Z" stroke="#006B99" stroke-width="3.23435" stroke-linecap="round" stroke-linejoin="round"/>
<path d="M44.1776 11.4303C44.1776 11.4303 46.0647 11.9011 46.5184 10.4661" stroke="#006B99" stroke-width="3.23435" stroke-linecap="round" stroke-linejoin="round"/>
<path d="M64.4318 19.4858C64.6533 19.1173 64.9717 18.8185 65.3519 18.622C65.7316 18.4259 66.158 18.3399 66.5836 18.3744" stroke="#006B99" stroke-width="3.23435" stroke-linecap="round" stroke-linejoin="round"/>
<path d="M80.9863 86.3741H73.4056V83.2326V78.7158H77.8778H80.9863V86.3741Z" stroke="#006B99" stroke-width="3.23435" stroke-linecap="round" stroke-linejoin="round"/>
<path d="M77.8782 83.2327H73.406H70.2971V75.5745H77.8782V78.7159V83.2327Z" stroke="#006B99" stroke-width="3.23435" stroke-linecap="round" stroke-linejoin="round"/>
<path d="M70.2971 75.5745L73.406 78.7159" stroke="#006B99" stroke-width="3.23435" stroke-linecap="round" stroke-linejoin="round"/>
<path d="M77.8782 75.5745L80.987 78.7159" stroke="#006B99" stroke-width="3.23435" stroke-linecap="round" stroke-linejoin="round"/>
<path d="M77.8782 83.2327L80.987 86.3741" stroke="#006B99" stroke-width="3.23435" stroke-linecap="round" stroke-linejoin="round"/>
<path d="M70.2971 83.2327L73.406 86.3741" stroke="#006B99" stroke-width="3.23435" stroke-linecap="round" stroke-linejoin="round"/>
<path d="M53.0075 36.9942H45.4264V33.8527V29.3359H49.8987H53.0075V36.9942Z" stroke="#006B99" stroke-width="3.23435" stroke-linecap="round" stroke-linejoin="round"/>
<path d="M49.899 33.8524H45.4268H42.3179V26.1941H49.899V29.3355V33.8524Z" stroke="#006B99" stroke-width="3.23435" stroke-linecap="round" stroke-linejoin="round"/>
<path d="M42.3179 26.1941L45.4268 29.3355" stroke="#006B99" stroke-width="3.23435" stroke-linecap="round" stroke-linejoin="round"/>
<path d="M49.899 26.1941L53.0079 29.3355" stroke="#006B99" stroke-width="3.23435" stroke-linecap="round" stroke-linejoin="round"/>
<path d="M49.899 33.8525L53.0079 36.994" stroke="#006B99" stroke-width="3.23435" stroke-linecap="round" stroke-linejoin="round"/>
<path d="M42.3179 33.8525L45.4268 36.994" stroke="#006B99" stroke-width="3.23435" stroke-linecap="round" stroke-linejoin="round"/>
<path d="M69.9861 96.1715C69.9861 96.1715 68.7136 96.6934 68.6497 97.6043C68.5853 98.5151 69.7472 98.5181 70.2631 97.9969C70.2823 97.3752 70.2176 96.7539 70.0708 96.1496C70.0179 95.9416 69.9417 95.7399 69.8434 95.5494C69.3615 94.6385 68.5532 94.7672 68.2636 95.3863" stroke="#006B99" stroke-width="3.23435" stroke-linecap="round" stroke-linejoin="round"/>
<path d="M94.5883 58.4615C94.5883 58.4615 93.3159 58.9827 93.2519 59.8969C93.1876 60.8114 94.3494 60.8114 94.8657 60.2895C94.8845 59.667 94.8198 59.0446 94.673 58.4396C94.6209 58.2324 94.5447 58.0322 94.446 57.8431C93.9638 56.9286 93.1558 57.0609 92.8662 57.6793" stroke="#006B99" stroke-width="3.23435" stroke-linecap="round" stroke-linejoin="round"/>
<path d="M71.8506 95.9138H73.4056" stroke="#006B99" stroke-width="3.23435" stroke-linecap="round" stroke-linejoin="round"/>
<path d="M71.8506 97.1704H73.4056" stroke="#006B99" stroke-width="3.23435" stroke-linecap="round" stroke-linejoin="round"/>
<path d="M74.8566 95.5211C74.9343 94.531 77.2732 94.5132 76.8224 96.2277C76.514 97.3936 74.9032 98.3486 74.9032 98.3486H77.5406" stroke="#006B99" stroke-width="3.23435" stroke-linecap="round" stroke-linejoin="round"/>
<path d="M85.611 57.76C85.6912 56.7742 88.0301 56.752 87.5712 58.464C87.2639 59.6339 85.6557 60.5874 85.6557 60.5874H88.2897" stroke="#006B99" stroke-width="3.23435" stroke-linecap="round" stroke-linejoin="round"/>
<path d="M80.2223 56.4918C80.2748 55.8286 81.8457 55.816 81.541 56.9663C81.335 57.7448 80.2559 58.3884 80.2559 58.3884H82.0221" stroke="#006B99" stroke-width="3.23435" stroke-linecap="round" stroke-linejoin="round"/>
<path d="M79.2583 97.7733C80.3277 99.0238 81.9607 98.2353 81.4068 96.9633C80.8525 95.6914 79.3581 96.6015 79.2583 97.7733Z" stroke="#006B99" stroke-width="3.23435" stroke-linecap="round" stroke-linejoin="round"/>
<path d="M80.2408 94.3215C79.6003 95.0092 78.1914 96.5203 79.2609 97.7733" stroke="#006B99" stroke-width="3.23435" stroke-linecap="round" stroke-linejoin="round"/>
<path d="M90.3834 57.5027V58.5055V59.5071" stroke="#006B99" stroke-width="3.23435" stroke-linecap="round" stroke-linejoin="round"/>
<path d="M89.277 58.5051H90.3838H91.4104" stroke="#006B99" stroke-width="3.23435" stroke-linecap="round" stroke-linejoin="round"/>
<path d="M84.7334 56.0076C83.8167 56.2901 83.0549 58.0524 83.3408 59.2929C83.417 59.8219 83.6277 60.3216 83.9524 60.7438C84.2767 61.1661 84.7042 61.496 85.1923 61.7018" stroke="#006B99" stroke-width="3.23435" stroke-linecap="round" stroke-linejoin="round"/>
<path d="M95.5553 56.0076C96.4724 56.2901 97.2342 58.0524 96.948 59.2929C96.8711 59.8211 96.6603 60.3201 96.3363 60.742C96.0124 61.1639 95.5857 61.4938 95.0983 61.6999" stroke="#006B99" stroke-width="3.23435" stroke-linecap="round" stroke-linejoin="round"/>
<path d="M34.5497 6.40161V41.1185" stroke="#006B99" stroke-width="3.23435" stroke-linecap="round" stroke-linejoin="round"/>
<path d="M36.4157 6.40161V41.7468" stroke="#006B99" stroke-width="3.23435" stroke-linecap="round" stroke-linejoin="round"/>
<path d="M13.7131 54.8794V56.4691L4.40988 56.0958L3.38702 56.0553C3.38702 56.0553 3.45581 48.7289 5.37059 45.4158C6.08651 44.3211 7.08716 43.4465 8.26273 42.889C9.98485 42.0341 11.8209 41.4361 13.7131 41.1147C16.454 42.78 19.6127 43.6089 22.8089 43.5021C27.9057 43.2256 29.7953 41.1147 29.7953 41.1147C31.3699 40.9364 32.9611 40.9839 34.5224 41.256C35.1599 41.3727 35.7811 41.5677 36.3721 41.8369C36.8225 42.0408 37.2374 42.3166 37.6009 42.6539C39.3733 44.5123 40.9279 46.5706 42.234 48.7886L41.2862 49.4544L37.2551 52.2855" stroke="#006B99" stroke-width="3.23435" stroke-linecap="round" stroke-linejoin="round"/>
<path d="M4.40985 56.0957V65.4003" stroke="#006B99" stroke-width="3.23435" stroke-linecap="round" stroke-linejoin="round"/>
<path d="M13.7135 56.4695L13.4398 65.4004" stroke="#006B99" stroke-width="3.23435" stroke-linecap="round" stroke-linejoin="round"/>
<path d="M35.8835 50.3252C35.8835 50.3252 36.5244 51.1297 37.2551 52.2856C38.2103 53.8022 39.3141 55.923 39.3167 57.6224C39.2964 59.086 38.9913 60.531 38.4185 61.8756C37.9148 63.1057 37.2403 64.2575 36.4157 65.2958" stroke="#006B99" stroke-width="3.23435" stroke-linecap="round" stroke-linejoin="round"/>
<path d="M28.8224 56.0957C28.8224 56.0957 29.0587 60.5495 27.4138 62.5503" stroke="#006B99" stroke-width="3.23435" stroke-linecap="round" stroke-linejoin="round"/>
<path d="M28.2289 28.8994C27.946 28.7752 27.645 28.6984 27.3381 28.6725C27.0489 28.6113 26.7493 28.6299 26.4702 28.7266" stroke="#006B99" stroke-width="3.23435" stroke-linecap="round" stroke-linejoin="round"/>
<path d="M21.6895 28.5768C22.0371 28.49 22.3902 28.427 22.7463 28.3881C23.0362 28.331 23.3361 28.354 23.6142 28.4544" stroke="#006B99" stroke-width="3.23435" stroke-linecap="round" stroke-linejoin="round"/>
<path d="M26.0645 27.6982C25.9447 27.9537 25.884 28.2332 25.8866 28.5157C25.8892 28.7982 25.9554 29.0762 26.0797 29.3294C26.2634 29.9515 26.8514 30.6139 26.7482 31.2015C26.6447 31.7895 25.5727 32.0241 24.9448 31.8514" stroke="#006B99" stroke-width="3.23435" stroke-linecap="round" stroke-linejoin="round"/>
<path d="M22.9801 37.6127C22.0367 37.3043 21.1426 36.8598 20.325 36.293" stroke="#006B99" stroke-width="3.23435" stroke-linecap="round" stroke-linejoin="round"/>
<path d="M28.9126 32.731C28.6364 33.3248 28.3442 33.7894 28.1693 34.2168C27.8713 35.244 27.4186 36.2187 26.8266 37.1062C26.651 37.3164 26.4398 37.4932 26.2028 37.6285C25.9801 37.756 25.7357 37.8398 25.482 37.8758C24.7854 37.9581 24.0798 37.908 23.4016 37.7282C23.2707 37.6967 23.1342 37.6626 23.0067 37.6222" stroke="#006B99" stroke-width="3.23435" stroke-linecap="round" stroke-linejoin="round"/>
<path d="M29.2732 27.7397C29.1922 27.9759 29.1208 28.1323 29.1208 28.1323C29.5039 28.9624 29.6463 29.8847 29.5317 30.793C29.4122 31.4647 29.2022 32.1168 28.9078 32.7311" stroke="#006B99" stroke-width="3.23435" stroke-linecap="round" stroke-linejoin="round"/>
<path d="M20.9059 27.4509C21.6895 26.9568 22.6099 26.7306 23.5307 26.8066C24.5376 26.9794 24.5938 27.3312 24.6001 27.3468" stroke="#006B99" stroke-width="3.23435" stroke-linecap="round" stroke-linejoin="round"/>
<path d="M28.9436 26.9072C28.6486 26.8782 28.3505 26.8964 28.0606 26.9602C27.6283 27.0432 27.203 27.1611 26.7892 27.3124" stroke="#006B99" stroke-width="3.23435" stroke-linecap="round" stroke-linejoin="round"/>
<path d="M27.6009 33.0366C27.5022 33.1078 27.3972 33.1701 27.2874 33.222C26.8566 33.404 26.3954 33.5015 25.9284 33.5082C24.9551 33.4659 23.9892 33.315 23.0484 33.0581C22.8462 33.0077 22.7064 32.968 22.6602 32.9573" stroke="#006B99" stroke-width="3.23435" stroke-linecap="round" stroke-linejoin="round"/>
<path d="M22.642 32.9541C22.642 32.9541 22.6945 32.9982 22.7792 33.0731C23.2241 33.4575 23.6937 33.8123 24.1844 34.1352C24.4477 34.3302 24.7517 34.4611 25.0734 34.5178C25.3948 34.5745 25.7246 34.5552 26.0378 34.4618C26.6236 34.0655 27.1502 33.5862 27.6017 33.039" stroke="#006B99" stroke-width="3.23435" stroke-linecap="round" stroke-linejoin="round"/>
<path d="M26.2357 37.6787L26.2949 38.7786L26.3041 38.9514L26.3607 40.025" stroke="#006B99" stroke-width="3.23435" stroke-linecap="round" stroke-linejoin="round"/>
<path d="M29.7953 41.1185L26.3596 40.0249" stroke="#006B99" stroke-width="3.23435" stroke-linecap="round" stroke-linejoin="round"/>
<path d="M18.1476 36.3091L18.0415 39.3119L13.7131 41.1184" stroke="#006B99" stroke-width="3.23435" stroke-linecap="round" stroke-linejoin="round"/>
<path d="M16.1511 29.0341C16.1511 29.0341 14.892 27.7396 14.1088 28.61C14.006 28.7272 13.9216 28.8595 13.8592 29.0026C12.9887 30.8874 14.8484 32.9571 16.265 33.4727" stroke="#006B99" stroke-width="3.23435" stroke-linecap="round" stroke-linejoin="round"/>
<path d="M14.1088 28.6101V28.6171" stroke="#006B99" stroke-width="3.23435" stroke-linecap="round" stroke-linejoin="round"/>
<path d="M18.9002 35.5834C19.0832 35.3154 19.1938 35.0036 19.2208 34.6788C19.2481 34.3545 19.1908 34.0282 19.0551 33.7328C18.9649 33.5267 18.8325 33.342 18.6664 33.1912C18.5004 33.0399 18.3048 32.9261 18.0925 32.8568C17.8799 32.7874 17.6554 32.7645 17.4336 32.7886C17.2117 32.813 16.9972 32.8846 16.8045 32.9984C16.5827 33.0977 16.3959 33.2634 16.2698 33.4725C16.14 33.6861 16.0594 33.9263 16.0335 34.1758C16.0073 34.4249 16.0372 34.6766 16.1201 34.9128C16.2362 35.3076 16.4862 35.6486 16.8264 35.8755C17.1662 36.1028 17.5748 36.2014 17.9797 36.1543C17.9923 36.1543 18.0045 36.1543 18.0171 36.1543C18.1961 36.128 18.3673 36.0635 18.5196 35.9652C18.672 35.8666 18.8018 35.7365 18.9002 35.5834Z" stroke="#006B99" stroke-width="3.23435" stroke-linecap="round" stroke-linejoin="round"/>
<path d="M27.6749 35.8977C28.0185 36.07 28.4056 36.1327 28.785 36.0778C29.8541 35.9425 30.4173 34.4574 29.9114 33.4387C29.7602 33.1147 29.522 32.8404 29.2232 32.6472" stroke="#006B99" stroke-width="3.23435" stroke-linecap="round" stroke-linejoin="round"/>
<path d="M22.7751 33.0705C22.7751 33.0705 22.8776 33.0642 23.0425 33.0579C23.727 33.0172 25.5053 32.9289 25.8189 32.9571C26.2083 32.9886 27.2811 33.227 27.2811 33.227" stroke="#006B99" stroke-width="3.23435" stroke-linecap="round" stroke-linejoin="round"/>
<path d="M22.98 37.6125L23.0111 37.6226C23.2847 37.726 25.343 38.4893 26.2786 38.7781" stroke="#006B99" stroke-width="3.23435" stroke-linecap="round" stroke-linejoin="round"/>
<path d="M20.9891 22.9459C20.9765 22.8358 20.9491 22.0662 22.8602 22.3806C24.2606 22.6879 25.5678 23.3289 26.6728 24.2501L26.682 24.259" stroke="#006B99" stroke-width="3.23435" stroke-linecap="round" stroke-linejoin="round"/>
<path d="M17.2305 20.2257C17.2305 20.2257 20.5513 20.0341 20.9898 22.9457C20.9913 22.9512 20.9913 22.9568 20.9898 22.962" stroke="#006B99" stroke-width="3.23435" stroke-linecap="round" stroke-linejoin="round"/>
<path d="M16.2266 29.0152C20.3253 30.5759 20.7879 24.7145 20.9902 22.9618C20.9902 22.9618 24.9995 23.4011 26.3004 24.0484C26.4254 24.1114 26.55 24.1807 26.6713 24.25C27.9438 25.0052 28.8842 26.2215 29.3017 27.6517C29.3017 27.6517 30.894 25.9998 28.8106 21.7106C28.0407 20.2418 26.8263 19.06 25.3441 18.3382C23.862 17.6168 22.1902 17.3929 20.5731 17.6998C20.4078 17.7362 20.2369 17.7781 20.0598 17.8248C18.5137 18.1777 17.0686 18.8839 15.8346 19.8889C13.3995 22.6623 13.5892 26.0232 13.4343 26.4821C11.9569 30.8829 6.64636 38.364 8.25976 42.8915" stroke="#006B99" stroke-width="3.23435" stroke-linecap="round" stroke-linejoin="round"/>
<path d="M59.6627 38.4826C60.2218 38.2679 60.7517 37.9817 61.2387 37.6311C61.3796 37.5217 61.4987 37.3864 61.59 37.2325C61.6447 37.1476 61.6795 37.0516 61.691 36.9512C61.7024 36.8507 61.691 36.7487 61.6569 36.6538C61.6229 36.5586 61.5671 36.4729 61.4946 36.4032C61.4221 36.3335 61.3345 36.2816 61.2387 36.2524C61.1011 36.2138 60.958 36.199 60.8157 36.2082C59.5003 36.4229 58.2297 36.8581 57.0564 37.4961C56.7624 37.6425 56.515 37.8702 56.3434 38.1523L53.6783 43.283L50.8065 49.4239" stroke="#006B99" stroke-width="3.23435" stroke-linecap="round" stroke-linejoin="round"/>
<path d="M58.5898 38.8915C58.5898 38.8915 58.8346 38.8096 59.183 38.6743C59.3265 38.6205 59.4877 38.5545 59.6589 38.4856" stroke="#006B99" stroke-width="3.23435" stroke-linecap="round" stroke-linejoin="round"/>
<path d="M41.2885 49.4583L45.4985 55.3289" stroke="#006B99" stroke-width="3.23435" stroke-linecap="round" stroke-linejoin="round"/>
<path d="M38.4192 61.8752L41.2891 65.2959" stroke="#006B99" stroke-width="3.23435" stroke-linecap="round" stroke-linejoin="round"/>
<path d="M57.6846 49.4241L59.0214 46.6815C59.7643 46.6604 60.4932 46.4713 61.1544 46.1288C61.8156 45.7863 62.3925 45.2984 62.8429 44.7012C64.7203 42.5525 65.1651 41.0537 64.3756 40.5047C63.5861 39.9556 61.9502 40.7056 61.4805 41.6038C61.0109 42.5021 61.3718 43.7273 63.6512 42.0061" stroke="#006B99" stroke-width="3.23435" stroke-linecap="round" stroke-linejoin="round"/>
<path d="M64.3764 40.503C64.3764 40.503 65.4118 39.554 65.0756 38.6127C64.7399 37.6711 62.9586 38.1256 61.8422 38.8018C61.3559 39.0995 60.9307 39.4887 60.5893 39.9484C60.0912 40.655 60.055 41.4057 61.4805 41.6" stroke="#006B99" stroke-width="3.23435" stroke-linecap="round" stroke-linejoin="round"/>
<path d="M65.0753 38.6142C65.0753 38.6142 65.2251 37.6604 63.9563 36.9338C63.1073 36.447 61.6921 37.2481 61.6921 37.2481" stroke="#006B99" stroke-width="3.23435" stroke-linecap="round" stroke-linejoin="round"/>
<path d="M59.663 38.4827C59.6194 38.552 58.9948 39.5136 60.0454 39.7772C60.1715 39.8098 60.3009 39.8295 60.431 39.8365" stroke="#006B99" stroke-width="3.23435" stroke-linecap="round" stroke-linejoin="round"/>
<path d="M64.3298 35.3038L68.1416 31.2326L70.1684 29.072L72.1291 26.9801C72.254 26.8444 72.3202 26.6638 72.3136 26.4785C72.3069 26.2928 72.2274 26.1178 72.0928 25.9914C71.9582 25.8653 71.7796 25.7982 71.5958 25.8049C71.4124 25.8116 71.239 25.892 71.114 26.0281L68.1738 29.2162L62.9993 34.8229" stroke="#006B99" stroke-width="3.23435" stroke-linecap="round" stroke-linejoin="round"/>
<path d="M59.2086 38.7429L54.7685 43.4866C54.7026 43.5589 54.6524 43.6445 54.6213 43.738C54.5906 43.8314 54.5795 43.9304 54.5891 44.0282C54.5987 44.1261 54.6291 44.221 54.6775 44.3063C54.7263 44.3919 54.7921 44.4657 54.8709 44.5235C54.99 44.6091 55.1323 44.6551 55.2784 44.6547C55.3734 44.6547 55.4677 44.6351 55.5546 44.5965C55.6419 44.5584 55.7203 44.502 55.7854 44.4316L59.9304 40.003" stroke="#006B99" stroke-width="3.23435" stroke-linecap="round" stroke-linejoin="round"/>
<path d="M63.9571 36.9339C63.9571 36.9339 64.6874 36.0138 64.1057 35.3354C64.0184 35.2382 63.9179 35.1548 63.8073 35.0866C63.5636 34.9313 63.284 34.8427 62.9963 34.8293C62.5478 34.856 62.1133 34.9962 61.7324 35.2364C61.3515 35.477 61.0364 35.8103 60.816 36.2054" stroke="#006B99" stroke-width="3.23435" stroke-linecap="round" stroke-linejoin="round"/>
</svg>
