<svg width="186" height="171" viewBox="0 0 186 171" fill="none" xmlns="http://www.w3.org/2000/svg">
<path d="M80.2871 107.181C80.1791 106.697 80.182 106.195 80.2967 105.713C81.1893 101.752 81.0544 95.9079 81.9459 91.156C82.8379 86.4042 85.777 86.9387 89.0267 85.8003C91.1012 85.0703 93.0426 83.9489 95.2521 82.9198C96.5686 82.2896 97.9309 81.7613 99.3276 81.3395C103.465 80.1179 113.851 84.508 118.881 85.3154C120.07 85.5048 121.241 85.7906 122.384 86.1699L122.407 86.1006C122.407 86.1006 145.347 70.337 151.344 66.02C157.342 61.703 169.654 52.9377 169.654 52.9377L183.676 85.3143C183.676 85.3143 156.145 103.557 152.07 107.154C147.996 110.751 139.035 115.322 139.035 115.322L138.963 115.305C138.416 117.816 136.596 120.682 131.579 123.522L131.277 123.627C130.447 121.712 129.397 119.901 128.148 118.229C123.145 109.002 102.739 95.3296 100.975 95.6235C99.2108 95.9175 94.3384 96.5607 94.3384 96.5607C93.9804 97.6399 92.4824 98.2438 92.4824 98.2438H92.3541C92.3785 101.508 91.2599 104.678 89.1935 107.2C85.9293 111.329 80.9586 110.157 80.2871 107.181Z" fill="#FFCEB6"/>
<path d="M137.045 25.9628C137.366 27.4349 137.49 28.943 137.414 30.4477C137.398 30.7113 137.327 30.9682 137.206 31.2025C137.085 31.4364 136.916 31.6425 136.71 31.8068C136.504 31.971 136.266 32.09 136.011 32.156C135.756 32.222 135.491 32.2335 135.231 32.1894L128.414 31.0613C127.996 30.9942 127.613 30.7866 127.329 30.4726C127.045 30.1582 126.876 29.7563 126.85 29.333C126.823 28.2082 126.418 27.1257 125.7 26.2605C125.407 25.9191 125.079 25.6106 124.72 25.3396L122.758 37.2563L125.56 38.9557C129.414 41.2334 131.89 43.8755 132.989 46.8827C134.088 49.8866 134.379 53.1274 133.834 56.28C133.488 58.4995 132.703 60.6274 131.522 62.5373C130.398 64.3564 128.947 65.9516 127.243 67.2421C125.519 68.5359 123.549 69.4623 121.454 69.9639C120.094 70.2983 118.696 70.4525 117.296 70.4228L116.357 76.1293C116.305 76.4451 116.192 76.748 116.023 77.0201C115.854 77.2922 115.633 77.528 115.373 77.7148C115.114 77.9013 114.82 78.0347 114.508 78.1074C114.197 78.1801 113.875 78.1905 113.56 78.1382C113.244 78.0859 112.942 77.9721 112.671 77.8027C112.399 77.6336 112.164 77.4123 111.978 77.1517C111.792 76.8915 111.659 76.5967 111.586 76.2846C111.513 75.9725 111.503 75.6492 111.555 75.3333L112.483 69.697C109.135 68.805 106.174 66.8276 104.063 64.0736C103.035 62.7724 102.229 61.3095 101.68 59.744C101.511 59.2783 101.36 58.8001 101.229 58.3037C100.885 57.0125 100.701 55.6835 100.682 54.3471C100.672 53.913 100.758 53.4818 100.933 53.0844C101.108 52.6874 101.368 52.3337 101.695 52.0486C102.022 51.7636 102.407 51.5541 102.824 51.4351C103.24 51.3165 103.678 51.2909 104.106 51.361L106.986 51.841L109.03 52.178C109.635 52.2803 110.193 52.5695 110.627 53.0047C111.061 53.4403 111.349 54.0005 111.45 54.6073C111.593 55.4474 111.836 56.267 112.174 57.0489C112.576 57.9723 113.307 58.7126 114.224 59.1249L116.437 45.6827L113.992 44.2903C110.959 42.6328 108.456 40.1494 106.77 37.1266C105.184 34.0893 104.679 30.6008 105.338 27.237C105.685 25.0127 106.489 22.8855 107.701 20.9904C108.855 19.1854 110.36 17.6321 112.126 16.4228C113.812 15.2128 115.733 14.3709 117.764 13.9512C119.063 13.6795 120.389 13.5634 121.715 13.6046L122.541 8.58583C122.646 7.94746 123 7.37693 123.525 6.99991C123.784 6.81344 124.078 6.67998 124.39 6.60695C124.701 6.53429 125.023 6.52354 125.339 6.57581C125.654 6.62808 125.956 6.74226 126.228 6.91131C126.499 7.08035 126.735 7.30167 126.921 7.56229C127.107 7.82253 127.24 8.11725 127.313 8.42939C127.386 8.74153 127.396 9.0648 127.344 9.38102L126.521 14.3872C127.839 14.7831 129.098 15.351 130.267 16.0773C132.004 17.146 133.495 18.5722 134.642 20.2616C135.8 21.9906 136.615 23.9257 137.045 25.9628ZM123.394 54.7753C123.661 53.3836 123.468 51.9422 122.844 50.6707C122.365 49.798 121.706 49.0373 120.912 48.4393L119.076 59.5868C119.67 59.4188 120.241 59.1749 120.774 58.8606C121.495 58.4283 122.107 57.8348 122.562 57.126C123.016 56.4172 123.301 55.6127 123.394 54.7753ZM118.275 34.4967L119.97 24.2037C119.168 24.3428 118.418 24.6975 117.801 25.2303C116.702 26.1485 115.976 27.4371 115.757 28.854C115.591 29.8976 115.682 30.966 116.023 31.9658C116.493 33.0235 117.28 33.9084 118.275 34.4967Z" fill="#CCEFF6"/>
<path d="M80.2871 107.181C80.9575 110.157 85.9294 111.326 89.1887 107.201C91.2551 104.678 92.3734 101.509 92.3493 98.2444H92.4776C92.4776 98.2444 93.9753 97.6405 94.3336 96.5614C94.3336 96.5614 99.2019 95.9182 100.97 95.6242C102.738 95.3306 123.14 109.003 128.144 118.23C129.392 119.902 130.442 121.713 131.272 123.628C131.815 125.035 132.022 126.374 131.368 127.15C129.112 129.838 126.354 129.047 124.418 126.813C124.322 126.704 124.226 126.588 124.131 126.47C122.184 123.978 117.19 117.896 117.19 117.896L113.023 115.304C113.995 116.216 114.908 117.189 115.756 118.218C116.872 119.742 121.26 124.234 123.231 127.313C123.738 127.98 124.071 128.762 124.199 129.59C124.158 130.195 123.973 130.782 123.661 131.301C123.348 131.821 122.916 132.258 122.402 132.577C121.886 132.896 121.303 133.088 120.7 133.136C120.097 133.184 119.491 133.088 118.932 132.854C118.862 132.826 118.796 132.79 118.734 132.748C117.065 131.713 108.852 124.327 107.578 123.123C107.323 122.648 106.972 122.232 106.548 121.902C106.291 121.695 106.018 121.509 105.731 121.348L105.718 121.337C103.559 120.106 101.195 120.569 99.1539 122.169C96.9022 123.941 97.8899 122.894 96.9159 123.911C96.8323 123.112 96.4914 122.361 95.9444 121.773C93.9265 119.502 91.1911 119.39 88.6166 120.78C86.6298 121.924 84.7128 123.187 82.876 124.562L75.3833 125.28L75.3182 125.268C75.5016 123.931 75.2124 122.573 74.5013 121.428C72.8731 118.966 70.4299 119.219 69.1427 119.296C68.9315 119.31 68.7226 119.347 68.52 119.408L68.5037 119.296C67.5064 118.804 66.5397 118.25 65.6104 117.639C64.392 116.876 63.0696 115.999 62.012 115.286C60.8475 114.501 60.0114 113.92 60.0114 113.92C60.0898 104.399 60.7813 94.892 62.0811 85.4599L63.7707 86.1168C66.5086 87.1826 71.6835 89.1893 72.3454 89.4236C72.662 89.5908 73.0148 89.6783 73.3727 89.6783C73.7307 89.6783 74.0831 89.5908 74.3996 89.4236C75.3374 89.0673 86.365 83.246 88.5937 82.7151C90.8225 82.1839 95.2463 82.9157 95.2463 82.9157C93.0338 83.9488 91.0924 85.0703 89.0208 85.7961C85.7752 86.935 82.829 86.3963 81.9401 91.1519C81.0514 95.9074 81.1835 101.748 80.2908 105.709C80.1776 106.193 80.1761 106.696 80.2871 107.181Z" fill="#FFCEB6"/>
<path d="M124.141 126.469C124.237 126.587 124.333 126.704 124.429 126.812C124.429 126.812 123.27 127.35 123.247 127.314C121.276 124.235 116.887 119.743 115.772 118.219C114.924 117.19 114.011 116.216 113.039 115.304L117.206 117.897C117.206 117.897 122.195 123.978 124.141 126.469Z" fill="#FFCEB6"/>
<path d="M118.745 132.748L118.518 133.082C118.433 133.53 118.245 133.952 117.968 134.314C117.692 134.676 117.335 134.969 116.925 135.168C116.344 135.534 115.694 135.775 115.015 135.876C114.336 135.977 113.643 135.936 112.981 135.755C112.388 135.466 111.815 135.137 111.267 134.769L110.391 134.673C110.833 134.262 111.225 133.8 111.556 133.296C112.801 131.191 112.758 129.887 111.385 128.792C110.869 128.302 110.234 127.957 109.543 127.791C108.852 127.625 108.13 127.644 107.448 127.845L107.303 127.756C107.377 127.633 107.441 127.505 107.494 127.372C107.822 126.715 108.001 125.994 108.017 125.26C108.034 124.527 107.888 123.798 107.59 123.128C108.864 124.327 117.073 131.713 118.745 132.748Z" fill="#FFCEB6"/>
<path d="M112.981 135.755C111.816 137.203 110.222 138.243 108.429 138.726C108.051 138.862 107.649 138.914 107.249 138.879C106.85 138.844 106.463 138.722 106.115 138.521L105.667 138.515C107.322 137.338 108.9 136.055 110.39 134.674L111.267 134.77C111.815 135.138 112.388 135.467 112.981 135.755Z" fill="#FFCEB6"/>
<path d="M111.385 128.784C112.758 129.879 112.797 131.184 111.556 133.288C111.225 133.793 110.833 134.255 110.391 134.665C108.9 136.045 107.322 137.329 105.667 138.506C105.117 138.905 104.766 139.149 104.766 139.149C99.3465 142.341 96.9436 143.049 95.0051 142.135C94.4046 141.895 93.8658 141.521 93.4298 141.042C92.9938 140.563 92.6714 139.991 92.4872 139.37L92.3914 139.152C94.5665 138.196 96.6743 137.093 98.699 135.849C98.699 135.849 105.786 130.321 107.3 127.744L107.445 127.833C108.128 127.632 108.85 127.614 109.542 127.781C110.233 127.948 110.869 128.293 111.385 128.784Z" fill="#FFCEB6"/>
<path d="M107.591 123.119C107.889 123.79 108.035 124.518 108.018 125.252C108.002 125.986 107.823 126.707 107.495 127.363C107.442 127.496 107.378 127.624 107.304 127.747C105.789 130.324 98.7031 135.852 98.7031 135.852C96.6781 137.096 94.5703 138.199 92.3952 139.155C87.8937 141.033 86.8457 139.923 85.229 139.161C83.6888 138.346 82.5317 136.953 82.0099 135.287V135.241C83.3486 135.141 84.6554 134.782 85.8584 134.185C85.8584 134.185 94.6409 129.48 95.9607 127.311C96.6482 126.314 96.9891 125.117 96.9321 123.906C97.9062 122.889 96.9185 123.935 99.1701 122.163C101.211 120.562 103.576 120.101 105.735 121.331L105.747 121.342C106.035 121.504 106.307 121.689 106.564 121.896C106.988 122.228 107.338 122.644 107.591 123.119Z" fill="#FFCEB6"/>
<path d="M82.8808 124.559C84.7201 123.186 86.639 121.923 88.6273 120.777C91.2018 119.388 93.9372 119.5 95.9551 121.771C96.5017 122.359 96.8426 123.11 96.9262 123.909C96.9835 125.121 96.6426 126.317 95.9551 127.315C94.6353 129.483 85.8528 134.189 85.8528 134.189C84.6499 134.786 83.343 135.145 82.0044 135.245C79.4595 135.33 76.919 134.972 74.4958 134.189C71.8532 133.502 70.5919 128.546 70.5919 128.546C71.6036 128.381 72.5887 128.081 73.5217 127.655C73.9984 127.441 74.4137 127.109 74.7291 126.692C75.0441 126.275 75.2498 125.784 75.3259 125.266L75.391 125.278L82.8808 124.559Z" fill="#FFCEB6"/>
<path d="M94.0307 4.09644L94.6523 7.1134L57.6103 14.7657L67.6531 63.6299L64.6411 64.2501L64.0195 61.2306L53.9793 12.3702L91.0187 4.71783L94.0307 4.09644Z" fill="#CCEFF6"/>
<path d="M91.0188 4.71731L53.9794 12.37L64.0196 61.2304L61.0076 61.8544L50.3447 9.97036L90.4001 1.69775L91.0188 4.71731Z" fill="#006B99"/>
<path d="M68.5284 119.407C68.7311 119.346 68.94 119.309 69.1511 119.295C70.4384 119.222 72.8768 118.964 74.5098 121.426C75.2209 122.571 75.5101 123.93 75.3267 125.267C75.2505 125.785 75.0449 126.275 74.7298 126.693C74.4144 127.111 73.9991 127.442 73.5224 127.656C72.5895 128.082 71.6043 128.381 70.5926 128.547C68.3446 128.926 66.0068 128.722 64.9799 127.708C63.2559 126.002 61.4018 122.082 65.4281 117.941L65.6196 117.636C66.5493 118.248 67.5156 118.802 68.5132 119.294L68.5284 119.407Z" fill="#FFCEB6"/>
<path d="M63.2027 83.8028L63.1661 83.8328C63.1306 83.785 63.0851 83.7457 63.0326 83.7176C62.9801 83.6898 62.922 83.6738 62.8625 83.6709C62.8029 83.6679 62.7438 83.6783 62.6887 83.7013C62.6339 83.7242 62.5848 83.7587 62.5448 83.8028C62.2919 84.3218 62.1373 84.8835 62.0896 85.4592C60.7902 94.8913 60.0986 104.398 60.0199 113.919C60.062 116.113 60.2366 117.559 60.589 117.754C60.8086 117.906 61.0797 117.965 61.3426 117.918L61.3559 117.961C60.3753 118.615 57.7579 118.945 57.046 116.87C56.8704 115.187 56.8574 113.492 57.0068 111.807C57.3459 103.645 58.6724 88.2829 59.4012 84.0738C59.4404 83.7076 59.531 83.3483 59.6715 83.008C60.4577 81.9748 63.1106 82.5691 63.2027 83.8028Z" fill="#CCEFF6"/>
<path d="M59.2241 84.0407L59.4053 84.0744C58.6746 88.2887 57.3478 103.65 57.0109 111.808H56.9151C56.9151 111.808 51.2403 109.254 48.3567 108.91C44.1758 108.415 1.7019 88.6409 1.7019 88.6409L17.9535 56.908L56.5827 82.7235L59.2241 84.0407Z" fill="#FFCEB6"/>
<path d="M169.65 52.9377L183.673 85.3143" stroke="#FFCEB6" stroke-width="3.39567" stroke-linecap="round" stroke-linejoin="round"/>
<path d="M1.69824 88.6372L17.9532 56.908" stroke="#FFCEB6" stroke-width="3.39567" stroke-linecap="round" stroke-linejoin="round"/>
<path d="M136.162 157.054C126.006 163.778 114.269 167.716 102.121 168.475C89.9738 169.234 77.8399 166.787 66.9295 161.38C56.0192 155.972 46.7134 147.791 39.9399 137.654C33.1664 127.516 29.162 115.776 28.3259 103.603" stroke="#006B99" stroke-width="3.39567" stroke-linecap="round" stroke-linejoin="round"/>
<path d="M167.355 100.923C167.067 110.883 164.65 120.665 160.268 129.608C155.885 138.551 149.64 146.448 141.952 152.764" stroke="#006B99" stroke-width="3.39567" stroke-linecap="round" stroke-linejoin="round"/>
<path d="M128.394 145.936C120.813 150.956 112.119 154.034 103.075 154.9C94.0311 155.767 84.9132 154.395 76.5211 150.906C68.1294 147.416 60.7199 141.916 54.9427 134.886C49.1654 127.857 45.1968 119.514 43.3856 110.589" stroke="#006B99" stroke-width="3.39567" stroke-linecap="round" stroke-linejoin="round"/>
<path d="M152.332 109.869C149.91 122.685 143.071 134.241 133.012 142.514" stroke="#006B99" stroke-width="3.39567" stroke-linecap="round" stroke-linejoin="round"/>
<path d="M135.105 58.5273C138.391 61.5001 141.312 64.8544 143.806 68.52" stroke="#006B99" stroke-width="3.39567" stroke-linecap="round" stroke-linejoin="round"/>
<path d="M48.2021 74.7707C50.7629 69.6141 54.1043 64.8856 58.1073 60.7524" stroke="#006B99" stroke-width="3.39567" stroke-linecap="round" stroke-linejoin="round"/>
<path d="M131.827 37.9456C140.588 42.8868 148.185 49.6613 154.1 57.8085" stroke="#006B99" stroke-width="3.39567" stroke-linecap="round" stroke-linejoin="round"/>
<path d="M36.2534 66.1514C40.706 57.7521 46.8179 50.3489 54.216 44.3933" stroke="#006B99" stroke-width="3.39567" stroke-linecap="round" stroke-linejoin="round"/>
<path d="M122.41 86.0998C122.41 86.0998 145.35 70.3358 151.347 66.0189C157.345 61.7022 169.654 52.9377 169.654 52.9377" stroke="#006B99" stroke-width="3.39567" stroke-linecap="round" stroke-linejoin="round"/>
<path d="M139.034 115.322C139.034 115.322 147.993 110.748 152.069 107.154C156.144 103.56 183.675 85.3142 183.675 85.3142" stroke="#006B99" stroke-width="3.39567" stroke-linecap="round" stroke-linejoin="round"/>
<path d="M1.69824 88.637C1.69824 88.637 44.1729 108.416 48.3534 108.906C51.2374 109.25 56.9122 111.804 56.9122 111.804" stroke="#006B99" stroke-width="3.39567" stroke-linecap="round" stroke-linejoin="round"/>
<path d="M59.226 84.04L56.5827 82.7235L17.9532 56.908" stroke="#006B99" stroke-width="3.39567" stroke-linecap="round" stroke-linejoin="round"/>
<path d="M63.8118 86.0303C63.7552 85.2599 63.5352 84.5107 63.1662 83.8327C63.1307 83.7848 63.0848 83.7455 63.0323 83.7174C62.9798 83.6896 62.9217 83.6736 62.8626 83.6707C62.803 83.6677 62.7438 83.6781 62.6887 83.7011C62.6336 83.7237 62.5845 83.7585 62.5445 83.8026C62.2916 84.3216 62.1374 84.8833 62.0897 85.459C60.7899 94.8911 60.0987 104.397 60.02 113.919C60.0621 116.113 60.2363 117.559 60.5887 117.754C60.8087 117.906 61.0794 117.965 61.3427 117.918C62.2047 117.694 61.9259 115.566 61.9259 115.566" stroke="#006B99" stroke-width="3.39567" stroke-linecap="round" stroke-linejoin="round"/>
<path d="M63.2027 83.8027C63.1069 82.569 60.4577 81.9785 59.6771 83.0076C59.5369 83.3483 59.4459 83.7071 59.4071 84.0734C58.676 88.2877 57.3496 103.649 57.0127 111.807C56.8629 113.492 56.8763 115.187 57.0519 116.87C57.7597 118.944 60.3771 118.615 61.3618 117.961" stroke="#006B99" stroke-width="3.39567" stroke-linecap="round" stroke-linejoin="round"/>
<path d="M62.0897 85.4591L63.7792 86.1157C66.5175 87.1815 71.6924 89.1881 72.354 89.4224C72.6709 89.59 73.0233 89.6771 73.3813 89.6771C73.7392 89.6771 74.092 89.59 74.4085 89.4224C75.3459 89.0662 86.3739 83.2448 88.6026 82.714C90.8313 82.1831 95.2552 82.9145 95.2552 82.9145" stroke="#006B99" stroke-width="3.39567" stroke-linecap="round" stroke-linejoin="round"/>
<path d="M60.02 113.919C60.02 113.919 60.8561 114.5 62.0205 115.285C63.0741 115.998 64.4009 116.875 65.619 117.638C66.5486 118.249 67.5149 118.803 68.5122 119.295" stroke="#006B99" stroke-width="3.39567" stroke-linecap="round" stroke-linejoin="round"/>
<path d="M138.704 109.028C138.704 110.421 139.536 112.665 138.96 115.304C138.414 117.816 136.594 120.681 131.577 123.522" stroke="#006B99" stroke-width="3.39567" stroke-linecap="round" stroke-linejoin="round"/>
<path d="M126.916 88.3336C125.517 87.3983 123.992 86.6691 122.386 86.1686C121.244 85.7894 120.073 85.5035 118.884 85.3141C113.854 84.5085 103.464 80.1166 99.3302 81.3378C97.9339 81.7597 96.5712 82.2883 95.2551 82.9182C93.0426 83.9513 91.1012 85.0728 89.0297 85.7986C85.7836 86.9375 82.8379 86.3988 81.9489 91.1547C81.0603 95.9103 81.1923 101.751 80.2996 105.712C80.185 106.194 80.1817 106.696 80.29 107.18C80.9604 110.156 85.9323 111.325 89.1916 107.2C91.258 104.677 92.3763 101.508 92.3522 98.2432C92.3456 97.3227 92.2417 96.4056 92.0427 95.5069" stroke="#006B99" stroke-width="3.39567" stroke-linecap="round" stroke-linejoin="round"/>
<path d="M92.4803 98.2435C92.4803 98.2435 93.9783 97.6396 94.3363 96.5601C94.3363 96.5601 99.2046 95.9169 100.973 95.6233C102.741 95.3293 123.143 109.002 128.146 118.229" stroke="#006B99" stroke-width="3.39567" stroke-linecap="round" stroke-linejoin="round"/>
<path d="M128.147 118.229C129.395 119.9 130.445 121.712 131.275 123.627C131.818 125.034 132.025 126.373 131.37 127.149C129.115 129.838 126.356 129.046 124.421 126.812C124.325 126.704 124.229 126.587 124.134 126.469C122.187 123.978 117.194 117.895 117.194 117.895L113.027 115.302" stroke="#006B99" stroke-width="3.39567" stroke-linecap="round" stroke-linejoin="round"/>
<path d="M105.742 106.448C105.828 107.337 106.05 108.207 106.401 109.028C106.674 109.345 110.315 112.635 113.034 115.304C114.006 116.216 114.919 117.19 115.766 118.219C116.882 119.743 121.271 124.235 123.242 127.314C123.748 127.98 124.081 128.763 124.21 129.591C124.168 130.196 123.984 130.783 123.671 131.302C123.358 131.822 122.927 132.259 122.412 132.578C121.897 132.897 121.314 133.089 120.711 133.137C120.107 133.185 119.501 133.088 118.942 132.855C118.873 132.826 118.806 132.791 118.744 132.75C117.075 131.713 108.863 124.328 107.588 123.124L107.582 123.117" stroke="#006B99" stroke-width="3.39567" stroke-linecap="round" stroke-linejoin="round"/>
<path d="M118.518 133.082C118.433 133.53 118.245 133.952 117.968 134.314C117.692 134.676 117.334 134.969 116.925 135.168C116.344 135.534 115.694 135.775 115.015 135.876C114.336 135.977 113.643 135.936 112.981 135.755C112.388 135.466 111.815 135.137 111.267 134.769" stroke="#006B99" stroke-width="3.39567" stroke-linecap="round" stroke-linejoin="round"/>
<path d="M112.981 135.755C111.816 137.203 110.222 138.243 108.429 138.726C108.052 138.862 107.649 138.914 107.25 138.879C106.85 138.843 106.463 138.721 106.115 138.521" stroke="#006B99" stroke-width="3.39567" stroke-linecap="round" stroke-linejoin="round"/>
<path d="M100.973 95.6234C100.973 95.6234 102.461 94.1446 102.461 93.3035" stroke="#006B99" stroke-width="3.39567" stroke-linecap="round" stroke-linejoin="round"/>
<path d="M94.3366 96.5602C94.4686 95.8669 94.4686 95.1548 94.3366 94.4612" stroke="#006B99" stroke-width="3.39567" stroke-linecap="round" stroke-linejoin="round"/>
<path d="M80.2116 106.873C80.2109 106.981 80.2371 107.088 80.2871 107.183C80.8828 108.391 85.0607 108.002 86.4005 105.989C87.8449 103.814 86.0806 100.923 86.0806 100.923" stroke="#006B99" stroke-width="3.39567" stroke-linecap="round" stroke-linejoin="round"/>
<path d="M81.1003 100.138C81.1003 100.138 82.1727 100.055 83.5905 99.8899" stroke="#006B99" stroke-width="3.39567" stroke-linecap="round" stroke-linejoin="round"/>
<path d="M127.67 127.314C128.65 127.024 129.55 126.511 130.3 125.815" stroke="#006B99" stroke-width="3.39567" stroke-linecap="round" stroke-linejoin="round"/>
<path d="M124.424 126.812C124.424 126.812 123.265 127.35 123.242 127.314" stroke="#006B99" stroke-width="3.39567" stroke-linecap="round" stroke-linejoin="round"/>
<path d="M66.2442 120.623C66.9357 120.099 67.7071 119.69 68.5284 119.412C68.7311 119.351 68.94 119.314 69.1511 119.3C70.4384 119.227 72.8768 118.969 74.5098 121.431C75.2209 122.576 75.5101 123.935 75.3267 125.272C75.2505 125.79 75.0449 126.28 74.7298 126.698C74.4144 127.115 73.9991 127.447 73.5224 127.661C72.5895 128.087 71.6043 128.386 70.5926 128.552C68.3446 128.931 66.0068 128.727 64.9799 127.713C63.2559 126.007 61.4018 122.087 65.4281 117.946" stroke="#006B99" stroke-width="3.39567" stroke-linecap="round" stroke-linejoin="round"/>
<path d="M82.8807 124.56C82.1205 125.115 81.4881 125.586 81.0965 125.877" stroke="#006B99" stroke-width="3.39567" stroke-linecap="round" stroke-linejoin="round"/>
<path d="M70.593 128.548C70.593 128.548 71.8543 133.504 74.4965 134.191C76.9201 134.974 79.4606 135.332 82.0055 135.247C83.3441 135.147 84.651 134.788 85.8539 134.191C85.8539 134.191 94.6364 129.486 95.9562 127.317C96.6433 126.319 96.9846 125.122 96.9273 123.911C96.8437 123.112 96.5028 122.361 95.9562 121.773C93.9383 119.502 91.2029 119.39 88.6284 120.779C86.6415 121.924 84.7245 123.187 82.8874 124.561" stroke="#006B99" stroke-width="3.39567" stroke-linecap="round" stroke-linejoin="round"/>
<path d="M82.8878 124.561H82.8849L75.3922 125.28" stroke="#006B99" stroke-width="3.39567" stroke-linecap="round" stroke-linejoin="round"/>
<path d="M88.8063 124.166C88.1824 124.905 87.843 125.844 87.8485 126.812C87.8951 127.22 88.0408 127.61 88.2727 127.947C88.5045 128.285 88.8159 128.561 89.179 128.75C89.5422 128.939 89.946 129.036 90.3553 129.032C90.7643 129.028 91.1663 128.923 91.5254 128.727C93.2275 127.783 95.9532 125.872 95.2033 124.166" stroke="#006B99" stroke-width="3.39567" stroke-linecap="round" stroke-linejoin="round"/>
<path d="M89.9749 123.119C90.5699 122.59 91.2951 122.231 92.0753 122.079C92.6241 122.056 93.1614 122.241 93.58 122.598" stroke="#006B99" stroke-width="3.39567" stroke-linecap="round" stroke-linejoin="round"/>
<path d="M105.73 121.337C103.57 120.106 101.207 120.569 99.1657 122.169C96.914 123.941 97.9013 122.894 96.9273 123.911C96.9073 123.932 96.8881 123.955 96.8652 123.978" stroke="#006B99" stroke-width="3.39567" stroke-linecap="round" stroke-linejoin="round"/>
<path d="M82.0096 135.293C82.531 136.959 83.6881 138.352 85.2286 139.167C86.845 139.93 87.8978 141.038 92.3944 139.16C94.5699 138.205 96.6774 137.102 98.7023 135.858C98.7023 135.858 105.79 130.33 107.303 127.753C107.377 127.63 107.441 127.502 107.495 127.369C107.823 126.712 108.001 125.991 108.018 125.258C108.034 124.524 107.888 123.795 107.59 123.125C107.336 122.65 106.985 122.234 106.561 121.903C106.304 121.697 106.031 121.511 105.744 121.35" stroke="#006B99" stroke-width="3.39567" stroke-linecap="round" stroke-linejoin="round"/>
<path d="M99.9126 125.475C99.426 126.312 99.2522 127.294 99.4223 128.247C99.5373 128.641 99.747 129 100.033 129.293C100.319 129.587 100.672 129.805 101.062 129.929C101.451 130.054 101.865 130.08 102.268 130.007C102.67 129.934 103.048 129.762 103.369 129.508C104.89 128.288 107.25 125.941 106.223 124.386" stroke="#006B99" stroke-width="3.39567" stroke-linecap="round" stroke-linejoin="round"/>
<path d="M100.887 124.242C101.383 123.62 102.036 123.144 102.779 122.862C103.317 122.745 103.879 122.836 104.353 123.117" stroke="#006B99" stroke-width="3.39567" stroke-linecap="round" stroke-linejoin="round"/>
<path d="M92.4869 139.378C92.6714 140 92.9935 140.572 93.4295 141.051C93.8658 141.529 94.4043 141.903 95.0048 142.143C96.9436 143.058 99.3465 142.348 104.765 139.157C104.765 139.157 105.117 138.914 105.667 138.514C107.322 137.337 108.9 136.054 110.39 134.673C110.833 134.263 111.224 133.801 111.556 133.297C112.801 131.192 112.758 129.888 111.385 128.792C110.868 128.303 110.233 127.958 109.542 127.792C108.852 127.626 108.129 127.644 107.448 127.846" stroke="#006B99" stroke-width="3.39567" stroke-linecap="round" stroke-linejoin="round"/>
<path d="M105.973 131.049C105.597 131.695 105.463 132.455 105.595 133.191C105.684 133.496 105.846 133.774 106.067 134.002C106.287 134.229 106.561 134.398 106.863 134.495C107.165 134.591 107.485 134.612 107.797 134.555C108.108 134.498 108.401 134.365 108.649 134.168C109.825 133.224 111.652 131.409 110.852 130.204" stroke="#006B99" stroke-width="3.39567" stroke-linecap="round" stroke-linejoin="round"/>
<path d="M106.729 130.093C107.114 129.611 107.621 129.243 108.198 129.026C108.613 128.935 109.047 129.006 109.412 129.225" stroke="#006B99" stroke-width="3.39567" stroke-linecap="round" stroke-linejoin="round"/>
<path d="M102.461 117.156L103.564 119.265L105.73 121.337L105.742 121.348" stroke="#006B99" stroke-width="3.39567" stroke-linecap="round" stroke-linejoin="round"/>
<path d="M73.5225 127.657C72.5662 127.217 71.6939 126.613 70.9454 125.872C70.4366 125.208 70.0842 124.437 69.9148 123.618C69.8789 123.432 69.7954 123.26 69.6726 123.116C69.5498 122.973 69.3923 122.864 69.2148 122.801C69.0377 122.738 68.8468 122.721 68.6616 122.754C68.4759 122.787 68.3021 122.867 68.1572 122.988C67.6964 123.329 67.3736 123.826 67.2482 124.387C67.1033 125.03 67.178 125.704 67.4612 126.301C67.7441 126.897 68.2186 127.38 68.8084 127.673" stroke="#006B99" stroke-width="3.39567" stroke-linecap="round" stroke-linejoin="round"/>
<path d="M101.655 59.7517L68.2722 66.6455L67.6532 63.6297L57.6104 14.7656L94.6525 7.11288L97.6618 6.49268L106.984 51.835" stroke="#006B99" stroke-width="3.39567" stroke-linecap="round" stroke-linejoin="round"/>
<path d="M67.6531 63.6299L64.6411 64.2501L64.0195 61.2306L53.9793 12.3702L91.0187 4.71783L94.0307 4.09644L94.6523 7.1134V7.116" stroke="#006B99" stroke-width="3.39567" stroke-linecap="round" stroke-linejoin="round"/>
<path d="M64.0196 61.2304L61.0076 61.8544L50.3447 9.97036L90.4001 1.69775L91.0188 4.71731" stroke="#006B99" stroke-width="3.39567" stroke-linecap="round" stroke-linejoin="round"/>
<path d="M65.4014 20.3527L92.7102 14.7126" stroke="#006B99" stroke-width="3.39567" stroke-linecap="round" stroke-linejoin="round"/>
<path d="M68.1468 26.0818L95.4563 20.438" stroke="#006B99" stroke-width="3.39567" stroke-linecap="round" stroke-linejoin="round"/>
<path d="M65.7573 29.7218L96.078 23.4578" stroke="#006B99" stroke-width="3.39567" stroke-linecap="round" stroke-linejoin="round"/>
<path d="M66.3759 32.7407L96.6966 26.4778" stroke="#006B99" stroke-width="3.39567" stroke-linecap="round" stroke-linejoin="round"/>
<path d="M66.9982 35.7604L88.2834 31.3618" stroke="#006B99" stroke-width="3.39567" stroke-linecap="round" stroke-linejoin="round"/>
<path d="M70.6292 38.1572L97.938 32.5171" stroke="#006B99" stroke-width="3.39567" stroke-linecap="round" stroke-linejoin="round"/>
<path d="M68.2397 41.7968L98.5604 35.5369" stroke="#006B99" stroke-width="3.39567" stroke-linecap="round" stroke-linejoin="round"/>
<path d="M68.8583 44.8156L99.179 38.5527" stroke="#006B99" stroke-width="3.39567" stroke-linecap="round" stroke-linejoin="round"/>
<path d="M72.4893 47.2149L99.8018 41.5723" stroke="#006B99" stroke-width="3.39567" stroke-linecap="round" stroke-linejoin="round"/>
<path d="M70.0993 50.8549L100.42 44.592" stroke="#006B99" stroke-width="3.39567" stroke-linecap="round" stroke-linejoin="round"/>
<path d="M70.721 53.8748L101.042 47.6116" stroke="#006B99" stroke-width="3.39567" stroke-linecap="round" stroke-linejoin="round"/>
<path d="M80.4022 59.7422L83.494 59.1057L87.1668 58.3461L94.7974 56.7687L96.2466 56.468L98.6791 55.9668" stroke="#006B99" stroke-width="3.39567" stroke-linecap="round" stroke-linejoin="round"/>
<path d="M89.3935 55.0855C89.2978 55.4358 88.705 57.6404 89.5222 57.6634C90.4042 57.6894 92.4155 52.6042 92.4155 52.6042C92.4155 52.6042 91.4307 56.7329 92.6222 56.8186C93.8136 56.9038 93.6406 53.8814 94.6738 53.6011C95.4008 53.4024 94.7984 55.5607 94.7984 56.7696C94.7984 57.2879 94.9105 57.6338 95.2828 57.5377C95.7466 57.4225 96.0261 56.9835 96.2476 56.4682C96.6096 55.6041 96.8164 54.5275 97.462 54.3663" stroke="#006B99" stroke-width="3.39567" stroke-linecap="round" stroke-linejoin="round"/>
<path d="M85.5626 56.5706C85.9841 57.5971 86.6161 58.3949 87.1486 58.2703C88.36 57.9763 89.2623 55.4588 89.3906 55.0855C89.3932 55.0744 89.3962 55.0632 89.4003 55.0529V55.0432" stroke="#006B99" stroke-width="3.39567" stroke-linecap="round" stroke-linejoin="round"/>
<path d="M85.5625 56.5707C86.5395 54.7223 87.0798 52.5544 85.9112 52.855C84.7771 53.1486 84.9583 55.0919 85.5625 56.5707Z" stroke="#006B99" stroke-width="3.39567" stroke-linecap="round" stroke-linejoin="round"/>
<path d="M83.471 58.9963C84.1259 58.8187 84.9354 57.7625 85.5644 56.571" stroke="#006B99" stroke-width="3.39567" stroke-linecap="round" stroke-linejoin="round"/>
<path d="M78.5135 56.1484L76.9992 58.4547L75.4849 60.7579" stroke="#006B99" stroke-width="3.39567" stroke-linecap="round" stroke-linejoin="round"/>
<path d="M74.6977 56.9365L76.9989 58.4546L79.2968 59.9697" stroke="#006B99" stroke-width="3.39567" stroke-linecap="round" stroke-linejoin="round"/>
<path d="M101.678 59.7424C102.228 61.3076 103.033 62.7708 104.061 64.0717C106.172 66.8253 109.133 68.8024 112.481 69.6954L111.553 75.3314C111.501 75.6477 111.512 75.9709 111.584 76.2831C111.656 76.5948 111.79 76.8896 111.976 77.1502C112.162 77.4104 112.398 77.6317 112.669 77.8011C112.94 77.9702 113.242 78.0844 113.558 78.1366C113.873 78.1889 114.195 78.1782 114.506 78.1055C114.818 78.0328 115.112 77.8994 115.371 77.7129C115.631 77.5264 115.852 77.2903 116.021 77.0182C116.19 76.7461 116.303 76.4436 116.355 76.1274L117.294 70.4213C118.694 70.4509 120.092 70.2967 121.452 69.9623C123.547 69.46 125.517 68.5329 127.241 67.2383C128.945 65.9478 130.396 64.353 131.521 62.5336C132.701 60.6247 133.487 58.4987 133.834 56.2799C134.379 53.1274 134.087 49.8862 132.988 46.8819C131.888 43.8735 129.412 41.2311 125.559 38.9549L122.757 37.2555L124.719 25.3392C125.078 25.6098 125.406 25.9186 125.699 26.2597C126.417 27.1249 126.822 28.2074 126.849 29.3322C126.875 29.7555 127.044 30.1574 127.328 30.4718C127.612 30.7858 127.995 30.9934 128.413 31.0605L135.23 32.1889C135.49 32.2327 135.755 32.2212 136.01 32.1552C136.265 32.0892 136.503 31.9702 136.709 31.806C136.915 31.6417 137.084 31.436 137.205 31.2017C137.327 30.9674 137.397 30.7105 137.413 30.4469C137.489 28.9422 137.365 27.4341 137.044 25.962C136.613 23.9271 135.798 21.9938 134.641 20.2667C133.494 18.5773 132.003 17.1512 130.266 16.082C129.097 15.3562 127.837 14.7879 126.52 14.3923L127.343 9.38615C127.395 9.06993 127.384 8.74666 127.312 8.43452C127.239 8.12237 127.106 7.82766 126.92 7.56704C126.734 7.3068 126.498 7.08548 126.227 6.91643C125.955 6.74702 125.653 6.63321 125.338 6.58094C125.023 6.52866 124.7 6.53941 124.389 6.61208C124.077 6.68474 123.783 6.8182 123.523 7.00504C122.999 7.38206 122.645 7.95259 122.54 8.59096L121.714 13.6097C120.388 13.5682 119.062 13.6846 117.764 13.9563C115.732 14.376 113.812 15.2179 112.125 16.4279C110.359 17.6372 108.855 19.1905 107.7 20.9951C106.488 22.8902 105.684 25.0178 105.337 27.2421C104.678 30.606 105.184 34.0944 106.769 37.1317C108.454 40.1545 110.958 42.6379 113.991 44.2954L116.434 45.6849L114.222 59.127C113.304 58.7148 112.573 57.9745 112.171 57.051C111.832 56.2688 111.59 55.4488 111.447 54.6084C111.345 54.0015 111.058 53.4417 110.624 53.0065C110.19 52.5713 109.632 52.2825 109.027 52.1802L106.983 51.8432L104.103 51.3631C103.675 51.2931 103.238 51.3186 102.821 51.4373C102.404 51.5563 102.019 51.7657 101.692 52.0504C101.365 52.3355 101.105 52.6895 100.93 53.0866C100.755 53.484 100.669 53.9151 100.679 54.3492C100.698 55.6857 100.882 57.0143 101.226 58.3059C101.358 58.7986 101.509 59.2768 101.678 59.7424Z" stroke="#006B99" stroke-width="3.39567" stroke-linecap="round" stroke-linejoin="round"/>
<path d="M116.019 31.9687C115.678 30.9689 115.587 29.9005 115.753 28.8569C115.972 27.44 116.698 26.1518 117.797 25.2332C118.414 24.7005 119.164 24.3457 119.966 24.207L118.271 34.4996C117.276 33.9113 116.489 33.0267 116.019 31.9687Z" stroke="#006B99" stroke-width="3.39567" stroke-linecap="round" stroke-linejoin="round"/>
<path d="M120.777 58.8605C120.244 59.1749 119.673 59.4188 119.079 59.5864L120.915 48.439C121.709 49.0373 122.368 49.7976 122.847 50.6703C123.471 51.9422 123.664 53.3836 123.397 54.7752C123.304 55.6127 123.019 56.4172 122.565 57.126C122.11 57.8344 121.498 58.4283 120.777 58.8605Z" stroke="#006B99" stroke-width="3.39567" stroke-linecap="round" stroke-linejoin="round"/>
</svg>
