<svg width="457" height="258" viewBox="0 0 457 258" fill="none" xmlns="http://www.w3.org/2000/svg">
<path d="M359.382 49.7017H125.698V40.4714C125.699 37.7689 126.773 35.1771 128.684 33.2663C130.595 31.3553 133.187 30.2813 135.891 30.2808H356.268C355.893 32.1115 355.705 33.9754 355.703 35.8443C355.703 35.9234 355.703 35.9927 355.703 36.0694H162.24V43.834H356.69L356.878 43.7813C357.493 45.8408 358.332 47.8263 359.382 49.7017Z" fill="#CCEFF6"/>
<path d="M252.832 201.039C254.325 201.039 255.785 201.481 257.027 202.311C258.269 203.14 259.239 204.319 259.81 205.698C260.381 207.078 260.532 208.595 260.241 210.061C259.949 211.525 259.229 212.87 258.173 213.926C257.117 214.981 255.772 215.702 254.308 215.993C252.842 216.284 251.324 216.133 249.944 215.562C248.565 214.991 247.384 214.023 246.556 212.78C245.726 211.538 245.284 210.078 245.284 208.586C245.286 206.585 246.081 204.666 247.497 203.252C248.911 201.836 250.83 201.04 252.832 201.039Z" fill="#F7CEDC"/>
<path d="M389.028 87.5711V174.51C387.236 175.28 385.494 176.159 383.812 177.144L379.876 175.813L379.977 175.508V71.05L389.028 87.5711Z" fill="#F7CEDC"/>
<path d="M389.028 69.7017V87.5711L379.975 71.0454V66.95C382.903 68.1409 385.933 69.0622 389.028 69.7017Z" fill="#006B99"/>
<path d="M371.528 222.35H355.019L362.73 194.823H367.801C366.471 198.124 365.787 201.648 365.783 205.206C365.831 211.385 367.843 217.39 371.528 222.35Z" fill="#006B99"/>
<path d="M362.736 194.823L355.025 222.35H130.395C126.748 222.35 123.251 220.902 120.673 218.323C118.094 215.746 116.645 212.249 116.645 208.603V142.947L125.698 131.388V184.634C125.698 187.335 126.772 189.928 128.684 191.838C130.595 193.75 133.187 194.823 135.89 194.823H362.736ZM260.396 208.586C260.398 207.093 259.955 205.633 259.125 204.39C258.296 203.148 257.117 202.181 255.737 201.608C254.358 201.037 252.84 200.885 251.374 201.177C249.908 201.468 248.563 202.186 247.507 203.242C246.449 204.296 245.73 205.641 245.437 207.107C245.146 208.57 245.293 210.09 245.864 211.469C246.435 212.849 247.403 214.029 248.645 214.859C249.885 215.69 251.345 216.133 252.84 216.135C254.842 216.135 256.763 215.338 258.177 213.924C259.593 212.508 260.388 210.588 260.39 208.586H260.396Z" fill="#F7CEDC"/>
<path d="M359.482 75.2584C360.015 75.2454 360.544 75.3389 361.038 75.5333C361.534 75.7278 361.985 76.0194 362.366 76.3908C362.747 76.7623 363.048 77.2062 363.255 77.6963C363.462 78.1866 363.569 78.7135 363.569 79.2443C363.569 79.7769 363.462 80.3038 363.255 80.7943C363.048 81.2829 362.747 81.7274 362.366 82.0991C361.985 82.4708 361.534 82.762 361.038 82.9556C360.544 83.151 360.015 83.2449 359.482 83.2315H267.565C266.777 83.2334 266.005 82.9996 265.348 82.5628C264.692 82.124 264.179 81.5013 263.878 80.7732C263.575 80.0432 263.497 79.2423 263.652 78.4683C263.807 77.6944 264.186 76.9841 264.746 76.4272C265.114 76.0549 265.555 75.7598 266.038 75.5592C266.522 75.3584 267.042 75.2563 267.565 75.2584H359.482Z" fill="#CCEFF6"/>
<path d="M359.484 92.3055C360.542 92.3055 361.555 92.7271 362.303 93.4743C363.052 94.2215 363.472 95.237 363.472 96.2947C363.472 97.3523 363.052 98.3659 362.303 99.1131C361.555 99.8622 360.542 100.282 359.484 100.282H221.061C220.003 100.28 218.99 99.8584 218.24 99.1093C217.493 98.362 217.071 97.3465 217.071 96.2889C217.075 95.2332 217.497 94.2215 218.244 93.4743C218.994 92.729 220.005 92.3094 221.061 92.3055H359.484Z" fill="#006B99"/>
<path d="M359.482 109.356C360.015 109.343 360.544 109.437 361.038 109.632C361.534 109.826 361.985 110.117 362.366 110.488C362.745 110.86 363.048 111.305 363.255 111.793C363.462 112.284 363.568 112.811 363.568 113.343C363.568 113.874 363.462 114.401 363.255 114.891C363.048 115.382 362.745 115.825 362.366 116.196C361.985 116.568 361.534 116.859 361.038 117.055C360.544 117.248 360.015 117.342 359.482 117.329H314.071C313.011 117.329 311.997 116.909 311.248 116.16C310.5 115.413 310.081 114.397 310.079 113.339C310.081 112.282 310.502 111.268 311.25 110.523C311.999 109.776 313.013 109.356 314.071 109.356H359.482Z" fill="#CCEFF6"/>
<path d="M359.484 126.397C360.542 126.397 361.555 126.817 362.303 127.564C363.052 128.313 363.472 129.327 363.472 130.384C363.472 131.442 363.052 132.455 362.303 133.205C361.555 133.952 360.542 134.371 359.484 134.371H213.312C212.254 134.371 211.238 133.95 210.491 133.201C209.741 132.453 209.32 131.438 209.32 130.38C209.324 129.323 209.745 128.311 210.495 127.564C211.242 126.818 212.256 126.399 213.312 126.397H359.484Z" fill="#006B99"/>
<path d="M359.482 143.453C360.523 143.48 361.513 143.911 362.24 144.654C362.966 145.4 363.374 146.4 363.374 147.44C363.374 148.481 362.966 149.481 362.24 150.224C361.513 150.97 360.523 151.401 359.482 151.428H283.068C282.01 151.426 280.997 151.006 280.247 150.257C279.498 149.51 279.076 148.494 279.076 147.437C279.078 146.379 279.502 145.367 280.249 144.62C280.998 143.875 282.012 143.455 283.068 143.453H359.482Z" fill="#CCEFF6"/>
<path d="M359.484 160.502C360.015 160.488 360.545 160.582 361.04 160.776C361.534 160.971 361.987 161.262 362.366 161.634C362.747 162.006 363.05 162.448 363.257 162.939C363.464 163.429 363.569 163.956 363.569 164.487C363.569 165.02 363.464 165.547 363.257 166.037C363.05 166.526 362.747 166.97 362.366 167.342C361.987 167.714 361.534 168.005 361.04 168.198C360.545 168.394 360.015 168.488 359.484 168.474H337.323C336.266 168.474 335.25 168.053 334.503 167.305C333.755 166.556 333.334 165.543 333.334 164.483C333.335 163.427 333.757 162.416 334.506 161.669C335.254 160.921 336.267 160.502 337.323 160.502H359.484Z" fill="#006B99"/>
<path d="M359.484 177.548C360.542 177.548 361.555 177.97 362.303 178.717C363.052 179.464 363.472 180.48 363.472 181.538C363.472 182.593 363.052 183.609 362.303 184.356C361.555 185.103 360.542 185.525 359.484 185.525H236.564C235.507 185.523 234.491 185.101 233.742 184.354C232.994 183.605 232.573 182.589 232.571 181.532C232.577 180.476 232.998 179.463 233.747 178.717C234.495 177.97 235.509 177.55 236.564 177.548H359.484Z" fill="#CCEFF6"/>
<path d="M359.792 58.2398L355.925 66.184H236.564C235.507 66.184 234.493 65.764 233.744 65.0162C232.996 64.2682 232.577 63.254 232.577 62.1964C232.577 61.1388 232.996 60.1244 233.744 59.3766C234.493 58.6288 235.507 58.2086 236.564 58.2086H359.484C359.591 58.2086 359.685 58.2326 359.792 58.2398Z" fill="#006B99"/>
<path d="M130.395 23.6771H358.491C357.485 25.7799 356.74 27.9973 356.268 30.2802H135.89C133.187 30.2808 130.595 31.3547 128.684 33.2657C126.772 35.1768 125.698 37.7683 125.698 40.4709V73.0023C122.889 70.9217 119.852 69.1691 116.645 67.7787V37.4244C116.645 35.6192 117.001 33.8316 117.692 32.1637C118.383 30.4958 119.396 28.9802 120.673 27.7036C121.949 26.4272 123.465 25.4146 125.133 24.7237C126.802 24.0327 128.59 23.6771 130.395 23.6771Z" fill="#F7CEDC"/>
<path d="M356.88 43.781L356.692 43.8337H162.24V36.0691H355.713C355.728 38.6825 356.121 41.28 356.88 43.781Z" fill="#006B99"/>
<path d="M315.307 160.502C316.347 160.527 317.338 160.958 318.064 161.703C318.791 162.448 319.199 163.447 319.199 164.487C319.199 165.529 318.791 166.528 318.064 167.273C317.338 168.018 316.347 168.449 315.307 168.474H161.383C160.324 168.474 159.31 168.053 158.561 167.305C157.813 166.556 157.392 165.543 157.392 164.485C157.395 163.427 157.817 162.416 158.565 161.669C159.313 160.923 160.326 160.502 161.383 160.502H315.307Z" fill="#CCEFF6"/>
<path d="M292.052 109.356C293.092 109.381 294.083 109.812 294.81 110.557C295.536 111.303 295.944 112.301 295.944 113.343C295.944 114.384 295.536 115.382 294.81 116.127C294.083 116.873 293.092 117.304 292.052 117.329H161.383C160.324 117.329 159.31 116.907 158.561 116.16C157.813 115.411 157.392 114.397 157.392 113.339C157.394 112.282 157.815 111.268 158.563 110.523C159.311 109.776 160.326 109.356 161.383 109.356H292.052Z" fill="#006B99"/>
<path d="M282.526 242.118L285.799 256.539H281.177H226.473H219.877L227.629 222.35L282.526 242.118Z" fill="#F7CEDC"/>
<path d="M278.045 222.35L282.526 242.118L227.627 222.35H278.045Z" fill="#006B99"/>
<path d="M261.049 143.453C262.09 143.48 263.079 143.911 263.805 144.654C264.533 145.4 264.94 146.4 264.94 147.44C264.94 148.481 264.533 149.481 263.805 150.224C263.079 150.97 262.09 151.401 261.049 151.428H161.383C160.324 151.426 159.31 151.006 158.561 150.257C157.813 149.51 157.392 148.494 157.392 147.437C157.394 146.379 157.815 145.367 158.563 144.62C159.311 143.873 160.326 143.453 161.383 143.453H261.049Z" fill="#006B99"/>
<path d="M245.548 75.2584C246.079 75.2454 246.608 75.3389 247.104 75.5333C247.599 75.7278 248.049 76.0194 248.43 76.3908C248.812 76.7623 249.115 77.2062 249.321 77.6963C249.527 78.1866 249.634 78.7135 249.634 79.2443C249.634 79.7769 249.527 80.3038 249.321 80.7943C249.115 81.2829 248.812 81.7274 248.43 82.0991C248.049 82.4708 247.599 82.762 247.104 82.9556C246.608 83.151 246.079 83.2449 245.548 83.2315H161.382C160.85 83.2449 160.321 83.151 159.826 82.9556C159.331 82.762 158.88 82.4708 158.499 82.0991C158.118 81.7274 157.816 81.2829 157.609 80.7943C157.402 80.3038 157.296 79.7769 157.296 79.2443C157.296 78.7135 157.402 78.1866 157.609 77.6963C157.816 77.2062 158.118 76.7623 158.499 76.3908C158.88 76.0194 159.331 75.7278 159.826 75.5333C160.321 75.3389 160.85 75.2454 161.382 75.2584H245.548Z" fill="#006B99"/>
<path d="M214.544 58.2086C215.602 58.2086 216.617 58.6288 217.365 59.3766C218.112 60.1244 218.532 61.1388 218.532 62.1964C218.532 63.254 218.112 64.2682 217.365 65.0162C216.617 65.764 215.602 66.184 214.544 66.184H161.383C160.324 66.1834 159.31 65.7628 158.561 65.0146C157.813 64.2666 157.392 63.2519 157.392 62.1939C157.394 61.137 157.816 60.124 158.564 59.377C159.312 58.6301 160.325 58.21 161.383 58.2086H214.544Z" fill="#CCEFF6"/>
<path d="M214.544 177.548C215.602 177.548 216.617 177.97 217.365 178.717C218.112 179.464 218.532 180.48 218.532 181.538C218.532 182.593 218.112 183.609 217.365 184.356C216.617 185.103 215.602 185.525 214.544 185.525H161.383C160.324 185.523 159.31 185.101 158.561 184.354C157.813 183.605 157.392 182.589 157.392 181.532C157.395 180.476 157.817 179.463 158.565 178.717C159.313 177.97 160.326 177.55 161.383 177.548H214.544Z" fill="#006B99"/>
<path d="M199.043 92.3055C200.1 92.3055 201.116 92.7271 201.863 93.4743C202.611 94.2215 203.032 95.237 203.032 96.2947C203.032 97.3523 202.611 98.3659 201.863 99.1131C201.116 99.8622 200.1 100.282 199.043 100.282H161.383C160.324 100.28 159.31 99.8584 158.561 99.1112C157.813 98.362 157.392 97.3465 157.392 96.2889C157.395 95.2332 157.817 94.2196 158.565 93.4743C159.313 92.7271 160.326 92.3075 161.383 92.3055H199.043Z" fill="#CCEFF6"/>
<path d="M191.291 126.397C192.349 126.397 193.365 126.817 194.112 127.564C194.859 128.313 195.281 129.327 195.281 130.384C195.281 131.442 194.859 132.455 194.112 133.205C193.365 133.952 192.349 134.371 191.291 134.371H161.383C160.324 134.371 159.31 133.95 158.561 133.201C157.813 132.452 157.392 131.438 157.392 130.38C157.395 129.323 157.817 128.311 158.565 127.564C159.313 126.818 160.326 126.397 161.383 126.397H191.291Z" fill="#CCEFF6"/>
<path d="M139.201 93.5319C139.726 93.7273 140.185 94.0703 140.523 94.5186C140.86 94.9669 141.063 95.5015 141.107 96.061C141.15 96.6185 141.033 97.1799 140.77 97.6743C140.506 98.1686 140.106 98.5786 139.617 98.8545C139.617 98.6916 139.617 98.5211 139.617 98.3506C139.617 97.9559 139.617 97.5612 139.586 97.1646V97.0726C139.535 95.8847 139.406 94.7025 139.201 93.5319Z" fill="#006B99"/>
<path d="M138.146 59.2238C138.734 59.2219 139.31 59.3945 139.799 59.7196C140.289 60.0448 140.671 60.5081 140.897 61.0505C141.124 61.5929 141.184 62.1903 141.07 62.767C140.957 63.3437 140.675 63.8739 140.26 64.2902C139.845 64.7064 139.315 64.9904 138.739 65.1057C138.162 65.221 137.565 65.1628 137.021 64.9382C136.478 64.7137 136.014 64.3332 135.687 63.8446C135.36 63.356 135.186 62.7814 135.186 62.1936C135.186 61.4076 135.497 60.6537 136.052 60.0971C136.607 59.5403 137.36 59.2263 138.146 59.2238Z" fill="#006B99"/>
<path d="M138.146 76.2741C138.734 76.2727 139.308 76.4455 139.797 76.7707C140.286 77.096 140.668 77.5589 140.894 78.1004C141.119 78.6426 141.179 79.2404 141.065 79.8152C140.952 80.3919 140.67 80.9207 140.255 81.3365C139.84 81.7523 139.311 82.0359 138.735 82.1508C138.159 82.2658 137.562 82.2083 137.019 81.9841C136.477 81.7599 136.013 81.3787 135.686 80.8901C135.36 80.4034 135.186 79.8286 135.186 79.2423C135.186 78.4549 135.497 77.7021 136.052 77.1458C136.607 76.5894 137.36 76.276 138.146 76.2741Z" fill="#006B99"/>
<path d="M138.147 110.372C138.934 110.372 139.689 110.684 140.245 111.241C140.802 111.797 141.115 112.552 141.115 113.339C141.115 114.125 140.802 114.88 140.245 115.437C139.689 115.993 138.934 116.305 138.147 116.305C137.514 116.292 136.902 116.077 136.398 115.694C135.894 115.313 135.524 114.78 135.339 114.175L134.932 113.918C135.632 112.832 136.261 111.701 136.815 110.534L136.947 110.594C137.193 110.35 137.943 110.372 138.147 110.372Z" fill="#006B99"/>
<path d="M138.146 144.467C138.734 144.465 139.31 144.637 139.799 144.963C140.289 145.289 140.671 145.751 140.897 146.295C141.124 146.837 141.184 147.433 141.07 148.009C140.957 148.586 140.675 149.117 140.26 149.533C139.845 149.95 139.315 150.234 138.739 150.349C138.162 150.464 137.565 150.406 137.021 150.182C136.478 149.956 136.014 149.577 135.687 149.088C135.36 148.6 135.186 148.025 135.186 147.437C135.186 146.651 135.497 145.896 136.052 145.34C136.607 144.783 137.36 144.469 138.146 144.467Z" fill="#006B99"/>
<path d="M138.146 161.517C138.734 161.515 139.308 161.688 139.797 162.013C140.286 162.339 140.668 162.801 140.894 163.343C141.119 163.885 141.179 164.483 141.065 165.058C140.952 165.635 140.67 166.164 140.255 166.579C139.84 166.995 139.311 167.279 138.735 167.394C138.159 167.509 137.562 167.451 137.019 167.227C136.477 167.003 136.013 166.621 135.686 166.133C135.36 165.646 135.186 165.071 135.186 164.485C135.186 163.698 135.497 162.945 136.052 162.389C136.607 161.831 137.36 161.519 138.146 161.517Z" fill="#006B99"/>
<path d="M138.146 178.564C138.734 178.562 139.31 178.734 139.799 179.06C140.289 179.386 140.671 179.849 140.898 180.392C141.124 180.934 141.184 181.532 141.07 182.108C140.956 182.685 140.674 183.216 140.259 183.632C139.844 184.047 139.314 184.331 138.737 184.446C138.161 184.561 137.563 184.503 137.02 184.277C136.477 184.053 136.012 183.672 135.686 183.183C135.359 182.695 135.185 182.12 135.186 181.532C135.186 180.746 135.497 179.993 136.052 179.436C136.607 178.88 137.36 178.566 138.146 178.564Z" fill="#006B99"/>
<path d="M121.597 126.41L125.909 128.449L125.691 128.913V131.388L116.638 142.947V128.913C118.341 128.181 119.997 127.345 121.597 126.41Z" fill="#006B99"/>
<path d="M106.84 132.099L106.924 132.48C102.919 141.562 97.8216 150.575 91.85 155.589C89.9112 157.216 88.0458 158.864 86.2541 160.532C85.5786 150.629 84.8505 140.608 84.1534 132.48C87.5882 133.105 91.0725 133.419 94.5639 133.417C98.6917 133.423 102.808 132.98 106.84 132.099Z" fill="#006B99"/>
<path d="M78.7595 177.497C80.2329 174.046 82.5046 170.994 85.3875 168.591C85.8282 168.252 86.269 167.909 86.7193 167.583C93.8318 162.581 101.582 158.553 109.763 155.608C109.545 156.072 101.221 173.703 93.2349 180.438C91.3833 181.994 89.5293 183.39 87.7781 184.749C86.0011 186.1 84.3203 187.573 82.7477 189.157C81.0119 190.867 79.6389 192.907 78.7108 195.16C77.7827 197.412 77.3186 199.828 77.3462 202.263V202.658H73.9303V202.263C73.9738 198.086 74.363 193.921 75.0945 189.809C75.7913 185.567 77.0229 181.428 78.7595 177.497Z" fill="#CCEFF6"/>
<path d="M88.6261 202.263V202.658H84.4724C84.2704 198.117 83.6894 193.603 82.7358 189.157C84.3082 187.573 85.9892 186.1 87.7662 184.749C88.3003 193.739 88.6261 200.464 88.6261 202.263Z" fill="#006B99"/>
<path d="M86.719 167.576C86.2686 167.909 85.8279 168.252 85.3871 168.591C82.5042 170.994 80.2326 174.046 78.7591 177.497C77.8368 176.06 76.6965 174.466 75.379 172.691C72.3177 168.553 68.3509 163.516 64.2812 157.919C59.3803 151.357 55.0055 144.417 51.1974 137.167C51.1974 137.167 51.1734 137.129 51.1351 137.06C50.5625 135.92 50.0188 134.789 49.5014 133.641C32.549 96.2583 43.5321 58.9843 43.5321 58.9843C49.3437 64.2845 54.7965 69.9652 59.8544 75.9888C56.677 78.7997 54.1167 82.237 52.3347 86.0863C50.5529 89.9355 49.5882 94.1124 49.5014 98.3525C49.5014 114.93 64.2812 128.825 84.1536 132.482C84.8505 140.61 85.5787 150.631 86.2542 160.534C86.41 162.897 86.5729 165.25 86.719 167.576Z" fill="#CCEFF6"/>
<path d="M73.4278 175.634C73.4278 175.634 74.6999 183.206 75.1046 189.801C74.3734 193.913 73.984 198.078 73.9405 202.255V202.65H70.5365V202.255C71.7344 194.242 70.5054 185.222 70.5365 180.959C71.3998 179.131 72.365 177.355 73.4278 175.634Z" fill="#006B99"/>
<path d="M75.3798 172.691C74.6995 173.649 74.0479 174.636 73.4274 175.634C72.3648 177.355 71.3993 179.131 70.5362 180.959C67.3946 187.749 65.7431 195.132 65.6927 202.612V202.65H64.3273C64.2447 194.335 63.3858 186.046 61.7617 177.889C62.5451 173.789 62.9594 169.139 63.4602 164.395C63.6853 162.257 63.9249 160.096 64.2194 157.965L64.2817 157.917C68.3516 163.519 72.3184 168.549 75.3798 172.691Z" fill="#CCEFF6"/>
<path d="M64.3269 202.658H58.2905C57.8953 182.122 44.0067 175.636 30.1012 163.92C15.7287 151.822 0.771729 119.886 0.771729 119.886C15.7222 125.27 29.8504 132.708 42.749 141.987C43.1509 142.328 43.5698 142.648 44.0042 142.945C54.065 150.835 59.1889 165.094 61.7616 177.889C63.386 186.048 64.2449 194.34 64.3269 202.658Z" fill="#CCEFF6"/>
<path d="M64.2817 157.919L64.2194 157.967C63.9249 160.099 63.6853 162.259 63.4602 164.399C62.0804 155.246 54.7479 150.38 44.0069 142.949C43.5878 142.624 43.1758 142.298 42.7494 141.991C33.0071 133.823 29.9626 113.899 29.9626 113.899C41.1157 120.455 50.2998 135.651 51.1357 137.061C51.174 137.13 51.1979 137.169 51.1979 137.169C55.0063 144.419 59.3811 151.359 64.2817 157.919Z" fill="#006B99"/>
<path d="M116.645 128.913C118.346 128.181 119.999 127.345 121.597 126.41L125.909 128.449L146.988 138.368L133.334 116.229C133.907 115.478 134.451 114.711 134.946 113.918C135.647 112.832 136.276 111.699 136.829 110.532C138.592 106.886 139.543 102.903 139.617 98.8545C139.617 98.6916 139.617 98.5211 139.617 98.3506C139.617 97.9559 139.617 97.5612 139.586 97.1646" stroke="#006B99" stroke-width="1.54342" stroke-linecap="round" stroke-linejoin="round"/>
<path d="M139.596 97.0726C139.542 95.8846 139.41 94.7025 139.201 93.5318C137.495 85.2125 132.662 77.8647 125.698 73.0028C122.89 70.9222 119.852 69.1697 116.646 67.7792C109.675 64.7722 102.157 63.2423 94.5648 63.2862C81.812 63.0145 69.4229 67.5453 59.8552 75.9797C56.6777 78.7901 54.1175 82.2293 52.3355 86.0786C50.5537 89.9278 49.589 94.1028 49.5022 98.3448C49.5022 114.92 64.2819 128.815 84.1543 132.473C87.5892 133.097 91.0734 133.411 94.5648 133.41C98.6926 133.415 102.809 132.975 106.841 132.091C110.205 131.356 113.489 130.292 116.646 128.916" stroke="#006B99" stroke-width="1.54342" stroke-linecap="round" stroke-linejoin="round"/>
<path d="M359.8 58.2397L362.002 53.7156C361.025 52.4441 360.145 51.1024 359.367 49.7016C358.321 47.8256 357.483 45.8401 356.872 43.7811C356.115 41.2802 355.722 38.6825 355.709 36.0692C355.709 35.9926 355.709 35.923 355.709 35.8441C355.707 33.9754 355.895 32.1114 356.268 30.2804C356.738 27.9977 357.483 25.7805 358.487 23.6775C364.842 10.3038 381.372 0.771729 400.766 0.771729C425.645 0.771729 445.822 16.4709 445.822 35.8441C445.822 55.2172 425.645 70.9117 400.766 70.9117C396.822 70.9182 392.888 70.5105 389.028 69.695C385.933 69.061 382.903 68.1423 379.977 66.9504C377.829 66.0855 375.748 65.0648 373.749 63.8966L352.669 72.8875L355.941 66.1815L359.813 58.2374" stroke="#006B99" stroke-width="1.54342" stroke-linecap="round" stroke-linejoin="round"/>
<path d="M379.876 175.814L366.396 171.25L372.078 187.33C370.315 189.619 368.874 192.141 367.799 194.823C366.469 198.124 365.785 201.648 365.783 205.206C365.831 211.385 367.845 217.39 371.532 222.35C379.243 233.043 393.963 240.274 410.849 240.274C435.731 240.274 455.906 224.573 455.906 205.206C455.906 185.841 435.731 170.141 410.849 170.141C403.355 170.103 395.933 171.592 389.032 174.519C387.24 175.289 385.498 176.169 383.816 177.154L379.876 175.814Z" stroke="#006B99" stroke-width="1.54342" stroke-linecap="round" stroke-linejoin="round"/>
<path d="M116.645 67.7787V37.4244C116.645 33.7785 118.094 30.2818 120.673 27.7036C123.251 25.1256 126.748 23.6771 130.395 23.6771H358.491" stroke="#006B99" stroke-width="1.54342" stroke-linecap="round" stroke-linejoin="round"/>
<path d="M227.634 222.35H130.395C126.748 222.35 123.251 220.902 120.673 218.323C118.094 215.746 116.645 212.249 116.645 208.603V128.915" stroke="#006B99" stroke-width="1.54342" stroke-linecap="round" stroke-linejoin="round"/>
<path d="M371.526 222.35H355.017H278.045" stroke="#006B99" stroke-width="1.54342" stroke-linecap="round" stroke-linejoin="round"/>
<path d="M389.028 69.7024V87.5712V174.519" stroke="#006B99" stroke-width="1.54342" stroke-linecap="round" stroke-linejoin="round"/>
<path d="M125.698 73.0123V40.4714C125.699 37.7689 126.773 35.1771 128.684 33.2663C130.595 31.3553 133.187 30.2813 135.891 30.2808H356.268" stroke="#006B99" stroke-width="1.54342" stroke-linecap="round" stroke-linejoin="round"/>
<path d="M367.801 194.825H135.891C133.187 194.823 130.595 193.75 128.684 191.84C126.773 189.928 125.699 187.335 125.698 184.634V128.915" stroke="#006B99" stroke-width="1.54342" stroke-linecap="round" stroke-linejoin="round"/>
<path d="M379.975 66.9597V71.0504V175.512" stroke="#006B99" stroke-width="1.54342" stroke-linecap="round" stroke-linejoin="round"/>
<path d="M125.698 49.7012H359.373" stroke="#006B99" stroke-width="1.54342" stroke-linecap="round" stroke-linejoin="round"/>
<path d="M356.694 43.8337H162.243V36.0691H355.645" stroke="#006B99" stroke-width="1.54342" stroke-linecap="round" stroke-linejoin="round"/>
<path d="M260.39 208.586C260.39 210.08 259.948 211.54 259.12 212.782C258.29 214.023 257.111 214.993 255.732 215.566C254.352 216.139 252.834 216.288 251.368 215.999C249.902 215.707 248.557 214.989 247.499 213.933C246.443 212.878 245.723 211.533 245.429 210.069C245.138 208.603 245.286 207.085 245.857 205.706C246.428 204.325 247.396 203.144 248.637 202.315C249.879 201.483 251.338 201.04 252.832 201.039C254.835 201.039 256.757 201.834 258.173 203.248C259.591 204.664 260.388 206.583 260.39 208.586Z" stroke="#006B99" stroke-width="1.54342" stroke-linecap="round" stroke-linejoin="round"/>
<path d="M219.877 256.539L227.629 222.35H278.047L282.526 242.118L285.799 256.539" stroke="#006B99" stroke-width="1.54342" stroke-linecap="round" stroke-linejoin="round"/>
<path d="M281.177 256.537H226.473" stroke="#006B99" stroke-width="1.54342" stroke-linecap="round" stroke-linejoin="round"/>
<path d="M227.627 222.35L282.526 242.118" stroke="#006B99" stroke-width="1.54342" stroke-linecap="round" stroke-linejoin="round"/>
<path d="M199.02 256.537H210.972" stroke="#006B99" stroke-width="1.54342" stroke-linecap="round" stroke-linejoin="round"/>
<path d="M214.521 256.537H219.875H226.473" stroke="#006B99" stroke-width="1.54342" stroke-linecap="round" stroke-linejoin="round"/>
<path d="M28.5038 256.537H40.4569" stroke="#006B99" stroke-width="1.54342" stroke-linecap="round" stroke-linejoin="round"/>
<path d="M87.1453 256.537H117.962" stroke="#006B99" stroke-width="1.54342" stroke-linecap="round" stroke-linejoin="round"/>
<path d="M44.0062 256.537H60.1729" stroke="#006B99" stroke-width="1.54342" stroke-linecap="round" stroke-linejoin="round"/>
<path d="M281.179 256.537H285.799H293.129" stroke="#006B99" stroke-width="1.54342" stroke-linecap="round" stroke-linejoin="round"/>
<path d="M296.678 256.537H308.63" stroke="#006B99" stroke-width="1.54342" stroke-linecap="round" stroke-linejoin="round"/>
<path d="M147.276 44.7344L155.204 40.1622L147.276 35.5807" stroke="#006B99" stroke-width="1.54342" stroke-linecap="round" stroke-linejoin="round"/>
<path d="M142.152 35.5807L134.216 40.1622L142.152 44.7344" stroke="#006B99" stroke-width="1.54342" stroke-linecap="round" stroke-linejoin="round"/>
<path d="M379.975 71.05L389.028 87.5711" stroke="#006B99" stroke-width="1.54342" stroke-linecap="round" stroke-linejoin="round"/>
<path d="M362.73 194.823L355.019 222.35" stroke="#006B99" stroke-width="1.54342" stroke-linecap="round" stroke-linejoin="round"/>
<path d="M125.698 131.388L116.645 142.947" stroke="#006B99" stroke-width="1.54342" stroke-linecap="round" stroke-linejoin="round"/>
<path d="M87.1453 256.537H60.1729C55.8853 256.537 51.7733 254.836 48.7414 251.805C45.7096 248.772 44.0062 244.662 44.0062 240.374V202.658H103.312V240.374C103.311 244.662 101.608 248.772 98.5763 251.803C95.5444 254.834 91.4328 256.537 87.1453 256.537Z" stroke="#006B99" stroke-width="1.54342" stroke-linecap="round" stroke-linejoin="round"/>
<path d="M64.3269 202.658C64.2449 194.34 63.386 186.048 61.7616 177.889C59.1889 165.094 54.065 150.826 44.0067 142.945C43.5874 142.62 43.1754 142.294 42.749 141.987C29.8504 132.708 15.7222 125.27 0.771729 119.886C0.771729 119.886 15.7312 151.822 30.1012 163.92C44.0067 175.636 57.8881 182.122 58.2905 202.658" stroke="#006B99" stroke-width="1.54342" stroke-linecap="round" stroke-linejoin="round"/>
<path d="M70.5357 180.967C67.3942 187.755 65.7425 195.139 65.6923 202.619" stroke="#006B99" stroke-width="1.54342" stroke-linecap="round" stroke-linejoin="round"/>
<path d="M75.3794 172.691C74.6991 173.649 74.0476 174.636 73.4273 175.634C72.3645 177.355 71.3992 179.131 70.5359 180.959" stroke="#006B99" stroke-width="1.54342" stroke-linecap="round" stroke-linejoin="round"/>
<path d="M106.925 132.48C102.919 141.562 97.822 150.575 91.8501 155.589C89.9116 157.216 88.0462 158.864 86.2545 160.532" stroke="#006B99" stroke-width="1.54342" stroke-linecap="round" stroke-linejoin="round"/>
<path d="M61.7617 177.889C62.5451 173.789 62.9594 169.141 63.4602 164.395C63.6853 162.257 63.9249 160.097 64.2194 157.965" stroke="#006B99" stroke-width="1.54342" stroke-linecap="round" stroke-linejoin="round"/>
<path d="M109.78 155.589C109.555 156.068 101.231 173.692 93.2515 180.426C91.3998 181.982 89.5457 183.379 87.7948 184.737C86.0177 186.088 84.3369 187.561 82.7644 189.146C81.0286 190.855 79.6555 192.896 78.7272 195.147C77.7992 197.4 77.335 199.816 77.3626 202.251" stroke="#006B99" stroke-width="1.54342" stroke-linecap="round" stroke-linejoin="round"/>
<path d="M86.7195 167.576C93.832 162.575 101.582 158.547 109.763 155.601" stroke="#006B99" stroke-width="1.54342" stroke-linecap="round" stroke-linejoin="round"/>
<path d="M73.9303 202.263C73.9738 198.086 74.363 193.921 75.0945 189.809C75.7918 185.569 77.0235 181.434 78.7595 177.504C80.2329 174.052 82.5046 171.001 85.3875 168.599C85.8283 168.26 86.269 167.917 86.7193 167.591" stroke="#006B99" stroke-width="1.54342" stroke-linecap="round" stroke-linejoin="round"/>
<path d="M82.7358 189.157C83.6894 193.603 84.2704 198.117 84.4724 202.658" stroke="#006B99" stroke-width="1.54342" stroke-linecap="round" stroke-linejoin="round"/>
<path d="M51.1976 137.174C55.0057 144.425 59.3807 151.364 64.2813 157.927C68.3536 163.523 72.3181 168.56 75.3794 172.699C76.6969 174.473 77.8371 176.075 78.7593 177.502" stroke="#006B99" stroke-width="1.54342" stroke-linecap="round" stroke-linejoin="round"/>
<path d="M59.8544 75.9864C54.7965 69.9627 49.3437 64.2822 43.5321 58.9819C43.5321 58.9819 32.549 96.2545 49.5014 133.639C50.0188 134.785 50.5625 135.916 51.1351 137.056" stroke="#006B99" stroke-width="1.54342" stroke-linecap="round" stroke-linejoin="round"/>
<path d="M86.719 167.591C86.5728 165.257 86.4099 162.902 86.2543 160.54C85.5787 150.636 84.8505 140.616 84.1534 132.486" stroke="#006B99" stroke-width="1.54342" stroke-linecap="round" stroke-linejoin="round"/>
<path d="M88.6259 202.263C88.6259 200.464 88.3001 193.739 87.7731 184.749" stroke="#006B99" stroke-width="1.54342" stroke-linecap="round" stroke-linejoin="round"/>
<path d="M51.1979 137.174C51.1979 137.174 51.174 137.136 51.1357 137.065C50.2998 135.655 41.1157 120.459 29.9626 113.905C29.9626 113.905 33.0071 133.827 42.7494 141.995C43.1516 142.336 43.5713 142.656 44.0069 142.953C54.7479 150.378 62.0804 155.252 63.4602 164.403" stroke="#006B99" stroke-width="1.54342" stroke-linecap="round" stroke-linejoin="round"/>
<path d="M70.5365 180.959C70.5054 185.222 71.7342 194.243 70.5365 202.255" stroke="#006B99" stroke-width="1.54342" stroke-linecap="round" stroke-linejoin="round"/>
<path d="M73.4269 175.634C73.4269 175.634 74.6988 183.206 75.1037 189.801" stroke="#006B99" stroke-width="1.54342" stroke-linecap="round" stroke-linejoin="round"/>
<path d="M151.237 55.2411V186.299" stroke="#006B99" stroke-width="1.54342" stroke-linecap="round" stroke-linejoin="round"/>
<path d="M214.544 66.184H161.383C160.324 66.1834 159.31 65.7628 158.561 65.0146C157.813 64.2666 157.392 63.2519 157.392 62.1939C157.394 61.137 157.816 60.124 158.564 59.377C159.312 58.6301 160.325 58.21 161.383 58.2086H214.544C215.602 58.2086 216.617 58.6288 217.365 59.3766C218.112 60.1244 218.532 61.1388 218.532 62.1964C218.532 63.254 218.112 64.2682 217.365 65.0162C216.617 65.764 215.602 66.184 214.544 66.184Z" stroke="#006B99" stroke-width="1.54342" stroke-linecap="round" stroke-linejoin="round"/>
<path d="M359.8 58.2398C359.685 58.2398 359.591 58.2086 359.484 58.2086H236.564C235.507 58.2086 234.493 58.6288 233.744 59.3766C232.996 60.1244 232.577 61.1388 232.577 62.1964C232.577 63.254 232.996 64.2682 233.744 65.0162C234.493 65.764 235.507 66.184 236.564 66.184H355.925L359.8 58.2398Z" stroke="#006B99" stroke-width="1.54342" stroke-linecap="round" stroke-linejoin="round"/>
<path d="M141.115 62.1935C141.114 62.7797 140.939 63.3523 140.613 63.8394C140.286 64.3263 139.823 64.7054 139.281 64.9292C138.74 65.153 138.144 65.2112 137.569 65.0965C136.994 64.9817 136.466 64.6991 136.052 64.2845C135.637 63.8699 135.355 63.3418 135.241 62.767C135.126 62.192 135.185 61.5963 135.409 61.0547C135.633 60.5132 136.013 60.0501 136.501 59.7244C136.988 59.3985 137.561 59.2243 138.147 59.2238C138.537 59.2232 138.923 59.2996 139.284 59.4487C139.644 59.5977 139.972 59.8164 140.248 60.0923C140.523 60.3684 140.742 60.696 140.891 61.0566C141.04 61.4172 141.116 61.8035 141.115 62.1935Z" stroke="#006B99" stroke-width="1.54342" stroke-linecap="round" stroke-linejoin="round"/>
<path d="M245.548 83.2315H161.382C160.85 83.2449 160.321 83.151 159.826 82.9556C159.331 82.762 158.88 82.4708 158.499 82.0991C158.118 81.7274 157.816 81.2829 157.609 80.7943C157.402 80.3038 157.296 79.7769 157.296 79.2443C157.296 78.7135 157.402 78.1866 157.609 77.6963C157.816 77.2062 158.118 76.7623 158.499 76.3908C158.88 76.0194 159.331 75.7278 159.826 75.5333C160.321 75.3389 160.85 75.2454 161.382 75.2584H245.548C246.079 75.2454 246.608 75.3389 247.104 75.5333C247.599 75.7278 248.049 76.0194 248.43 76.3908C248.812 76.7623 249.115 77.2062 249.321 77.6963C249.527 78.1866 249.634 78.7135 249.634 79.2443C249.634 79.7769 249.527 80.3038 249.321 80.7943C249.115 81.2829 248.812 81.7274 248.43 82.0991C248.049 82.4708 247.599 82.762 247.104 82.9556C246.608 83.151 246.079 83.2449 245.548 83.2315Z" stroke="#006B99" stroke-width="1.54342" stroke-linecap="round" stroke-linejoin="round"/>
<path d="M359.482 83.2315H267.565C266.777 83.2334 266.005 82.9996 265.348 82.5628C264.692 82.124 264.179 81.5013 263.878 80.7732C263.575 80.0432 263.497 79.2423 263.652 78.4683C263.807 77.6944 264.186 76.9841 264.746 76.4272C265.114 76.0549 265.555 75.7598 266.038 75.5592C266.522 75.3584 267.042 75.2563 267.565 75.2584H359.482C360.015 75.2454 360.544 75.3389 361.038 75.5333C361.534 75.7278 361.985 76.0194 362.366 76.3908C362.747 76.7623 363.048 77.2062 363.255 77.6963C363.462 78.1866 363.569 78.7135 363.569 79.2443C363.569 79.7769 363.462 80.3038 363.255 80.7943C363.048 81.2829 362.747 81.7274 362.366 82.0991C361.985 82.4708 361.534 82.762 361.038 82.9556C360.544 83.151 360.015 83.2449 359.482 83.2315Z" stroke="#006B99" stroke-width="1.54342" stroke-linecap="round" stroke-linejoin="round"/>
<path d="M141.115 79.2423C141.114 79.8286 140.94 80.4015 140.614 80.8882C140.288 81.3748 139.825 81.7542 139.283 81.9784C138.741 82.2025 138.145 82.2619 137.57 82.147C136.995 82.032 136.467 81.7504 136.052 81.3365C135.638 80.9207 135.355 80.3938 135.241 79.819C135.126 79.2423 135.185 78.6464 135.409 78.1061C135.633 77.5639 136.013 77.1008 136.5 76.7749C136.987 76.4488 137.56 76.2746 138.147 76.2741C138.537 76.2735 138.923 76.3497 139.283 76.4988C139.644 76.6477 139.971 76.8661 140.247 77.1418C140.523 77.4175 140.741 77.745 140.89 78.1061C141.039 78.4663 141.115 78.8515 141.115 79.2423Z" stroke="#006B99" stroke-width="1.54342" stroke-linecap="round" stroke-linejoin="round"/>
<path d="M199.043 100.291H161.383C160.324 100.29 159.31 99.8681 158.561 99.1208C157.813 98.3717 157.392 97.3562 157.392 96.2986C157.395 95.2409 157.817 94.2293 158.565 93.4839C159.313 92.7367 160.326 92.3171 161.383 92.3152H199.043C200.1 92.3152 201.116 92.7348 201.863 93.4839C202.611 94.2312 203.032 95.2448 203.032 96.3024C203.032 97.36 202.611 98.3755 201.863 99.1227C201.116 99.87 200.1 100.291 199.043 100.291Z" stroke="#006B99" stroke-width="1.54342" stroke-linecap="round" stroke-linejoin="round"/>
<path d="M359.484 100.291H221.061C220.003 100.29 218.99 99.8681 218.24 99.1189C217.493 98.3717 217.071 97.3562 217.071 96.2986C217.075 95.2428 217.497 94.2312 218.244 93.4839C218.994 92.7386 220.005 92.3171 221.061 92.3152H359.484C360.542 92.3152 361.555 92.7348 362.303 93.4839C363.052 94.2312 363.472 95.2448 363.472 96.3024C363.472 97.36 363.052 98.3755 362.303 99.1227C361.555 99.87 360.542 100.291 359.484 100.291Z" stroke="#006B99" stroke-width="1.54342" stroke-linecap="round" stroke-linejoin="round"/>
<path d="M139.627 98.3506C139.627 98.5211 139.627 98.6916 139.61 98.8545C140.099 98.5786 140.498 98.1686 140.762 97.6743C141.026 97.1799 141.143 96.6185 141.099 96.061C141.055 95.5015 140.853 94.9669 140.515 94.5186C140.177 94.0703 139.719 93.7273 139.193 93.5319H139.176C139.388 94.7064 139.526 95.8905 139.588 97.0822V97.178C139.617 97.5612 139.627 97.9559 139.627 98.3506Z" stroke="#006B99" stroke-width="1.54342" stroke-linecap="round" stroke-linejoin="round"/>
<path d="M292.052 117.329H161.383C160.324 117.329 159.31 116.907 158.561 116.16C157.813 115.411 157.392 114.397 157.392 113.339C157.394 112.282 157.815 111.268 158.563 110.523C159.311 109.776 160.326 109.356 161.383 109.356H292.052C293.092 109.381 294.083 109.812 294.81 110.557C295.536 111.303 295.944 112.301 295.944 113.343C295.944 114.384 295.536 115.382 294.81 116.127C294.083 116.873 293.092 117.304 292.052 117.329Z" stroke="#006B99" stroke-width="1.54342" stroke-linecap="round" stroke-linejoin="round"/>
<path d="M359.482 117.329H314.071C313.011 117.329 311.997 116.909 311.248 116.16C310.5 115.413 310.081 114.397 310.079 113.339C310.081 112.282 310.502 111.268 311.25 110.523C311.999 109.776 313.013 109.356 314.071 109.356H359.482C360.015 109.343 360.544 109.437 361.038 109.632C361.534 109.826 361.985 110.117 362.366 110.488C362.745 110.86 363.048 111.305 363.255 111.793C363.462 112.284 363.568 112.811 363.568 113.343C363.568 113.874 363.462 114.401 363.255 114.891C363.048 115.382 362.745 115.825 362.366 116.196C361.985 116.568 361.534 116.859 361.038 117.055C360.544 117.248 360.015 117.342 359.482 117.329Z" stroke="#006B99" stroke-width="1.54342" stroke-linecap="round" stroke-linejoin="round"/>
<path d="M136.952 110.59C137.191 110.35 137.943 110.368 138.149 110.368C138.936 110.368 139.691 110.68 140.248 111.236C140.805 111.793 141.117 112.548 141.117 113.334C141.117 114.121 140.805 114.876 140.248 115.434C139.691 115.989 138.936 116.302 138.149 116.302C137.517 116.286 136.905 116.074 136.401 115.69C135.897 115.307 135.526 114.776 135.342 114.171" stroke="#006B99" stroke-width="1.54342" stroke-linecap="round" stroke-linejoin="round"/>
<path d="M191.291 134.379H161.383C160.324 134.377 159.31 133.956 158.561 133.208C157.813 132.459 157.392 131.444 157.392 130.386C157.395 129.33 157.817 128.317 158.565 127.571C159.313 126.824 160.326 126.405 161.383 126.403H191.291C192.349 126.403 193.365 126.824 194.112 127.571C194.859 128.319 195.281 129.334 195.281 130.392C195.281 131.449 194.859 132.463 194.112 133.21C193.365 133.959 192.349 134.379 191.291 134.379Z" stroke="#006B99" stroke-width="1.54342" stroke-linecap="round" stroke-linejoin="round"/>
<path d="M359.484 134.379H213.312C212.254 134.377 211.238 133.956 210.491 133.208C209.741 132.459 209.32 131.446 209.32 130.386C209.324 129.33 209.745 128.319 210.495 127.571C211.242 126.826 212.256 126.405 213.312 126.403H359.484C360.542 126.403 361.555 126.824 362.303 127.571C363.052 128.319 363.472 129.334 363.472 130.392C363.472 131.449 363.052 132.463 362.303 133.21C361.555 133.959 360.542 134.379 359.484 134.379Z" stroke="#006B99" stroke-width="1.54342" stroke-linecap="round" stroke-linejoin="round"/>
<path d="M261.049 151.428H161.383C160.324 151.426 159.31 151.006 158.561 150.257C157.813 149.51 157.392 148.494 157.392 147.437C157.394 146.379 157.815 145.367 158.563 144.62C159.311 143.873 160.326 143.453 161.383 143.453H261.049C262.09 143.48 263.079 143.911 263.805 144.654C264.533 145.4 264.94 146.4 264.94 147.44C264.94 148.481 264.533 149.481 263.805 150.224C263.079 150.97 262.09 151.401 261.049 151.428Z" stroke="#006B99" stroke-width="1.54342" stroke-linecap="round" stroke-linejoin="round"/>
<path d="M359.482 151.428H283.068C282.01 151.426 280.997 151.006 280.247 150.257C279.498 149.51 279.076 148.494 279.076 147.437C279.078 146.379 279.502 145.367 280.249 144.62C280.998 143.875 282.012 143.455 283.068 143.453H359.482C360.523 143.48 361.513 143.911 362.24 144.654C362.966 145.4 363.374 146.4 363.374 147.44C363.374 148.481 362.966 149.481 362.24 150.224C361.513 150.97 360.523 151.401 359.482 151.428Z" stroke="#006B99" stroke-width="1.54342" stroke-linecap="round" stroke-linejoin="round"/>
<path d="M141.115 147.437C141.114 148.023 140.939 148.596 140.613 149.082C140.286 149.569 139.823 149.948 139.281 150.173C138.74 150.397 138.144 150.454 137.569 150.339C136.994 150.224 136.466 149.943 136.052 149.527C135.637 149.113 135.355 148.584 135.241 148.009C135.126 147.435 135.185 146.839 135.409 146.298C135.633 145.756 136.013 145.293 136.501 144.967C136.988 144.641 137.561 144.467 138.147 144.467C138.537 144.467 138.923 144.543 139.284 144.691C139.644 144.84 139.972 145.059 140.248 145.335C140.523 145.611 140.742 145.94 140.891 146.3C141.04 146.661 141.116 147.048 141.115 147.437Z" stroke="#006B99" stroke-width="1.54342" stroke-linecap="round" stroke-linejoin="round"/>
<path d="M315.307 168.474H161.383C160.324 168.474 159.31 168.053 158.561 167.305C157.813 166.556 157.392 165.543 157.392 164.485C157.395 163.427 157.817 162.416 158.565 161.669C159.313 160.923 160.326 160.502 161.383 160.502H315.307C316.347 160.527 317.338 160.958 318.064 161.703C318.791 162.448 319.199 163.447 319.199 164.487C319.199 165.529 318.791 166.528 318.064 167.273C317.338 168.018 316.347 168.449 315.307 168.474Z" stroke="#006B99" stroke-width="1.54342" stroke-linecap="round" stroke-linejoin="round"/>
<path d="M359.484 168.474H337.323C336.266 168.474 335.25 168.053 334.503 167.305C333.755 166.556 333.334 165.543 333.334 164.483C333.335 163.427 333.757 162.416 334.506 161.669C335.254 160.921 336.267 160.502 337.323 160.502H359.484C360.015 160.488 360.545 160.582 361.04 160.776C361.534 160.971 361.987 161.262 362.366 161.634C362.747 162.006 363.05 162.448 363.257 162.939C363.464 163.429 363.569 163.956 363.569 164.487C363.569 165.02 363.464 165.547 363.257 166.037C363.05 166.526 362.747 166.97 362.366 167.342C361.987 167.714 361.534 168.005 361.04 168.198C360.545 168.394 360.015 168.488 359.484 168.474Z" stroke="#006B99" stroke-width="1.54342" stroke-linecap="round" stroke-linejoin="round"/>
<path d="M141.115 164.477C141.114 165.064 140.94 165.637 140.614 166.123C140.288 166.61 139.825 166.991 139.283 167.215C138.741 167.44 138.145 167.497 137.57 167.382C136.995 167.269 136.467 166.985 136.052 166.572C135.638 166.158 135.355 165.629 135.241 165.054C135.126 164.479 135.185 163.883 135.409 163.341C135.633 162.799 136.013 162.337 136.5 162.01C136.987 161.684 137.56 161.51 138.147 161.51C138.537 161.51 138.923 161.586 139.283 161.734C139.644 161.883 139.971 162.102 140.247 162.377C140.523 162.653 140.741 162.981 140.89 163.341C141.039 163.701 141.115 164.087 141.115 164.477Z" stroke="#006B99" stroke-width="1.54342" stroke-linecap="round" stroke-linejoin="round"/>
<path d="M214.544 185.525H161.383C160.324 185.523 159.31 185.101 158.561 184.354C157.813 183.605 157.392 182.589 157.392 181.532C157.395 180.476 157.817 179.463 158.565 178.717C159.313 177.97 160.326 177.55 161.383 177.548H214.544C215.602 177.548 216.617 177.97 217.365 178.717C218.112 179.464 218.532 180.48 218.532 181.538C218.532 182.593 218.112 183.609 217.365 184.356C216.617 185.103 215.602 185.525 214.544 185.525Z" stroke="#006B99" stroke-width="1.54342" stroke-linecap="round" stroke-linejoin="round"/>
<path d="M359.484 185.525H236.564C235.507 185.523 234.491 185.101 233.742 184.354C232.994 183.605 232.573 182.589 232.571 181.532C232.577 180.476 232.998 179.463 233.747 178.717C234.495 177.97 235.509 177.55 236.564 177.548H359.484C360.542 177.548 361.555 177.97 362.303 178.717C363.052 179.464 363.472 180.48 363.472 181.538C363.472 182.593 363.052 183.609 362.303 184.356C361.555 185.103 360.542 185.525 359.484 185.525Z" stroke="#006B99" stroke-width="1.54342" stroke-linecap="round" stroke-linejoin="round"/>
<path d="M141.115 181.532C141.114 182.118 140.94 182.691 140.614 183.178C140.288 183.666 139.825 184.046 139.283 184.27C138.741 184.494 138.145 184.551 137.57 184.438C136.995 184.323 136.467 184.04 136.052 183.626C135.638 183.212 135.355 182.683 135.241 182.109C135.126 181.534 135.185 180.938 135.409 180.396C135.633 179.853 136.013 179.392 136.5 179.066C136.987 178.738 137.56 178.566 138.147 178.564C138.537 178.564 138.923 178.641 139.283 178.79C139.643 178.939 139.971 179.158 140.246 179.434C140.522 179.708 140.74 180.035 140.889 180.396C141.039 180.756 141.115 181.143 141.115 181.532Z" stroke="#006B99" stroke-width="1.54342" stroke-linecap="round" stroke-linejoin="round"/>
<path d="M84.8817 98.1647C84.7882 98.1647 84.6972 98.1647 84.6039 98.1647C84.5104 98.1647 84.4097 98.1647 84.3164 98.1647C81.4387 98.0172 78.7322 96.7526 76.7743 94.6393C74.8164 92.5259 73.7618 89.7305 73.8356 86.8507C73.9094 83.971 75.1056 81.233 77.1691 79.2231C79.2326 77.2119 82.0003 76.087 84.8817 76.0874" stroke="#006B99" stroke-width="2.31632" stroke-linecap="round" stroke-linejoin="round"/>
<path d="M69.1946 98.1494H84.8823C84.7888 98.1494 84.6978 98.1494 84.6045 98.1494C81.7074 98.2337 78.9595 99.4542 76.9533 101.545C74.9473 103.637 73.8435 106.432 73.8799 109.329C73.9163 112.226 75.0901 114.995 77.1482 117.035C79.2063 119.074 81.9841 120.226 84.8823 120.237" stroke="#006B99" stroke-width="2.31632" stroke-linecap="round" stroke-linejoin="round"/>
<path d="M104.716 98.1647C104.81 98.1647 104.91 98.1647 105.003 98.1647C105.097 98.1647 105.19 98.1647 105.281 98.1647C108.159 98.0172 110.865 96.7526 112.823 94.6393C114.781 92.5259 115.836 89.7305 115.762 86.8507C115.688 83.971 114.492 81.233 112.429 79.2231C110.365 77.2119 107.597 76.087 104.716 76.0874" stroke="#006B99" stroke-width="2.31632" stroke-linecap="round" stroke-linejoin="round"/>
<path d="M120.404 98.1494H104.716C104.81 98.1494 104.91 98.1494 105.003 98.1494C107.901 98.2337 110.649 99.4542 112.655 101.546C114.662 103.639 115.765 106.436 115.727 109.335C115.689 112.232 114.514 115.001 112.454 117.039C110.394 119.078 107.615 120.227 104.716 120.237" stroke="#006B99" stroke-width="2.31632" stroke-linecap="round" stroke-linejoin="round"/>
<path d="M410.28 48.7626L431.339 36.6127L410.28 24.4534" stroke="#006B99" stroke-width="2.31632" stroke-linecap="round" stroke-linejoin="round"/>
<path d="M388.664 24.4534L367.605 36.6127L388.664 48.7626" stroke="#006B99" stroke-width="2.31632" stroke-linecap="round" stroke-linejoin="round"/>
<path d="M405.468 18.9592L392.88 54.0868" stroke="#006B99" stroke-width="1.54342" stroke-linecap="round" stroke-linejoin="round"/>
<path d="M386.826 219.668L390.237 209.314L398.33 184.749L406.428 209.314L409.839 219.668" stroke="#006B99" stroke-width="2.31632" stroke-linecap="round" stroke-linejoin="round"/>
<path d="M390.237 209.314H406.428" stroke="#006B99" stroke-width="2.31632" stroke-linecap="round" stroke-linejoin="round"/>
<path d="M427.362 213.64C425.139 218.405 420.975 221.172 418.078 219.823C415.178 218.474 414.638 213.508 416.861 208.735C419.084 203.96 423.238 201.201 426.145 202.55C427.038 203.098 427.757 203.892 428.215 204.834C428.673 205.777 428.853 206.831 428.734 207.873C428.698 209.871 428.23 211.839 427.362 213.64Z" stroke="#006B99" stroke-width="1.54342" stroke-linecap="round" stroke-linejoin="round"/>
<path d="M428.729 207.802C428.729 207.827 428.729 207.85 428.729 207.873C429.154 212.065 426.59 223.109 433.28 218.614" stroke="#006B99" stroke-width="1.54342" stroke-linecap="round" stroke-linejoin="round"/>
</svg>
