<svg width="22" height="22" viewBox="0 0 22 22" fill="none" xmlns="http://www.w3.org/2000/svg">
<path d="M21.3599 2.48753C20.5602 2.91641 19.7119 3.19783 18.8432 3.32226C19.7581 2.65959 20.4428 1.61676 20.7697 0.388178C19.9097 1.00621 18.9685 1.44141 17.9872 1.67492C17.5772 1.14552 17.0817 0.723695 16.5315 0.435588C15.9813 0.147469 15.388 -0.000786546 14.7885 3.13815e-06C12.3686 3.13815e-06 10.4064 2.37471 10.4064 5.30478C10.4064 5.72014 10.4452 6.12546 10.5201 6.514C6.87796 6.29272 3.64908 4.18061 1.48765 0.970772C1.09794 1.78038 0.893154 2.70091 0.894311 3.6379C0.893742 4.51132 1.07139 5.37139 1.41149 6.14162C1.75159 6.91196 2.24361 7.56855 2.84382 8.05324C2.14803 8.0265 1.46759 7.79897 0.859083 7.38977C0.858528 7.41189 0.858528 7.43365 0.858528 7.45658C0.858528 10.0259 2.36892 12.17 4.37333 12.658C3.72794 12.8694 3.05122 12.9004 2.39444 12.7486C2.952 14.8556 4.5703 16.3899 6.48789 16.4329C4.9356 17.9075 3.01871 18.7074 1.04549 18.7038C0.691816 18.7038 0.343135 18.679 0 18.6296C2.0037 20.188 4.3357 21.0153 6.71731 21.0124C14.7778 21.0124 19.1855 12.9295 19.1855 5.92029C19.1855 5.69068 19.1811 5.46124 19.1728 5.23327C20.0311 4.48309 20.7719 3.55322 21.3599 2.48753Z" fill="black"/>
</svg>
